<?xml version="1.0" encoding="UTF-8"?>
<svg width="76px" height="132px" viewBox="0 0 76 132" version="1.1" xmlns="http://www.w3.org/2000/svg" xmlns:xlink="http://www.w3.org/1999/xlink">
    <!-- Generator: Sketch 62 (91390) - https://sketch.com -->
    <title>Service1</title>
    <desc>Created with Sketch.</desc>
    <g id="Size-1920" stroke="none" stroke-width="1" fill="none" fill-rule="evenodd">
        <g id="Home-Page" transform="translate(-503.000000, -1664.000000)">
            <g id="Service1" transform="translate(471.000000, 1660.000000)">
                <rect id="Rectangle" x="0" y="0" width="140" height="140"></rect>
                <g id="interactive" transform="translate(32.000000, 4.000000)" fill="#8997B9" fill-rule="nonzero">
                    <path d="M3.40654167,27.5646409 C2.34227778,27.316103 1.27695833,27.9712679 1.02679167,29.0283407 C0.688486111,30.457696 0.431986111,31.9234931 0.264416667,33.3853577 C0.141180556,34.4644528 0.9215,35.4386796 2.00740278,35.5613756 C2.08340278,35.5700272 2.158875,35.5742219 2.23355556,35.5742219 C3.22656944,35.5742219 4.082625,34.8335893 4.19768056,33.8299994 C4.34756944,32.5209805 4.57715278,31.2082911 4.88009722,29.9288975 C5.13026389,28.8718247 4.47080556,27.8131789 3.40654167,27.5646409 Z" id="Path"></path>
                    <path d="M72.2131944,21.4639258 C71.5764306,20.1394387 70.8528472,18.8374984 70.0625,17.5940222 C69.4790417,16.6761621 68.2567083,16.4014071 67.3323056,16.9813289 C66.4081667,17.5609886 66.131875,18.7756261 66.7155972,19.6937483 C67.4228194,20.8071878 68.0709306,21.9730615 68.6411944,23.1588602 C68.9808194,23.8654106 69.689625,24.2780674 70.4285139,24.2780674 C70.7143056,24.2780674 71.0051111,24.2161951 71.2803472,24.085634 C72.2662361,23.6176591 72.6839722,22.4436581 72.2131944,21.4639258 Z" id="Path"></path>
                    <path d="M18.2336667,7.75239141 C17.5850278,6.87831387 16.3458056,6.69217258 15.4662639,7.33658848 C14.2769167,8.20778214 13.1258333,9.15893791 12.0454722,10.1630522 C11.2474722,10.9049956 11.2055139,12.1492584 11.9523194,12.9423251 C12.3415556,13.3557685 12.8688056,13.5649809 13.3976389,13.5649809 C13.8821389,13.5649809 14.3676944,13.3893264 14.7495417,13.0346093 C15.71775,12.1345768 16.7492917,11.2825216 17.8151389,10.5017769 C18.6949444,9.857361 18.8823056,8.62620678 18.2336667,7.75239141 Z" id="Path"></path>
                    <path d="M9.051125,16.3494972 C8.13991667,15.7496504 6.91204167,15.9974018 6.308,16.9026777 C5.49020833,18.1291128 4.73759722,19.4158472 4.07101389,20.7274879 C3.57833333,21.69752 3.97020833,22.8801726 4.94606944,23.3693833 C5.232125,23.5127908 5.53638889,23.580693 5.83643056,23.580693 C6.55975,23.580693 7.25668056,23.1853394 7.60475,22.5000249 C8.20166667,21.3254996 8.875375,20.1729966 9.60793056,19.074763 C10.2117083,18.1694871 9.96233333,16.9493441 9.051125,16.3494972 Z" id="Path"></path>
                    <path d="M75.7395417,34.1973007 C75.6039028,32.7315036 75.3793333,31.2607253 75.0726944,29.82534 C74.8454861,28.7630238 73.7938889,28.0842635 72.7254028,28.310517 C71.656125,28.5365082 70.9737083,29.5804725 71.2006528,30.6425265 C71.4753611,31.9276879 71.6764444,33.2450963 71.7980972,34.5577856 C71.8925694,35.5778923 72.7552222,36.3439555 73.7664444,36.3439555 C73.8271389,36.3439555 73.8883611,36.3413338 73.9501111,36.335566 C75.0386528,36.2359411 75.8398194,35.2787554 75.7395417,34.1973007 Z" id="Path"></path>
                    <path d="M53.4913333,3.29365212 C52.1402222,2.69065922 50.7389722,2.16186065 49.3271667,1.72167583 C48.2834861,1.39658401 47.1733056,1.97309766 46.8463472,3.00945894 C46.5193889,4.04555806 47.0996806,5.14903508 48.1425694,5.47386474 C49.4063333,5.86764532 50.6600694,6.34086367 51.8692083,6.8806734 C52.1328333,6.99812594 52.4080694,7.05396832 52.6790833,7.05396832 C53.4343333,7.05396832 54.1560694,6.6219108 54.4856667,5.89307589 C54.9334861,4.9025945 54.4885694,3.73881819 53.4913333,3.29365212 Z" id="Path"></path>
                    <path d="M40.5937639,0.0894002526 C39.1239028,-0.0110111748 37.6205278,-0.0267414245 36.1469722,0.0422095034 C35.055,0.0933328151 34.211875,1.01407677 34.2630694,2.09893966 C34.3142639,3.18380255 35.2415694,4.01934098 36.3330139,3.9705772 C37.6553611,3.90870489 39.0043611,3.92286211 40.32275,4.01278671 C40.3686667,4.01593276 40.4145833,4.01750578 40.4602361,4.01750578 C41.4915139,4.01750578 42.3612917,3.22339034 42.4328056,2.1857182 C42.50775,1.10242834 41.6844167,0.163856768 40.5937639,0.0894002526 Z" id="Path"></path>
                    <path d="M29.8318472,2.82672588 C29.5273194,1.78381032 28.4290139,1.18317695 27.3797917,1.48572209 C25.9584861,1.89497075 24.5469444,2.39309533 23.1839583,2.96620076 C22.1772222,3.38960665 21.7064444,4.54315829 22.132625,5.54334001 C22.4521944,6.29314858 23.1852778,6.74355806 23.9563611,6.74355806 C24.2136528,6.74355806 24.4749028,6.69348343 24.7266528,6.58756642 C25.9466111,6.07476028 27.2098472,5.62906987 28.4817917,5.26281722 C29.5318056,4.96053425 30.1361111,3.86990361 29.8318472,2.82672588 Z" id="Path"></path>
                    <path d="M64.4746528,10.7322251 C63.4161944,9.70477757 62.2864861,8.72897775 61.1161389,7.83209134 C60.2505833,7.16879914 59.0079306,7.32819901 58.3400278,8.18785716 C57.6723889,9.04777748 57.8325694,10.2826021 58.6978611,10.9458943 C59.7468194,11.74971 60.759625,12.6243119 61.7083056,13.545318 C62.0930556,13.9191736 62.5923333,14.1050528 63.0913472,14.1050528 C63.6054028,14.1050528 64.1194583,13.9071138 64.5071111,13.5128089 C65.2710694,12.7359967 65.2565556,11.4912096 64.4746528,10.7322251 Z" id="Path"></path>
                    <path d="M4.92443056,45.6407953 C4.61409722,44.363499 4.377125,43.0521205 4.21984722,41.7431015 C4.09001389,40.6647929 3.10623611,39.8953215 2.01980556,40.0240474 C0.934430556,40.1527733 0.159652778,41.131457 0.289222222,42.2095034 C0.465236111,43.671368 0.729916667,45.1363786 1.07640278,46.5631122 C1.29516667,47.4639312 2.10556944,48.0687593 2.99883333,48.0687593 C3.15241667,48.0687593 3.30863889,48.0509317 3.46459722,48.0134413 C4.52727778,47.7586112 5.18066667,46.696295 4.92443056,45.6407953 Z" id="Path"></path>
                    <path d="M63.2779167,63.1412224 C62.5530139,62.3284929 61.3021806,62.2532498 60.484125,62.9731709 C59.4916389,63.8467241 58.4371389,64.670727 57.3501806,65.422633 C56.4532222,66.0429292 56.2320833,67.2685778 56.8567083,68.1596964 C57.2414583,68.7086821 57.8571111,69.0028378 58.4827917,69.0028378 C58.8730833,69.0028378 59.2673333,68.8885313 59.6117083,68.6502181 C60.8248056,67.8112714 62.0014861,66.8915761 63.1087639,65.916825 C63.9270833,65.1966417 64.0028194,63.953952 63.2779167,63.1412224 Z" id="Path"></path>
                    <path d="M70.5678472,52.9065976 C69.6059722,52.3911698 68.4052778,52.7474599 67.8862083,53.7033348 C67.2573611,54.8610811 66.5519861,55.9947078 65.7893472,57.0735408 C65.1612917,57.9622999 65.3768889,59.1884728 66.2714722,59.8127016 C66.6176944,60.0541609 67.0143194,60.1700404 67.40725,60.1700404 C68.0300278,60.1700404 68.6433056,59.8785065 69.0285833,59.3337155 C69.8798889,58.1295649 70.6673333,56.8635419 71.3695417,55.5710397 C71.888875,54.6151649 71.5297222,53.4222876 70.5678472,52.9065976 Z" id="Path"></path>
                    <path d="M17.9679306,64.9968676 C16.8973333,64.2218906 15.8610417,63.3750788 14.8870278,62.4800276 C14.0848056,61.7425411 12.8323889,61.7910427 12.0900694,62.588042 C11.34775,63.3853035 11.3965694,64.6293041 12.1987917,65.3667906 C13.2852222,66.3653993 14.4418472,67.3102629 15.6362083,68.1751645 C15.9887639,68.4297324 16.3964722,68.5524283 16.80075,68.5524283 C17.4116528,68.5524283 18.0146389,68.2721677 18.4017639,67.7441557 C19.0456528,66.8666699 18.8514306,65.6365644 17.9679306,64.9968676 Z" id="Path"></path>
                    <path d="M52.8938889,70.2636173 C52.4962083,69.2524244 51.3485556,68.7527268 50.3302083,69.1483426 C50.2048611,69.1968442 50.07925,69.2448215 49.9536389,69.2920122 C48.9310694,69.6758303 48.4151667,70.8105057 48.8015,71.8264176 C49.10075,72.6134545 49.853625,73.0982083 50.6534722,73.0982083 C50.8856944,73.0982083 51.1221389,73.0573097 51.3525139,72.9707933 C51.492375,72.9183591 51.6319722,72.8651385 51.7710417,72.8108691 C52.789125,72.4155155 53.2918333,71.2750724 52.8938889,70.2636173 Z" id="Path"></path>
                    <path d="M9.71190278,56.4671396 C8.97327778,55.3723143 8.29297222,54.2237439 7.68998611,53.0534133 C7.19202778,52.0867894 6.00004167,51.7037578 5.02655556,52.1987364 C4.05359722,52.6934527 3.66858333,53.8782027 4.16654167,54.8448265 C4.83972222,56.1520103 5.59945833,57.43455 6.424375,58.6567904 C6.80595833,59.2228172 7.43216667,59.5285084 8.06998611,59.5285084 C8.44893056,59.5285084 8.83183333,59.420494 9.17013889,59.1952893 C10.0779167,58.5904612 10.3206944,57.3690073 9.71190278,56.4671396 Z" id="Path"></path>
                    <path d="M73.8421806,40.7966649 C72.7597083,40.6443436 71.7585139,41.3931035 71.6051944,42.4680039 C71.4194167,43.7733524 71.1534167,45.080274 70.8145833,46.3520647 C70.5348611,47.4017967 71.1650278,48.478008 72.2216389,48.755909 C72.3913194,48.8004781 72.5615278,48.8217139 72.7290972,48.8217139 C73.6052083,48.8217139 74.406375,48.2391703 74.6412361,47.357752 C75.0196528,45.936524 75.3167917,44.4767568 75.5244722,43.0185626 C75.6777917,41.9436622 74.9243889,40.9487239 73.8421806,40.7966649 Z" id="Path"></path>
                    <path d="M37.9601528,10.508069 C22.8717778,10.508069 10.5967222,22.7034694 10.5967222,37.6936109 C10.5967222,47.3721714 15.8415139,56.3966157 24.2846389,61.245203 C24.5965556,61.4242657 24.9372361,61.5094712 25.2734306,61.5094712 C25.9569028,61.5094712 26.6219028,61.1571136 26.9887083,60.5268549 C27.53575,59.5867103 27.2119583,58.3838706 26.2656528,57.8403904 C19.0422222,53.6920614 14.5550556,45.9721792 14.5550556,37.6933488 C14.5550556,24.8716222 25.0546667,14.4403693 37.9601528,14.4403693 C50.8656389,14.4403693 61.36525,24.8716222 61.36525,37.6933488 C61.36525,45.968771 56.8809861,53.686818 49.6623056,57.8359335 C48.7162639,58.3796758 48.393,59.5825156 48.9403056,60.5226602 C49.4876111,61.4625426 50.6983333,61.7837019 51.6446389,61.2399596 C60.0822222,56.3903236 65.3235833,47.3677145 65.3235833,37.6933488 C65.3235833,22.7034694 53.0482639,10.508069 37.9601528,10.508069 Z" id="Path"></path>
                    <path d="M37.9601528,23.9599896 C30.8053165,23.9599896 24.984543,29.7221725 24.984543,36.8048375 C24.984543,41.3778432 27.4715985,45.6417867 31.4752886,47.932687 C31.623198,48.017292 31.7847471,48.0575506 31.9441689,48.0575506 C32.2682682,48.0575506 32.5836081,47.8910658 32.7575456,47.593276 C33.0169501,47.1490688 32.8634096,46.5807412 32.414676,46.3239532 C28.9893593,44.3639167 26.861566,40.7163634 26.861566,36.8047136 C26.861566,30.7465991 31.8404321,25.8179551 37.9601528,25.8179551 C44.0798734,25.8179551 49.0587395,30.7465991 49.0587395,36.8047136 C49.0587395,40.714753 46.9323227,44.3614392 43.5092585,46.3218474 C43.06065,46.5787592 42.9073597,47.1470868 43.1668895,47.591294 C43.4264192,48.0353774 44.0005379,48.1871213 44.4492716,47.9302095 C48.4503338,45.6388137 50.9357625,41.3757373 50.9357625,36.8047136 C50.9357625,29.7221725 45.1148639,23.9599896 37.9601528,23.9599896 Z" id="Path" stroke="#8997B9"></path>
                    <path d="M68.2472631,77.0782237 L65.7753662,77.0782237 C64.8775257,74.5660947 62.4860327,72.8865628 59.8028186,72.8834904 L55.2198107,72.8834904 C54.3219702,70.3713614 51.9304771,68.6918295 49.2472631,68.6887572 L45.0250409,68.6887572 L45.0250409,48.7637742 C45.0250409,44.7093432 41.7171525,41.422991 37.636152,41.422991 C33.5551515,41.422991 30.2472631,44.7093432 30.2472631,48.7637742 L30.2472631,85.5117268 L28.3010825,82.3216403 C26.1075061,78.6686584 21.4049238,77.3854551 17.6403836,79.4111346 C13.8768747,81.4368137 12.3904379,86.0514298 14.272708,89.8723649 L23.7149823,111.961282 C25.2488365,115.551793 28.4969377,118.135609 32.3583742,118.837121 L32.3583742,131.609756 L36.5805964,131.609756 L36.5805964,119.025556 L42.9139297,119.025556 L42.9139297,114.830823 L34.4694853,114.830823 C31.474965,114.833895 28.7701039,113.056049 27.6021892,110.317593 L18.1021892,88.1078323 C17.2125952,86.315649 17.8980877,84.1445468 19.6597522,83.1777919 C21.4203858,82.212061 23.6356093,82.7917044 24.6891034,84.4947905 L30.3987931,93.8571567 L34.4694853,93.8571567 L34.4694853,48.7637742 C34.4694853,47.0258684 35.8868573,45.6177242 37.636152,45.6177242 C39.3854466,45.6177242 40.8028186,47.0258684 40.8028186,48.7637742 L40.8028186,81.272957 L45.0250409,81.272957 L45.0250409,72.8834904 L49.2472631,72.8834904 C50.413116,72.8834904 51.3583742,73.8225945 51.3583742,74.9808571 L51.3583742,85.4676902 L55.5805964,85.4676902 L55.5805964,77.0782237 L59.8028186,77.0782237 C60.9686716,77.0782237 61.9139297,78.0173277 61.9139297,79.1755903 L61.9139297,89.6624235 L66.136152,89.6624235 L66.136152,81.272957 L68.2472631,81.272957 C69.413116,81.272957 70.3583742,82.212061 70.3583742,83.3703236 L70.3583742,107.840284 L64.0250409,116.22975 L64.0250409,131.609756 L68.2472631,131.609756 L68.2472631,117.626629 L74.5805964,109.237162 L74.5805964,83.3703236 C74.5805964,79.8955361 71.7448216,77.0782237 68.2472631,77.0782237 Z" id="Path"></path>
                </g>
            </g>
        </g>
    </g>
</svg>