<?xml version="1.0" encoding="UTF-8"?>
<svg width="99px" height="115px" viewBox="0 0 99 115" version="1.1" xmlns="http://www.w3.org/2000/svg" xmlns:xlink="http://www.w3.org/1999/xlink">
    <!-- Generator: Sketch 62 (91390) - https://sketch.com -->
    <title>Service6</title>
    <desc>Created with Sketch.</desc>
    <g id="Size-1920" stroke="none" stroke-width="1" fill="none" fill-rule="evenodd">
        <g id="Home-Page" transform="translate(-1330.000000, -2042.000000)">
            <g id="Service6" transform="translate(1309.000000, 2029.000000)">
                <rect id="Rectangle" x="0" y="0" width="140" height="140"></rect>
                <g id="Group-8" transform="translate(21.000000, 13.000000)" fill="#8997B9" fill-rule="nonzero">
                    <polygon id="Path" points="13.2075472 89.0459499 16.7828285 94.2749681 16.7828285 115 20.754717 115 20.754717 93.1135944 16.3852519 86.7213115"></polygon>
                    <path d="M43.3962264,50.9016393 C46.603221,50.9016393 49.0566038,48.4511878 49.0566038,45.2459016 L45.2830189,45.2459016 C45.2830189,46.3772332 44.5275651,47.1311475 43.3962264,47.1311475 L39.6226415,47.1311475 C38.4903818,47.1311475 37.7358491,46.3772332 37.7358491,45.2459016 L33.9622642,45.2459016 C33.9622642,48.4511878 36.4147259,50.9016393 39.6226415,50.9016393 L43.3962264,50.9016393 Z" id="Path"></path>
                    <path d="M61.0414739,64.3357677 L52.1563342,64.3357677 L52.1563342,57.5235605 C57.5647621,55.4419245 61.2348341,50.5228694 61.8149146,44.846184 L63.7466307,44.2779613 C66.0641243,43.5212546 67.8024802,41.250211 67.8024802,38.980091 L67.8024802,34.0601123 C67.8024802,30.8429545 65.2916264,28.3834269 62.0073319,28.3834269 L62.0073319,17.0300562 C62.0073319,7.56891384 54.2804676,0 44.6218872,0 L36.8950228,0 C27.2364424,0 19.5095781,7.56891384 19.5095781,17.0300562 L19.5095781,28.3834269 C16.2262265,28.3834269 13.7144299,30.8429545 13.7144299,34.0601123 L13.7144299,37.6551616 C13.7144299,39.5473901 14.6802879,41.250211 16.2262265,42.3857328 L19.5095781,44.4673688 C19.8962985,50.3334618 23.5663705,55.2534405 29.1681585,57.5235605 L29.1681585,64.3357677 L20.2830189,64.3357677 C9.07849984,64.3357677 -3.55271368e-14,73.2296109 -3.55271368e-14,84.0147589 L-3.55271368e-14,113.533708 L3.86343217,113.533708 L3.86343217,84.0147589 C3.86343217,75.3103233 11.2035761,68.1202246 20.0896587,68.1202246 L29.9415993,68.1202246 L35.7367475,75.1218394 C35.156667,75.878546 34.7708895,76.6352527 34.7708895,77.5813669 L34.7708895,83.6368674 L31.0998746,106.532093 C30.9074573,107.857022 31.486595,109.370436 32.6458132,110.128066 L38.2476013,114.290414 C39.6001797,115.236529 41.5318958,115.236529 42.8835313,114.290414 L48.4853193,110.128066 C49.6445376,109.370436 50.2246181,107.857022 50.031258,106.532093 L46.361186,83.6368674 L46.361186,77.5813669 C46.361186,76.6352527 45.9744656,75.878546 45.3953279,75.1218394 L51.1904762,68.1202246 L61.0414739,68.1202246 C69.9275564,68.1202246 77.2686433,75.3103233 77.2686433,84.0147589 L77.2686433,113.533708 L81.1320755,113.533708 L81.1320755,84.0147589 C81.1320755,73.2296109 72.0526327,64.3357677 61.0414739,64.3357677 Z M57.9514825,28.3834269 L53.7013299,28.3834269 C52.7354719,25.3556767 49.4511774,23.8422633 46.361186,24.9777851 C44.6218872,25.5450842 43.4636119,26.8700136 42.8835313,28.3834269 L38.2476013,28.3834269 C37.2817432,25.3556767 33.9974487,23.8422633 30.9074573,24.9777851 C29.1681585,25.5450842 28.0098832,26.8700136 27.4298026,28.3834269 L23.180593,28.3834269 L23.180593,22.8961491 L23.5663705,22.8961491 C28.2023005,22.8961491 32.6458132,20.8145131 35.5433873,17.4088713 C42.6901711,19.4895837 50.2246181,20.8145131 57.9514825,20.8145131 L57.9514825,28.3834269 Z M50.2246181,30.2756554 C50.2246181,31.4111772 49.4511774,32.1678838 48.2929021,32.1678838 C47.1336838,32.1678838 46.361186,31.4111772 46.361186,30.2756554 C46.361186,29.1401336 47.1336838,28.3834269 48.2929021,28.3834269 C49.4511774,28.3834269 50.2246181,29.1401336 50.2246181,30.2756554 Z M34.7708895,30.2756554 C34.7708895,31.4111772 33.9974487,32.1678838 32.8391734,32.1678838 C31.6799552,32.1678838 30.9074573,31.4111772 30.9074573,30.2756554 C30.9074573,29.1401336 31.6799552,28.3834269 32.8391734,28.3834269 C33.9974487,28.3834269 34.7708895,29.1401336 34.7708895,30.2756554 Z M36.7026056,3.78445692 L44.4294699,3.78445692 C51.962974,3.78445692 57.9514825,9.65054988 57.9514825,17.0300562 C50.2246181,17.0300562 42.6901711,15.7051268 35.5433873,13.4350068 L34.1908089,12.8667841 L33.2249509,14.0023059 C30.9074573,17.2194637 27.2364424,19.1116922 23.180593,19.1116922 L23.180593,17.0300562 C23.180593,9.65054988 29.1681585,3.78445692 36.7026056,3.78445692 Z M23.180593,43.5212546 L23.180593,42.5751404 L18.1579426,39.3579825 C17.577862,38.980091 17.3854447,38.4118683 17.3854447,37.8445692 L17.3854447,34.0601123 C17.3854447,32.9245905 18.1579426,32.1678838 19.3171608,32.1678838 L27.4298026,32.1678838 C28.3956607,35.1956341 31.6799552,36.7090474 34.7708895,35.5735256 C36.5092454,35.0062265 37.6684636,33.6812972 38.2476013,32.1678838 L42.8835313,32.1678838 C43.8493893,35.1956341 47.1336838,36.7090474 50.2246181,35.5735256 C51.962974,35.0062265 53.1221923,33.6812972 53.7013299,32.1678838 L61.8149146,32.1678838 C62.97319,32.1678838 63.7466307,32.9245905 63.7466307,34.0601123 L63.7466307,38.980091 C63.7466307,39.7367977 63.1665502,40.4935043 62.3940523,40.6829119 L57.9514825,42.1963252 L57.9514825,43.5212546 C57.9514825,49.7652391 52.7354719,54.8746254 46.361186,54.8746254 L34.7708895,54.8746254 C28.3956607,54.8746254 23.180593,49.7652391 23.180593,43.5212546 Z M32.8391734,58.4696747 C33.4183111,58.4696747 34.1908089,58.6590823 34.7708895,58.6590823 L46.361186,58.6590823 C46.9403236,58.6590823 47.7128215,58.6590823 48.2929021,58.4696747 L48.2929021,64.3357677 L32.8391734,64.3357677 L32.8391734,58.4696747 Z M42.4977538,77.5813669 L42.4977538,81.3658238 L38.6343217,81.3658238 L38.6343217,77.5813669 L42.4977538,77.5813669 Z M40.5660377,111.07418 L34.9633068,106.910908 L38.4409615,85.1502808 L42.6901711,85.1502808 L46.1678258,107.100316 L40.5660377,111.07418 Z M41.5318958,73.79691 L39.6001797,73.79691 L34.9633068,68.1202246 L46.1678258,68.1202246 L41.5318958,73.79691 Z" id="Shape"></path>
                    <polygon id="Path" points="60.3773585 93.1135944 60.3773585 115 64.3497572 115 64.3497572 94.2749681 67.9245283 89.0459499 64.7464154 86.7213115"></polygon>
                    <path d="M92.4528302,9.42622951 L66.0377358,9.42622951 L66.0377358,13.1967213 L92.4528302,13.1967213 C93.5841689,13.1967213 94.3396226,13.9506356 94.3396226,15.0819672 L94.3396226,33.9344262 C94.3396226,35.0657578 93.5841689,35.8196721 92.4528302,35.8196721 L77.9241599,35.8196721 L72.2637825,52.7868852 L69.8113208,52.7868852 L69.8113208,49.0163934 L66.0377358,49.0163934 L66.0377358,56.557377 L74.9051078,56.557377 L80.5654851,39.5901639 L92.4528302,39.5901639 C95.6598248,39.5901639 98.1132075,37.1397124 98.1132075,33.9344262 L98.1132075,15.0819672 C98.1132075,11.8766811 95.6598248,9.42622951 92.4528302,9.42622951 L92.4528302,9.42622951 Z" id="Path"></path>
                    <polygon id="Path" points="66.0377358 22.6229508 71.6981132 22.6229508 71.6981132 26.3934426 66.0377358 26.3934426"></polygon>
                    <polygon id="Path" points="75.4716981 22.6229508 81.1320755 22.6229508 81.1320755 26.3934426 75.4716981 26.3934426"></polygon>
                    <polygon id="Path" points="84.9056604 22.6229508 90.5660377 22.6229508 90.5660377 26.3934426 84.9056604 26.3934426"></polygon>
                </g>
            </g>
        </g>
    </g>
</svg>