<?xml version="1.0" encoding="UTF-8"?>
<svg width="105px" height="105px" viewBox="0 0 105 105" version="1.1" xmlns="http://www.w3.org/2000/svg" xmlns:xlink="http://www.w3.org/1999/xlink">
    <!-- Generator: sketchtool 61.2 (101010) - https://sketch.com -->
    <title>5FD071D5-AB3F-4354-B030-3C3D2731BC33</title>
    <desc>Created with sketchtool.</desc>
    <g id="Style-Guide" stroke="none" stroke-width="1" fill="none" fill-rule="evenodd">
        <g id="Style-Guide-" transform="translate(-73.000000, -2890.000000)">
            <g id="bajaj-seeklogo.com" transform="translate(60.000000, 2877.000000)">
                <g id="background">
                    <rect id="canvas_background" x="0" y="0" width="130" height="130"></rect>
                </g>
                <g id="Layer-1" transform="translate(13.448276, 13.448276)" fill="#0A53A0" fill-rule="nonzero">
                    <path d="M11.8811525,15.7790601 L42.2971925,29.0098909 C42.2971925,29.0098909 46.4547833,27.1637284 50.5029548,25.4201307 C50.5029548,25.4201307 51.2688312,25.0098723 51.2688312,24.1893564 C51.2688312,24.1893564 51.2688312,23.2662748 50.2841358,22.8560164 C50.2841358,22.8560164 36.6078587,16.9072706 22.9315916,11.0610915 L47.439469,0.496940896 L49.5182693,0.0866824491 L51.4876503,0.496940896 L88.2494812,16.3944482 C88.2494812,16.3944482 91.9694242,18.0354809 91.9694242,20.189337 C91.9694242,20.189337 91.9694242,22.343194 88.2494812,23.8816618 L59.4745937,36.2919748 L88.2494812,48.7022877 C88.2494812,48.7022877 91.9694242,50.2407566 91.9694242,52.5997414 C91.9694242,52.5997414 91.9694242,54.6510326 88.2494812,56.3946302 L51.4876503,72.0870097 C51.4876503,72.0870097 50.7217837,72.7023968 49.5182693,72.7023968 L47.439469,72.0870097 L22.9315916,61.625424 L50.2841358,49.9330629 L51.2688312,48.5997228 C51.2688312,48.5997228 51.2688312,47.9843357 50.5029548,47.2663837 L42.2971925,43.7791884 L11.8811525,57.0100183 L11.8811525,42.0355908 L25.1197915,36.2919746 L11.8811525,30.7534882 L11.8811525,15.7790598" id="path5888"></path>
                    <g id="svg_1" transform="translate(0.000000, 85.052174)">
                        <path d="M62.5389996,0.0945667207 L62.5389996,13.1371547 C62.5389996,13.1371547 62.5389996,18.45853 57.3850433,18.5107005 L48.9989511,18.5107005 C48.9989511,18.5107005 47.8633336,18.45853 47.3828794,17.4151232 L45.8978434,14.5979241 L55.3758758,14.5979241 C55.3758758,14.5979241 57.4724017,14.5457541 57.4724017,12.6154509 L57.4724017,0.0945667207 L62.5389996,0.0945667207" id="path5874"></path>
                        <path d="M36.681875,0.0945667207 L46.2035847,18.5107007 L40.2634331,18.5107007 L38.6473652,15.171798 L29.9118507,15.171798 L31.3095321,12.3545992 C31.3095321,12.3545992 31.8336636,11.2590219 32.9256,11.2590219 L36.7692296,11.2590219 L33.4060542,4.47687675 L26.6360299,18.5107007 L20.6958822,18.5107007 L30.2175919,0.0945667207 L36.681875,0.0945667207" id="path5876"></path>
                        <path d="M78.0445383,0.0945667207 L87.4788934,18.5107007 L81.6261003,18.5107007 L79.9663512,15.171798 L71.1871596,15.171798 L72.6285183,12.3545992 C72.6285183,12.3545992 73.1963271,11.2590219 74.2882673,11.2590219 L78.1318931,11.2590219 L74.7687215,4.47687675 L67.9113427,18.5107007 L61.9711911,18.5107007 L71.4929007,0.0945667207 L78.0445385,0.0945667207" id="path5878"></path>
                        <path d="M103.814309,0.0945667207 L103.814309,13.1371547 C103.814309,13.1371547 103.770631,18.45853 98.7477106,18.5107005 L90.27426,18.5107005 C90.27426,18.5107005 89.0949652,18.45853 88.6145109,17.4151232 L87.1731523,14.5979241 L96.6948619,14.5979241 C96.6948619,14.5979241 98.8350652,14.5457541 98.8350652,12.6154509 L98.8350652,0.0945667207 L103.814309,0.0945667207" id="path5880"></path>
                        <path d="M0.0362656799,0.0939344444 L0.0362656799,18.5102823 L5.10266376,18.5102823 L5.10266376,10.6848383 L5.10266376,3.8509195 L13.8384642,3.8509195 C15.6292452,3.8509195 15.6296996,5.41571576 15.6297036,5.41571576 C15.6297036,6.87648555 13.8384682,6.87667981 13.8384642,6.87667981 L8.20396355,6.87667981 C7.1557045,6.87667981 6.58780952,7.86820494 6.58780952,7.86820494 L5.10266389,10.6848383 L13.7515367,10.6848383 C15.6296723,10.6848383 15.6296997,12.6152408 15.6297036,12.6152413 C15.6297036,14.5455445 13.7515327,14.5982912 13.7515367,14.5982916 L8.20396355,14.5982916 C7.1557045,14.5461216 6.58780952,15.6410016 6.58780952,15.6410016 L5.10266389,18.5102823 L13.8384643,18.5102823 C21.2636519,18.4581118 21.2642043,13.5029341 21.2642043,13.5029341 C21.2642043,10.268372 17.7698833,9.12004193 17.7698833,9.12004193 C21.2642043,8.0766351 21.2642043,4.84244502 21.2642043,4.8424445 C21.2642043,0.0427716347 13.8384682,0.0939344444 13.8384643,0.0939344444 L0.0362656799,0.0939344444 L0.0362656799,0.0939344444 Z" id="path5884"></path>
                    </g>
                </g>
            </g>
        </g>
    </g>
</svg>