<?xml version="1.0" encoding="UTF-8"?>
<svg width="230px" height="88px" viewBox="0 0 230 88" version="1.1" xmlns="http://www.w3.org/2000/svg" xmlns:xlink="http://www.w3.org/1999/xlink">
    <!-- Generator: Sketch 63.1 (92452) - https://sketch.com -->
    <title>bank-of-maharashtra-seeklogo.com</title>
    <desc>Created with Sketch.</desc>
    <g id="Size-1920" stroke="none" stroke-width="1" fill="none" fill-rule="evenodd">
        <g id="Home-Page" transform="translate(-1315.000000, -4365.000000)">
            <g id="bank-of-maharashtra-seeklogo.com" transform="translate(1315.000000, 4365.000000)">
                <path d="M224.414795,84.2896622 L224.414795,80.4870541 C223.437534,81.0624324 222.709315,81.6757297 222.234247,82.3318919 C221.915342,82.7712568 221.759178,83.2122703 221.759178,83.6549324 C221.759178,84.0283514 221.890685,84.3572568 222.159452,84.6432973 C222.361644,84.8617432 222.643562,84.9705541 223.006849,84.9705541 C223.412877,84.9705541 223.880548,84.7405676 224.414795,84.2896622 L224.414795,84.2896622 Z M224.414795,85.1766351 C223.031507,86.4015811 221.791233,87.0115811 220.692329,87.0115811 C220.047123,87.0115811 219.507945,86.7997297 219.083014,86.3710811 C218.651507,85.9498514 218.441096,85.4148649 218.441096,84.7743649 C218.441096,83.9088243 218.809315,83.1281892 219.553973,82.4349324 C220.29863,81.7433243 221.915342,80.8209054 224.414795,79.6726216 L224.414795,78.5276351 C224.414795,77.6686892 224.368767,77.1304054 224.272603,76.9061892 C224.182192,76.6827973 224.004658,76.4866081 223.748219,76.3217432 C223.487671,76.1560541 223.198356,76.0727973 222.876164,76.0727973 C222.349315,76.0727973 221.915342,76.1915 221.576712,76.4247838 C221.369589,76.5706892 221.26274,76.7413243 221.26274,76.9350405 C221.26274,77.1056757 221.377808,77.3167027 221.60137,77.5697703 C221.907945,77.9176351 222.06411,78.2539595 222.06411,78.5770946 C222.06411,78.9760676 221.915342,79.3115676 221.62274,79.5943108 C221.325205,79.8712838 220.940548,80.0122432 220.463836,80.0122432 C219.955068,80.0122432 219.529315,79.8556216 219.185753,79.5481486 C218.843014,79.2406757 218.669589,78.8796216 218.669589,78.4691081 C218.669589,77.8838378 218.899726,77.3298919 219.359178,76.7982027 C219.823562,76.2665135 220.463836,75.8609459 221.287397,75.5749054 C222.110137,75.2921622 222.966575,75.152027 223.85589,75.152027 C224.930137,75.152027 225.779178,75.3795405 226.407123,75.8362162 C227.032603,76.2970135 227.436986,76.7891351 227.62274,77.3241216 C227.739452,77.6653919 227.792877,78.4493243 227.792877,79.6726216 L227.792877,84.0811081 C227.792877,84.6004324 227.814247,84.9293378 227.855342,85.0612297 C227.895616,85.1939459 227.953973,85.2936892 228.037808,85.3596351 L228.313973,85.4552568 C228.525205,85.4552568 228.739726,85.3060541 228.959178,85.0076486 L229.319178,85.2978108 C228.918904,85.9003919 228.500548,86.3339865 228.065753,86.6043649 C227.635068,86.8739189 227.144384,87.0115811 226.592877,87.0115811 C225.947671,87.0115811 225.444658,86.8566081 225.078904,86.5540811 C224.715616,86.2523784 224.492055,85.7915811 224.414795,85.1766351 Z M211.848493,75.4916486 L211.848493,78.0676622 C212.602192,76.8938243 213.259726,76.1131892 213.821918,75.7274054 C214.389041,75.3416216 214.934795,75.152027 215.459178,75.152027 C215.909589,75.152027 216.274521,75.2888649 216.54411,75.5691351 C216.815342,75.8485811 216.948493,76.2434324 216.948493,76.7520405 C216.948493,77.2960946 216.821096,77.718973 216.554795,78.0173784 C216.29589,78.3157838 215.976986,78.4691081 215.604658,78.4691081 C215.17726,78.4691081 214.807397,78.328973 214.491781,78.054473 C214.172877,77.7775 213.987945,77.625 213.932877,77.5945 L213.653425,77.5194865 C213.420822,77.5194865 213.19726,77.6068649 212.986849,77.7865676 C212.655616,78.0635405 212.407397,78.4567432 212.238904,78.9686486 C211.976712,79.7525811 211.848493,80.6181216 211.848493,81.5693919 L211.848493,84.1775541 L211.860822,84.8617432 C211.860822,85.3225405 211.889589,85.6176486 211.944658,85.7454189 C212.04411,85.9655135 212.183836,86.1279054 212.373699,86.2268243 C212.565205,86.3306892 212.887397,86.3925135 213.337808,86.4172432 L213.337808,86.8533108 L207.220274,86.8533108 L207.220274,86.4172432 C207.713425,86.3768514 208.043014,86.2400135 208.218904,86.0067297 C208.390685,85.7792162 208.476986,85.1692162 208.476986,84.1775541 L208.476986,77.8962027 C208.476986,77.2491081 208.449041,76.8352973 208.383288,76.6572432 C208.300274,76.4280811 208.185205,76.2632162 208.030685,76.1593514 C207.877808,76.0513649 207.604932,75.980473 207.220274,75.9392568 L207.220274,75.4916486 L211.848493,75.4916486 Z M203.377808,71.3345811 L203.377808,75.4916486 L206.066301,75.4916486 L206.066301,76.6951622 L203.377808,76.6951622 L203.377808,83.7043919 C203.377808,84.3605541 203.407397,84.7834324 203.469863,84.9738514 C203.531507,85.1659189 203.638356,85.3184189 203.792055,85.4395946 C203.944932,85.555 204.084658,85.613527 204.214521,85.613527 C204.738904,85.613527 205.235342,85.2104324 205.707123,84.4100135 L206.066301,84.6803919 C205.412877,86.2358919 204.350959,87.0115811 202.88137,87.0115811 C202.16137,87.0115811 201.553973,86.8120946 201.057534,86.4081757 C200.561096,86.0067297 200.243836,85.5591216 200.107397,85.064527 C200.027671,84.7925 199.986575,84.0440135 199.986575,82.8297838 L199.986575,76.6951622 L198.506301,76.6951622 L198.506301,76.2665135 C199.523836,75.5444054 200.392603,74.790973 201.106849,73.9946757 C201.82274,73.2016757 202.443288,72.3147027 202.976712,71.3345811 L203.377808,71.3345811 Z M189.709315,70.3734189 L189.709315,76.9474054 C190.333151,76.2928919 190.89863,75.8271486 191.416438,75.5592432 C191.934247,75.2830946 192.470959,75.152027 193.029041,75.152027 C193.741644,75.152027 194.349863,75.3548108 194.853699,75.7579054 C195.358356,76.163473 195.693699,76.6399324 195.858082,77.1839865 C196.023288,77.7313378 196.106301,78.6521081 196.106301,79.9520676 L196.106301,84.3852838 C196.106301,85.2532973 196.190137,85.7948784 196.351233,86.0067297 C196.512329,86.223527 196.83863,86.3587162 197.331781,86.4172432 L197.331781,86.8533108 L191.586575,86.8533108 L191.586575,86.4172432 C191.992603,86.3587162 192.293425,86.1971486 192.495616,85.9284189 C192.641096,85.7206892 192.71589,85.2071351 192.71589,84.3852838 L192.71589,79.3206351 C192.71589,78.3784324 192.678082,77.7898649 192.60411,77.5499865 C192.533425,77.3134054 192.409315,77.1271081 192.235068,76.9935676 C192.061644,76.8567297 191.868493,76.7891351 191.648219,76.7891351 C191.326027,76.7891351 191.012055,76.9028919 190.705479,77.1271081 C190.395616,77.3455541 190.063562,77.7404054 189.709315,78.2951757 L189.709315,84.3852838 C189.709315,85.1980676 189.769315,85.7042027 189.890137,85.9036892 C190.044658,86.1806622 190.361918,86.3512973 190.83863,86.4172432 L190.83863,86.8533108 L185.091781,86.8533108 L185.091781,86.4172432 C185.568493,86.3677838 185.907123,86.2144595 186.109315,85.9531486 C186.245753,85.7759189 186.316438,85.2532973 186.316438,84.3852838 L186.316438,72.8406216 C186.316438,71.9816757 186.238356,71.4466892 186.080548,71.2356622 C185.925205,71.0287568 185.593151,70.886973 185.091781,70.8243243 L185.091781,70.3734189 L189.709315,70.3734189 Z M182.585753,75.1767568 L182.768219,79.0502568 L182.354795,79.0502568 C181.862466,77.901973 181.349589,77.1122703 180.820274,76.6951622 C180.290137,76.2714595 179.764932,76.0604324 179.240548,76.0604324 C178.909315,76.0604324 178.627397,76.1725405 178.391507,76.3959324 C178.155616,76.6201486 178.040548,76.8765135 178.040548,77.1675 C178.040548,77.3884189 178.123562,77.5994459 178.285479,77.7989324 C178.540274,78.1294865 179.265205,78.7015676 180.451233,79.5069324 C181.638904,80.3122973 182.420548,80.9973108 182.797808,81.5603243 C183.174247,82.1241622 183.36,82.7555946 183.36,83.4521486 C183.36,84.0811081 183.202192,84.7001757 182.888219,85.3101757 C182.573425,85.9160541 182.126301,86.3850946 181.55589,86.7090541 C180.98137,87.0321892 180.348493,87.1921081 179.653973,87.1921081 C179.111507,87.1921081 178.388219,87.0239459 177.482466,86.6843243 C177.243288,86.592 177.076438,86.5507838 176.986027,86.5507838 C176.722192,86.5507838 176.49863,86.7535676 176.319452,87.1566622 L175.919178,87.1566622 L175.723562,83.0754324 L176.13863,83.0754324 C176.501918,84.1454054 177.001644,84.9458243 177.634521,85.4808108 C178.267397,86.0157973 178.868219,86.2804054 179.433699,86.2804054 C179.82411,86.2804054 180.13726,86.1592297 180.385479,85.923473 C180.630411,85.6827703 180.754521,85.3934324 180.754521,85.0538108 C180.754521,84.6663784 180.633699,84.3300541 180.389589,84.0440135 C180.149589,83.7629189 179.607123,83.330973 178.768767,82.7588919 C177.531781,81.8999459 176.734521,81.2404865 176.368767,80.7887568 C175.835342,80.126 175.568219,79.391527 175.568219,78.5902838 C175.568219,77.7156757 175.869041,76.9226757 176.473973,76.2129324 C177.073151,75.5040135 177.945205,75.152027 179.08274,75.152027 C179.694247,75.152027 180.290137,75.3012297 180.866301,75.5996351 C181.080822,75.7208108 181.257534,75.7809865 181.393973,75.7809865 C181.54274,75.7809865 181.660274,75.7529595 181.747397,75.6903108 C181.837808,75.6284865 181.977534,75.4595 182.172329,75.1767568 L182.585753,75.1767568 Z M169.268219,84.2896622 L169.268219,80.4870541 C168.291781,81.0624324 167.56274,81.6757297 167.087671,82.3318919 C166.770411,82.7712568 166.612603,83.2122703 166.612603,83.6549324 C166.612603,84.0283514 166.745753,84.3572568 167.013699,84.6432973 C167.217534,84.8617432 167.496986,84.9705541 167.86274,84.9705541 C168.266301,84.9705541 168.734795,84.7405676 169.268219,84.2896622 Z M169.268219,85.1766351 C167.885753,86.4015811 166.646301,87.0115811 165.545753,87.0115811 C164.900548,87.0115811 164.36137,86.7997297 163.936438,86.3710811 C163.505753,85.9498514 163.296164,85.4148649 163.296164,84.7743649 C163.296164,83.9088243 163.663562,83.1281892 164.407397,82.4349324 C165.152055,81.7433243 166.770411,80.8209054 169.268219,79.6726216 L169.268219,78.5276351 C169.268219,77.6686892 169.222192,77.1304054 169.127671,76.9061892 C169.035616,76.6827973 168.858904,76.4866081 168.601644,76.3217432 C168.341096,76.1560541 168.051781,76.0727973 167.729589,76.0727973 C167.20274,76.0727973 166.770411,76.1915 166.430137,76.4247838 C166.223014,76.5706892 166.116164,76.7413243 166.116164,76.9350405 C166.116164,77.1056757 166.232055,77.3167027 166.454795,77.5697703 C166.76137,77.9176351 166.917534,78.2539595 166.917534,78.5770946 C166.917534,78.9760676 166.770411,79.3115676 166.476164,79.5943108 C166.17863,79.8712838 165.793973,80.0122432 165.318904,80.0122432 C164.808493,80.0122432 164.38274,79.8556216 164.039178,79.5481486 C163.69726,79.2406757 163.523014,78.8796216 163.523014,78.4691081 C163.523014,77.8838378 163.753973,77.3298919 164.214247,76.7982027 C164.676986,76.2665135 165.318904,75.8609459 166.141644,75.5749054 C166.963562,75.2921622 167.82,75.152027 168.710137,75.152027 C169.786027,75.152027 170.632603,75.3795405 171.260548,75.8362162 C171.886027,76.2970135 172.292055,76.7891351 172.476164,77.3241216 C172.593699,77.6653919 172.646301,78.4493243 172.646301,79.6726216 L172.646301,84.0811081 C172.646301,84.6004324 172.667671,84.9293378 172.708767,85.0612297 C172.751507,85.1939459 172.808219,85.2936892 172.891233,85.3596351 L173.167397,85.4552568 C173.37863,85.4552568 173.594795,85.3060541 173.812603,85.0076486 L174.172603,85.2978108 C173.772329,85.9003919 173.353973,86.3339865 172.92,86.6043649 C172.490959,86.8739189 171.997808,87.0115811 171.448767,87.0115811 C170.803562,87.0115811 170.298082,86.8566081 169.934795,86.5540811 C169.569863,86.2523784 169.346301,85.7915811 169.268219,85.1766351 Z M156.70274,75.4916486 L156.70274,78.0676622 C157.455616,76.8938243 158.113151,76.1131892 158.675342,75.7274054 C159.242466,75.3416216 159.788219,75.152027 160.313425,75.152027 C160.765479,75.152027 161.128767,75.2888649 161.397534,75.5691351 C161.671233,75.8485811 161.801918,76.2434324 161.801918,76.7520405 C161.801918,77.2960946 161.674521,77.718973 161.410685,78.0173784 C161.150137,78.3157838 160.830411,78.4691081 160.458082,78.4691081 C160.033151,78.4691081 159.660822,78.328973 159.345205,78.054473 C159.027945,77.7775 158.842192,77.625 158.787123,77.5945 L158.506849,77.5194865 C158.275068,77.5194865 158.051507,77.6068649 157.840274,77.7865676 C157.509041,78.0635405 157.260822,78.4567432 157.092329,78.9686486 C156.831781,79.7525811 156.70274,80.6181216 156.70274,81.5693919 L156.70274,84.1775541 L156.715068,84.8617432 C156.715068,85.3225405 156.744658,85.6176486 156.798082,85.7454189 C156.897534,85.9655135 157.03726,86.1279054 157.228767,86.2268243 C157.41863,86.3306892 157.740822,86.3925135 158.191233,86.4172432 L158.191233,86.8533108 L152.074521,86.8533108 L152.074521,86.4172432 C152.566849,86.3768514 152.898082,86.2400135 153.072329,86.0067297 C153.245753,85.7792162 153.332877,85.1692162 153.332877,84.1775541 L153.332877,77.8962027 C153.332877,77.2491081 153.302466,76.8352973 153.236712,76.6572432 C153.153699,76.4280811 153.03863,76.2632162 152.885753,76.1593514 C152.732055,76.0513649 152.459178,75.980473 152.074521,75.9392568 L152.074521,75.4916486 L156.70274,75.4916486 Z M145.845205,84.2896622 L145.845205,80.4870541 C144.868767,81.0624324 144.142192,81.6757297 143.667123,82.3318919 C143.348219,82.7712568 143.190411,83.2122703 143.190411,83.6549324 C143.190411,84.0283514 143.32274,84.3572568 143.592329,84.6432973 C143.794521,84.8617432 144.076438,84.9705541 144.439726,84.9705541 C144.845753,84.9705541 145.311781,84.7405676 145.845205,84.2896622 Z M145.845205,85.1766351 C144.464384,86.4015811 143.22411,87.0115811 142.12274,87.0115811 C141.477534,87.0115811 140.940822,86.7997297 140.513425,86.3710811 C140.084384,85.9498514 139.873973,85.4148649 139.873973,84.7743649 C139.873973,83.9088243 140.240548,83.1281892 140.986849,82.4349324 C141.729863,81.7433243 143.348219,80.8209054 145.845205,79.6726216 L145.845205,78.5276351 C145.845205,77.6686892 145.799178,77.1304054 145.705479,76.9061892 C145.615068,76.6827973 145.43589,76.4866081 145.181096,76.3217432 C144.920548,76.1560541 144.629589,76.0727973 144.306575,76.0727973 C143.782192,76.0727973 143.348219,76.1915 143.009589,76.4247838 C142.801644,76.5706892 142.693973,76.7413243 142.693973,76.9350405 C142.693973,77.1056757 142.810685,77.3167027 143.032603,77.5697703 C143.339178,77.9176351 143.496986,78.2539595 143.496986,78.5770946 C143.496986,78.9760676 143.348219,79.3115676 143.053973,79.5943108 C142.755616,79.8712838 142.370959,80.0122432 141.89589,80.0122432 C141.387123,80.0122432 140.960548,79.8556216 140.617808,79.5481486 C140.274247,79.2406757 140.100822,78.8796216 140.100822,78.4691081 C140.100822,77.8838378 140.332603,77.3298919 140.792055,76.7982027 C141.254795,76.2665135 141.89589,75.8609459 142.71863,75.5749054 C143.543014,75.2921622 144.39863,75.152027 145.287123,75.152027 C146.363014,75.152027 147.210411,75.3795405 147.839178,75.8362162 C148.463836,76.2970135 148.869041,76.7891351 149.055616,77.3241216 C149.170685,77.6653919 149.225753,78.4493243 149.225753,79.6726216 L149.225753,84.0811081 C149.225753,84.6004324 149.245479,84.9293378 149.285753,85.0612297 C149.328493,85.1939459 149.386849,85.2936892 149.468219,85.3596351 L149.745205,85.4552568 C149.958082,85.4552568 150.172603,85.3060541 150.390411,85.0076486 L150.750411,85.2978108 C150.349315,85.9003919 149.932603,86.3339865 149.496986,86.6043649 C149.067945,86.8739189 148.574795,87.0115811 148.025753,87.0115811 C147.380548,87.0115811 146.875068,86.8566081 146.511781,86.5540811 C146.148493,86.2523784 145.923288,85.7915811 145.845205,85.1766351 Z M130.41863,70.3734189 L130.41863,76.9474054 C131.042466,76.2928919 131.609589,75.8271486 132.125753,75.5592432 C132.643562,75.2830946 133.180274,75.152027 133.739178,75.152027 C134.450959,75.152027 135.059178,75.3548108 135.563014,75.7579054 C136.067671,76.163473 136.403014,76.6399324 136.567397,77.1839865 C136.734247,77.7313378 136.815616,78.6521081 136.815616,79.9520676 L136.815616,84.3852838 C136.815616,85.2532973 136.899452,85.7948784 137.060548,86.0067297 C137.221644,86.223527 137.547945,86.3587162 138.041096,86.4172432 L138.041096,86.8533108 L132.29589,86.8533108 L132.29589,86.4172432 C132.701918,86.3587162 133.003562,86.1971486 133.204932,85.9284189 C133.350411,85.7206892 133.425205,85.2071351 133.425205,84.3852838 L133.425205,79.3206351 C133.425205,78.3784324 133.388219,77.7898649 133.313425,77.5499865 C133.24274,77.3134054 133.11863,77.1271081 132.944384,76.9935676 C132.770959,76.8567297 132.577808,76.7891351 132.358356,76.7891351 C132.035342,76.7891351 131.72137,76.9028919 131.414795,77.1271081 C131.104932,77.3455541 130.772877,77.7404054 130.41863,78.2951757 L130.41863,84.3852838 C130.41863,85.1980676 130.481096,85.7042027 130.599452,85.9036892 C130.753973,86.1806622 131.071233,86.3512973 131.547945,86.4172432 L131.547945,86.8533108 L125.80274,86.8533108 L125.80274,86.4172432 C126.277808,86.3677838 126.616438,86.2144595 126.820274,85.9531486 C126.956712,85.7759189 127.025753,85.2532973 127.025753,84.3852838 L127.025753,72.8406216 C127.025753,71.9816757 126.947671,71.4466892 126.790685,71.2356622 C126.634521,71.0287568 126.302466,70.886973 125.80274,70.8243243 L125.80274,70.3734189 L130.41863,70.3734189 Z M119.63589,84.2896622 L119.63589,80.4870541 C118.659452,81.0624324 117.931233,81.6757297 117.456164,82.3318919 C117.13726,82.7712568 116.979452,83.2122703 116.979452,83.6549324 C116.979452,84.0283514 117.111781,84.3572568 117.38137,84.6432973 C117.583562,84.8617432 117.865479,84.9705541 118.228767,84.9705541 C118.634795,84.9705541 119.102466,84.7405676 119.63589,84.2896622 Z M119.63589,85.1766351 C118.253425,86.4015811 117.013151,87.0115811 115.911781,87.0115811 C115.266575,87.0115811 114.729863,86.7997297 114.30411,86.3710811 C113.873425,85.9498514 113.663014,85.4148649 113.663014,84.7743649 C113.663014,83.9088243 114.031233,83.1281892 114.77589,82.4349324 C115.520548,81.7433243 117.13726,80.8209054 119.63589,79.6726216 L119.63589,78.5276351 C119.63589,77.6686892 119.589863,77.1304054 119.494521,76.9061892 C119.40411,76.6827973 119.226575,76.4866081 118.970137,76.3217432 C118.708767,76.1560541 118.420274,76.0727973 118.09726,76.0727973 C117.571233,76.0727973 117.13726,76.1915 116.79863,76.4247838 C116.590685,76.5706892 116.483014,76.7413243 116.483014,76.9350405 C116.483014,77.1056757 116.599726,77.3167027 116.823288,77.5697703 C117.129863,77.9176351 117.286027,78.2539595 117.286027,78.5770946 C117.286027,78.9760676 117.13726,79.3115676 116.844658,79.5943108 C116.546301,79.8712838 116.16,80.0122432 115.684932,80.0122432 C115.176164,80.0122432 114.751233,79.8556216 114.406849,79.5481486 C114.064932,79.2406757 113.889863,78.8796216 113.889863,78.4691081 C113.889863,77.8838378 114.121644,77.3298919 114.581096,76.7982027 C115.045479,76.2665135 115.684932,75.8609459 116.509315,75.5749054 C117.332055,75.2921622 118.187671,75.152027 119.077808,75.152027 C120.152055,75.152027 120.999452,75.3795405 121.628219,75.8362162 C122.252877,76.2970135 122.658082,76.7891351 122.844658,77.3241216 C122.96137,77.6653919 123.014795,78.4493243 123.014795,79.6726216 L123.014795,84.0811081 C123.014795,84.6004324 123.036164,84.9293378 123.076438,85.0612297 C123.117534,85.1939459 123.17589,85.2936892 123.259726,85.3596351 L123.53589,85.4552568 C123.747123,85.4552568 123.961644,85.3060541 124.181096,85.0076486 L124.541096,85.2978108 C124.14,85.9003919 123.721644,86.3339865 123.287671,86.6043649 C122.856986,86.8739189 122.366301,87.0115811 121.814795,87.0115811 C121.169589,87.0115811 120.66411,86.8566081 120.300822,86.5540811 C119.937534,86.2523784 119.713973,85.7915811 119.63589,85.1766351 Z M100.949589,81.2371892 L105.410959,70.3734189 L112.098904,70.3734189 L112.098904,70.8243243 L111.565479,70.8243243 C111.082192,70.8243243 110.693425,70.9084054 110.403288,71.0790405 C110.201096,71.1944459 110.039178,71.3848649 109.91589,71.6511216 C109.828767,71.8448378 109.78274,72.3517973 109.78274,73.1678784 L109.78274,84.0332973 C109.78274,84.8741081 109.828767,85.4025 109.91589,85.613527 C110.007945,85.8253784 110.188767,86.0067297 110.461644,86.165 C110.739452,86.3265676 111.10274,86.4048784 111.565479,86.4048784 L112.098904,86.4048784 L112.098904,86.8533108 L103.518082,86.8533108 L103.518082,86.4048784 L104.049863,86.4048784 C104.538904,86.4048784 104.923562,86.3175 105.217808,86.1493378 C105.416712,86.0355811 105.581918,85.8410405 105.701918,85.5624189 C105.789041,85.372 105.833425,84.8617432 105.833425,84.0332973 L105.833425,71.8201081 L99.5350685,86.8533108 L99.2408219,86.8533108 L92.8421918,71.9289189 L92.8421918,83.5354054 C92.8421918,84.3448919 92.8635616,84.8460811 92.9038356,85.0323784 C93.0065753,85.4346486 93.2391781,85.7668514 93.590137,86.0190946 C93.9427397,86.2771081 94.4926027,86.4048784 95.2454795,86.4048784 L95.2454795,86.8533108 L89.6210959,86.8533108 L89.6210959,86.4048784 L89.789589,86.4048784 C90.1545205,86.4139459 90.4931507,86.3512973 90.8071233,86.2268243 C91.1227397,86.1023514 91.3619178,85.9317162 91.5230137,85.7239865 C91.6849315,85.5121351 91.8090411,85.2153784 91.8994521,84.8370135 C91.9150685,84.7463378 91.9241096,84.3358243 91.9241096,83.5964054 L91.9241096,73.1678784 C91.9241096,72.3361351 91.8780822,71.8168108 91.7909589,71.6090811 C91.7005479,71.4021757 91.5180822,71.2191757 91.2468493,71.0609054 C90.9682192,70.9042838 90.6016438,70.8243243 90.1421918,70.8243243 L89.6210959,70.8243243 L89.6210959,70.3734189 L96.3336986,70.3734189 L100.949589,81.2371892 Z M80.4591781,76.6827973 L80.4591781,84.5666351 C80.4591781,85.3307838 80.5421918,85.8072432 80.7032877,86.0034324 C80.9589041,86.3018378 81.4389041,86.4386757 82.1342466,86.4172432 L82.1342466,86.8533108 L75.4553425,86.8533108 L75.4553425,86.4172432 C75.9632877,86.4081757 76.3273973,86.348 76.5435616,86.2400135 C76.7523288,86.1312027 76.9035616,85.9778784 76.9849315,85.7825135 C77.0630137,85.5871486 77.1049315,85.1857027 77.1049315,84.5666351 L77.1049315,76.6827973 L75.4553425,76.6827973 L75.4553425,75.4916486 L77.1049315,75.4916486 L77.1049315,74.6541351 L77.0926027,74.0812297 C77.0926027,72.9156351 77.5183562,71.9412838 78.3706849,71.1639459 C79.2238356,70.3857838 80.3753425,70 81.8276712,70 C82.8254795,70 83.5610959,70.183 84.0410959,70.5547703 C84.520274,70.9281892 84.7610959,71.3436486 84.7610959,71.7953784 C84.7610959,72.1613784 84.6123288,72.4762703 84.3139726,72.7466486 C84.0164384,73.0112568 83.6194521,73.1447973 83.1263014,73.1447973 C82.7046575,73.1447973 82.3734247,73.0359865 82.1252055,72.8158919 C81.8819178,72.594973 81.7586301,72.3550946 81.7586301,72.0871892 C81.7586301,72.015473 81.7832877,71.8662703 81.8276712,71.6387568 C81.8613699,71.5002703 81.8769863,71.3725 81.8769863,71.248027 C81.8769863,71.0790405 81.8276712,70.9545676 81.7331507,70.8713108 C81.6041096,70.7501351 81.4479452,70.6916081 81.2621918,70.6916081 C81.0263014,70.6916081 80.8315068,70.7872297 80.6736986,70.9825946 C80.5175342,71.1763108 80.4345205,71.4895541 80.4345205,71.9165541 L80.4591781,74.0441351 L80.4591781,75.4916486 L82.1342466,75.4916486 L82.1342466,76.6827973 L80.4591781,76.6827973 Z M68.4764384,76.0142703 C68.0630137,76.0142703 67.7120548,76.1684189 67.4178082,76.4833108 C67.120274,76.7940811 66.9254795,77.4073784 66.8350685,78.328973 C66.7389041,79.2497432 66.6953425,80.5274459 66.6953425,82.1612568 C66.6953425,83.0292703 66.7520548,83.8379324 66.8630137,84.5938378 C66.9534247,85.1692162 67.1449315,85.6052838 67.4342466,85.9036892 C67.7252055,86.2062162 68.0547945,86.3554189 68.4271233,86.3554189 C68.7920548,86.3554189 69.0928767,86.2523784 69.3378082,86.0528919 C69.6517808,85.7759189 69.8621918,85.3884865 69.9649315,84.8955405 C70.1268493,84.1272703 70.209863,82.5717703 70.209863,80.2290405 C70.209863,78.8515946 70.1317808,77.9052703 69.9780822,77.3917162 C69.8252055,76.8765135 69.5967123,76.5030946 69.3008219,76.2665135 C69.089589,76.097527 68.8167123,76.0142703 68.4764384,76.0142703 Z M68.4271233,75.152027 C69.4126027,75.152027 70.3306849,75.4042703 71.1780822,75.914527 C72.0246575,76.4247838 72.6706849,77.1518378 73.109589,78.0923919 C73.5509589,79.0288243 73.7712329,80.0584054 73.7712329,81.1786622 C73.7712329,82.7926892 73.3652055,84.1404595 72.5465753,85.2227973 C71.5627397,86.5384189 70.2008219,87.1921081 68.4641096,87.1921081 C66.760274,87.1921081 65.4452055,86.592 64.5271233,85.3934324 C63.6057534,84.1948649 63.1463014,82.8050541 63.1463014,81.2281216 C63.1463014,79.5976081 63.6180822,78.1789459 64.5550685,76.9688378 C65.4986301,75.7579054 66.7890411,75.152027 68.4271233,75.152027 Z M47.680274,70.3734189 L47.680274,81.2157568 L50.3112329,78.6273784 C50.8536986,78.1014595 51.1923288,77.718973 51.3246575,77.4823919 C51.4578082,77.2491081 51.5235616,77.0215946 51.5235616,76.8015 C51.5235616,76.5830541 51.4364384,76.4000541 51.259726,76.2557973 C51.0805479,76.1098919 50.7328767,76.0068514 50.2150685,75.9392568 L50.2150685,75.4916486 L55.290411,75.4916486 L55.290411,75.9392568 C54.8063014,75.9639865 54.3863014,76.0793919 54.0213699,76.2879459 C53.6580822,76.4923784 52.9454795,77.1122703 51.8868493,78.1509189 L50.6515068,79.3667973 L53.3194521,83.2815135 C54.3936986,84.8675135 55.0315068,85.7577838 55.2336986,85.9531486 C55.5065753,86.2309459 55.8542466,86.3850946 56.2758904,86.4172432 L56.2758904,86.8533108 L50.4230137,86.8533108 L50.4230137,86.4172432 C50.6794521,86.4172432 50.8660274,86.3677838 50.9843836,86.2680405 L51.1586301,85.9531486 C51.1586301,85.7668514 50.990137,85.4214595 50.6515068,84.9202703 L48.4093151,81.6262703 L47.680274,82.3442568 L47.680274,84.3852838 C47.680274,85.2532973 47.7641096,85.7948784 47.9252055,86.0067297 C48.0863014,86.223527 48.4183562,86.3587162 48.9180822,86.4172432 L48.9180822,86.8533108 L43.0652055,86.8533108 L43.0652055,86.4172432 C43.5419178,86.3677838 43.8805479,86.2144595 44.0819178,85.9531486 C44.2241096,85.7759189 44.289863,85.2532973 44.289863,84.3852838 L44.289863,72.8406216 C44.289863,71.9816757 44.210137,71.4466892 44.0539726,71.2356622 C43.8961644,71.0287568 43.5649315,70.886973 43.0652055,70.8243243 L43.0652055,70.3734189 L47.680274,70.3734189 Z M33.9041096,75.4916486 L33.9041096,76.9597703 C34.4876712,76.3299865 35.0457534,75.8700135 35.5791781,75.583973 C36.1126027,75.2921622 36.6838356,75.152027 37.2986301,75.152027 C38.0309589,75.152027 38.6441096,75.3548108 39.1282192,75.7653243 C39.6115068,76.1725405 39.9345205,76.6827973 40.0956164,77.287027 C40.2271233,77.7527703 40.2887671,78.6397432 40.2887671,79.9520676 L40.2887671,84.3729189 C40.2887671,85.247527 40.3684932,85.7948784 40.5246575,86.0067297 C40.6824658,86.223527 41.0136986,86.3587162 41.5142466,86.4172432 L41.5142466,86.8533108 L35.7813699,86.8533108 L35.7813699,86.4172432 C36.2120548,86.3587162 36.5169863,86.1806622 36.7027397,85.8822568 C36.8326027,85.679473 36.8983562,85.1766351 36.8983562,84.3729189 L36.8983562,79.3206351 C36.8983562,78.3875 36.8605479,77.7989324 36.789863,77.5574054 C36.7158904,77.3134054 36.5917808,77.1271081 36.4175342,76.9935676 C36.2441096,76.8567297 36.0542466,76.7891351 35.8430137,76.7891351 C35.1484932,76.7891351 34.5032877,77.287027 33.9041096,78.2877568 L33.9041096,84.3729189 C33.9041096,85.2227973 33.9821918,85.7610811 34.14,85.9910676 C34.3010959,86.2185811 34.590411,86.3587162 35.0210959,86.4172432 L35.0210959,86.8533108 L29.2882192,86.8533108 L29.2882192,86.4172432 C29.7632877,86.3677838 30.1019178,86.2144595 30.3057534,85.9531486 C30.4421918,85.7759189 30.5112329,85.247527 30.5112329,84.3729189 L30.5112329,77.9555541 C30.5112329,77.0966081 30.4331507,76.5665676 30.2761644,76.3538919 C30.12,76.1420405 29.7879452,76.0068514 29.2882192,75.9392568 L29.2882192,75.4916486 L33.9041096,75.4916486 Z M23.1213699,84.2896622 L23.1213699,80.4870541 C22.1449315,81.0624324 21.4167123,81.6757297 20.9416438,82.3318919 C20.6227397,82.7712568 20.4649315,83.2122703 20.4649315,83.6549324 C20.4649315,84.0283514 20.5972603,84.3572568 20.8668493,84.6432973 C21.0690411,84.8617432 21.3509589,84.9705541 21.7142466,84.9705541 C22.120274,84.9705541 22.5879452,84.7405676 23.1213699,84.2896622 Z M23.1213699,85.1766351 C21.7389041,86.4015811 20.4986301,87.0115811 19.3972603,87.0115811 C18.7520548,87.0115811 18.2153425,86.7997297 17.789589,86.3710811 C17.3589041,85.9498514 17.1484932,85.4148649 17.1484932,84.7743649 C17.1484932,83.9088243 17.5167123,83.1281892 18.2613699,82.4349324 C19.0060274,81.7433243 20.6227397,80.8209054 23.1213699,79.6726216 L23.1213699,78.5276351 C23.1213699,77.6686892 23.0753425,77.1304054 22.98,76.9061892 C22.889589,76.6827973 22.7120548,76.4866081 22.4547945,76.3217432 C22.1942466,76.1560541 21.9057534,76.0727973 21.5827397,76.0727973 C21.0567123,76.0727973 20.6227397,76.1915 20.2841096,76.4247838 C20.0761644,76.5706892 19.9684932,76.7413243 19.9684932,76.9350405 C19.9684932,77.1056757 20.0852055,77.3167027 20.3087671,77.5697703 C20.6153425,77.9176351 20.7715068,78.2539595 20.7715068,78.5770946 C20.7715068,78.9760676 20.6227397,79.3115676 20.330137,79.5943108 C20.0317808,79.8712838 19.6454795,80.0122432 19.170411,80.0122432 C18.6616438,80.0122432 18.2367123,79.8556216 17.8923288,79.5481486 C17.550411,79.2406757 17.3753425,78.8796216 17.3753425,78.4691081 C17.3753425,77.8838378 17.6071233,77.3298919 18.0665753,76.7982027 C18.5309589,76.2665135 19.170411,75.8609459 19.9947945,75.5749054 C20.8175342,75.2921622 21.6731507,75.152027 22.5632877,75.152027 C23.6375342,75.152027 24.4849315,75.3795405 25.1136986,75.8362162 C25.7383562,76.2970135 26.1435616,76.7891351 26.330137,77.3241216 C26.4468493,77.6653919 26.500274,78.4493243 26.500274,79.6726216 L26.500274,84.0811081 C26.500274,84.6004324 26.5216438,84.9293378 26.5619178,85.0612297 C26.6030137,85.1939459 26.6613699,85.2936892 26.7452055,85.3596351 L27.0213699,85.4552568 C27.2326027,85.4552568 27.4471233,85.3060541 27.6665753,85.0076486 L28.0265753,85.2978108 C27.6254795,85.9003919 27.2071233,86.3339865 26.7731507,86.6043649 C26.3424658,86.8739189 25.8517808,87.0115811 25.300274,87.0115811 C24.6550685,87.0115811 24.149589,86.8566081 23.7863014,86.5540811 C23.4230137,86.2523784 23.1994521,85.7915811 23.1213699,85.1766351 Z M6.11013699,78.7353649 L6.11013699,84.0209324 L6.09780822,84.6309324 C6.09780822,85.064527 6.20465753,85.3967297 6.42739726,85.6209459 C6.6509589,85.8410405 6.97890411,85.9531486 7.4169863,85.9531486 C8.06219178,85.9531486 8.65726027,85.8113649 9.20383562,85.5212027 C9.74958904,85.2351622 10.1679452,84.8155811 10.4564384,84.2698784 C10.7506849,83.7258243 10.8945205,83.1158243 10.8945205,82.444 C10.8945205,81.6724324 10.7169863,80.9791757 10.3610959,80.3691757 C10.0068493,79.76 9.5169863,79.333 8.89315068,79.0873514 C8.27260274,78.8441757 7.34219178,78.7271216 6.11013699,78.7353649 Z M6.11013699,77.7865676 C7.25506849,77.7865676 8.09917808,77.6563243 8.64493151,77.3991351 C9.19068493,77.139473 9.6090411,76.7726486 9.90164384,76.3036081 C10.1926027,75.8362162 10.3364384,75.2352838 10.3364384,74.5049324 C10.3364384,73.7778784 10.1926027,73.1818919 9.90739726,72.7128514 C9.62136986,72.2471081 9.21205479,71.8951216 8.67863014,71.6511216 C8.14520548,71.4062973 7.28876712,71.2884189 6.11013699,71.2974865 L6.11013699,77.7865676 Z M10.5189041,78.1171216 C12.0789041,78.4781757 13.1736986,78.9224865 13.8032877,79.4393378 C14.7090411,80.1795811 15.1594521,81.1341486 15.1594521,82.3071622 C15.1594521,83.5461216 14.6630137,84.5724054 13.670137,85.3810676 C12.4512329,86.3636622 10.6767123,86.8533108 8.35068493,86.8533108 L0,86.8533108 L0,86.4048784 C0.762739726,86.4048784 1.27479452,86.3339865 1.54767123,86.1897297 C1.81726027,86.0479459 2.00712329,85.8665946 2.11315068,85.6366081 C2.22657534,85.4090946 2.28,84.8526757 2.28,83.9624054 L2.28,73.2692703 C2.28,72.376527 2.22657534,71.8168108 2.11315068,71.583527 C2.00712329,71.3527162 1.81150685,71.1697162 1.53863014,71.0328784 C1.26575342,70.8902703 0.75369863,70.8243243 0,70.8243243 L0,70.3734189 L7.87561644,70.3734189 C9.75863014,70.3734189 11.0934247,70.5440541 11.8750685,70.8779054 C12.6616438,71.2142297 13.2772603,71.7170676 13.7284932,72.3855946 C14.1830137,73.052473 14.4057534,73.7671622 14.4057534,74.5172973 C14.4057534,75.3135946 14.1205479,76.0175676 13.5460274,76.6399324 C12.9756164,77.2581757 11.9671233,77.7527703 10.5189041,78.1171216 L10.5189041,78.1171216 Z" id="Fill-1" fill="#2E7CB3"></path>
                <g id="Group-23" transform="translate(84.000000, 0.000000)">
                    <path d="M60.7208219,30.4488919 C60.7208219,47.2651081 47.1271233,60.8986081 30.3608219,60.8986081 C13.5920548,60.8986081 -8.81072992e-13,47.2651081 -8.81072992e-13,30.4488919 C-8.81072992e-13,13.6318514 13.5920548,4.26325641e-14 30.3608219,4.26325641e-14 C47.1271233,4.26325641e-14 60.7208219,13.6318514 60.7208219,30.4488919 Z" id="Fill-2" fill="#FFFFFE"></path>
                    <path d="M4.82712329,40.7776757 L4.18191781,41.3126622 L4.50410959,41.7429595 L4.82712329,41.9597568 L4.82712329,40.7776757 L4.82712329,40.7776757 Z M4.82712329,39.162 L4.07506849,38.7317027 L3.75287671,39.2683378 L4.82712329,40.0225946 L4.82712329,39.162 Z M4.82712329,35.1796892 L4.50410959,35.1796892 C4.39808219,34.6430541 4.18191781,34.1039459 3.86054795,33.5656622 L3.43150685,33.7808108 C4.07506849,35.0733514 3.53835616,35.9331216 2.89643836,35.2885 C2.14520548,34.6430541 2.68027397,33.3521622 2.89643836,32.4915676 L2.57424658,32.3835811 C2.03671233,33.5656622 1.71452055,34.6430541 2.57424658,35.9331216 C3.21945205,36.902527 3.86054795,36.5785676 4.50410959,36.0402838 L4.82712329,35.9331216 L4.82712329,35.1796892 Z M4.82712329,30.0152973 C4.28958904,30.1241081 3.75287671,30.7687297 3.75287671,31.6293243 C3.75287671,32.3835811 4.07506849,32.9218649 4.82712329,33.2433514 L4.82712329,32.2764189 C4.6109589,32.2764189 4.39808219,32.0596216 4.39808219,31.7381351 C4.28958904,31.4141757 4.39808219,30.9838784 4.71863014,30.9838784 L4.82712329,30.9838784 L4.82712329,30.0152973 Z M4.82712329,26.4649324 L4.39808219,27.112027 L4.82712329,27.112027 L4.82712329,26.4649324 Z M4.82712329,24.5294189 L4.50410959,25.1765135 L4.82712329,25.1765135 L4.82712329,24.5294189 Z M4.82712329,46.9073514 C1.82219178,42.1749054 2.30926389e-13,36.4722297 2.30926389e-13,30.4455946 C2.30926389e-13,24.4222568 1.82219178,18.7195811 4.82712329,13.9854865 L4.82712329,15.7058514 C2.35972603,20.010473 0.962465753,25.0660541 0.962465753,30.4455946 C0.962465753,35.8251351 2.35972603,40.8823649 4.82712329,45.1869865 L4.82712329,46.9073514 Z M7.40054795,37.3328243 L7.40054795,38.3014054 C7.29452055,38.1925946 7.1860274,38.1925946 6.97315068,38.1925946 C6.00739726,38.1925946 6.11342466,39.4834865 6.64931507,40.0225946 C6.97315068,40.1305811 7.1860274,40.1305811 7.40054795,40.3457297 L7.40054795,41.3126622 L7.29452055,41.421473 L6.32794521,41.2063243 L5.36219178,41.7429595 C5.25616438,41.8517703 5.04164384,41.9597568 4.82712329,41.9597568 L4.82712329,40.7776757 L4.93315068,40.6672162 L5.36219178,40.9911757 L5.79123288,40.5608784 L4.82712329,40.0225946 L4.82712329,39.162 L5.57835616,39.6986351 C5.36219178,38.3014054 5.79123288,37.4408108 6.86383562,37.3328243 C7.08,37.3328243 7.29452055,37.3328243 7.40054795,37.3328243 Z M7.40054795,32.2764189 L7.40054795,33.1370135 L6.54246575,33.1370135 L6.7569863,34.7493919 L7.40054795,34.6430541 L7.40054795,35.6099865 L4.82712329,35.9331216 L4.82712329,35.1796892 L5.79123288,34.9661892 L5.57835616,33.3521622 C5.36219178,33.3521622 5.04164384,33.2433514 4.82712329,33.2433514 L4.82712329,32.2764189 L5.04164384,32.2764189 C5.36219178,32.1684324 5.46821918,31.844473 5.36219178,31.5229865 C5.25616438,31.199027 5.04164384,30.9838784 4.82712329,30.9838784 L4.82712329,30.0152973 C5.57835616,29.9089595 6.32794521,30.4455946 6.54246575,32.2764189 L7.40054795,32.2764189 Z M7.40054795,26.2497838 L7.40054795,27.112027 L4.82712329,27.112027 L4.82712329,26.4649324 L5.04164384,26.2497838 L7.40054795,26.2497838 Z M7.40054795,13.2312297 L7.40054795,25.1765135 L4.82712329,25.1765135 L4.82712329,24.5294189 L5.04164384,24.2054595 L7.40054795,24.2054595 L7.40054795,13.2312297 Z M4.82712329,13.9854865 C5.68438356,12.8009324 6.54246575,11.6188514 7.40054795,10.5414595 L7.40054795,11.9428108 C6.43643836,13.1248919 5.57835616,14.4157838 4.82712329,15.7058514 L4.82712329,13.9854865 Z M7.40054795,50.3513784 C6.54246575,49.2756351 5.68438356,48.0919054 4.82712329,46.9073514 L4.82712329,45.1869865 C5.57835616,46.479527 6.43643836,47.7695946 7.40054795,48.9516757 L7.40054795,50.3513784 Z M7.40054795,25.1765135 L7.40054795,24.2054595 L8.47315068,24.2054595 L8.15178082,25.1765135 L7.40054795,25.1765135 Z M7.40054795,27.112027 L7.40054795,26.2497838 L8.47315068,26.2497838 L8.04410959,27.112027 L7.40054795,27.112027 Z M7.40054795,41.3126622 L7.82958904,40.7776757 C7.72356164,40.5608784 7.61671233,40.4528919 7.40054795,40.3457297 L7.40054795,41.3126622 Z M8.47315068,38.1925946 L8.47315068,40.6672162 L8.36630137,40.7776757 C8.15178082,39.4834865 7.82958904,38.6228919 7.40054795,38.3014054 L7.40054795,37.3328243 C7.82958904,37.4408108 8.25863014,37.7631216 8.47315068,38.1925946 Z M8.47315068,32.8138784 L8.47315068,36.1482703 C8.47315068,35.9331216 8.36630137,35.717973 8.36630137,35.3948378 L7.40054795,35.6099865 L7.40054795,34.6430541 L8.25863014,34.5342432 L8.04410959,33.0306757 L7.40054795,33.1370135 L7.40054795,32.2764189 L7.82958904,32.1684324 C7.82958904,31.6293243 7.82958904,31.0926892 7.82958904,30.4455946 L8.36630137,30.4455946 C8.36630137,31.199027 8.47315068,32.0596216 8.47315068,32.8138784 Z M8.47315068,13.6631757 L8.47315068,15.2755541 C8.15178082,14.6309324 7.72356164,13.8766757 7.40054795,13.2312297 L8.47315068,13.6631757 Z M7.40054795,10.5414595 C7.82958904,10.2183243 8.15178082,9.78802703 8.47315068,9.35772973 L8.47315068,10.6486216 C8.15178082,11.0805676 7.82958904,11.5108649 7.40054795,11.9428108 L7.40054795,10.5414595 Z M8.47315068,51.5334595 C8.15178082,51.1048108 7.82958904,50.7816757 7.40054795,50.3513784 L7.40054795,48.9516757 C7.82958904,49.381973 8.15178082,49.8139189 8.47315068,50.2442162 L8.47315068,51.5334595 Z M12.7660274,43.5721351 L12.7660274,44.3263919 L12.0131507,43.4657973 C11.6917808,44.8646757 10.9405479,45.1869865 9.65342466,44.5415405 C9.65342466,45.6172838 10.7260274,46.1555676 12.0131507,46.3707162 L12.7660274,45.8340811 L12.7660274,46.9073514 L10.8336986,48.5213784 L10.6175342,47.6616081 L11.3712329,46.9073514 C8.68767123,46.1555676 8.68767123,44.7583378 9.33287671,43.1426622 C10.1884932,44.3263919 11.0482192,44.2192297 11.3712329,42.6035541 C10.8336986,41.8517703 10.4046575,40.9911757 9.9739726,40.1305811 L8.47315068,40.6672162 L8.47315068,38.1925946 C8.79534247,38.5165541 8.90383562,39.0548378 9.11671233,39.5922973 L9.65342466,39.3771486 C9.22438356,38.3014054 8.79534247,37.2240135 8.47315068,36.1482703 L8.47315068,32.8138784 C8.68767123,34.7493919 9.11671233,36.5785676 9.86794521,38.3014054 C10.4046575,37.6543108 10.6175342,36.902527 10.1884932,36.1482703 L10.8336986,35.8251351 C11.1567123,36.6873784 11.0482192,37.7631216 10.4046575,39.0548378 L10.7260274,39.6986351 L10.5131507,39.9154324 C11.1567123,41.2063243 11.9063014,42.4972162 12.7660274,43.5721351 Z M12.7660274,21.3005405 C11.3712329,23.9903108 10.5131507,27.112027 10.5131507,30.4455946 C10.5131507,33.7808108 11.3712329,36.902527 12.7660274,39.5922973 L12.7660274,37.547973 C11.9063014,35.2885 11.3712329,32.9218649 11.3712329,30.4455946 C11.3712329,27.9726216 11.9063014,25.6068108 12.7660274,23.3448649 L12.7660274,21.3005405 Z M12.7660274,15.1692162 L12.7660274,16.3512973 L8.79534247,14.9540676 C10.4046575,17.535027 12.2276712,21.3005405 10.8336986,23.238527 L10.4046575,23.3448649 C11.4772603,20.8702432 9.9739726,17.9636757 8.47315068,15.2755541 L8.47315068,13.6631757 L12.7660274,15.1692162 Z M12.7660274,9.78802703 L11.3712329,9.14422973 L12.7660274,13.9854865 L12.7660274,12.1563108 L12.4438356,10.9717568 L12.7660274,11.0805676 L12.7660274,9.78802703 Z M8.47315068,9.35772973 C9.86794521,8.06683784 11.2610959,6.7742973 12.7660274,5.70102703 L12.7660274,6.7742973 C11.2610959,7.9605 9.75945205,9.25139189 8.47315068,10.6486216 L8.47315068,9.35772973 Z M12.7660274,55.1934595 C11.2610959,54.1160676 9.86794521,52.826 8.47315068,51.5334595 L8.47315068,50.2442162 C9.75945205,51.6414459 11.2610959,52.9339865 12.7660274,54.1160676 L12.7660274,55.1934595 Z M12.7660274,16.3512973 L12.7660274,15.1692162 L13.1934247,15.3843649 L12.7660274,13.9854865 L12.7660274,12.1563108 L14.0531507,16.7815946 L12.7660274,16.3512973 Z M14.6967123,45.8340811 C13.9446575,45.1869865 13.2994521,44.4327297 12.7660274,43.5721351 L12.7660274,44.3263919 L13.5139726,45.294973 L12.7660274,45.8340811 L12.7660274,46.9073514 L13.9446575,45.9404189 C14.1608219,46.1555676 14.3753425,46.3707162 14.5882192,46.5858649 L14.6967123,46.479527 L14.6967123,45.8340811 Z M14.6967123,43.7897568 L14.6967123,44.8646757 C14.4821918,44.7583378 14.3753425,44.5415405 14.3753425,44.3263919 C14.3753425,44.0024324 14.4821918,43.8960946 14.6967123,43.7897568 Z M14.6967123,41.0975135 L14.6967123,42.6035541 C13.9446575,41.6366216 13.2994521,40.6672162 12.7660274,39.5922973 L12.7660274,37.547973 C13.2994521,38.8396892 13.9446575,40.0225946 14.6967123,41.0975135 Z M14.6967123,18.2892838 L14.6967123,19.796973 C13.9446575,20.9790541 13.2994521,22.1627838 12.7660274,23.3448649 L12.7660274,21.3005405 C13.2994521,20.2247973 13.9446575,19.2562162 14.6967123,18.2892838 Z M14.6967123,10.7582568 L14.6967123,11.9428108 L12.7660274,11.0805676 L12.7660274,9.78802703 L14.6967123,10.7582568 Z M12.7660274,5.70102703 C13.409589,5.26908108 14.0531507,4.84043243 14.6967123,4.40848649 L14.6967123,5.48587838 C14.0531507,5.91617568 13.409589,6.34647297 12.7660274,6.7742973 L12.7660274,5.70102703 Z M14.6967123,56.4843514 C14.0531507,56.0540541 13.409589,55.6237568 12.7660274,55.1934595 L12.7660274,54.1160676 C13.409589,54.5463649 14.0531507,54.9783108 14.6967123,55.4086081 L14.6967123,56.4843514 Z M14.6967123,46.479527 L14.6967123,45.8340811 L15.0172603,46.1555676 L14.6967123,46.479527 Z M15.0172603,43.6809459 L15.0172603,44.9718378 L14.6967123,44.8646757 L14.6967123,43.7897568 L15.0172603,43.6809459 Z M15.0172603,41.6366216 L15.0172603,43.0355 L14.6967123,42.6035541 L14.6967123,41.0975135 C14.8043836,41.3126622 14.9112329,41.421473 15.0172603,41.6366216 Z M15.0172603,17.8589865 L15.0172603,19.2562162 C14.9112329,19.4730135 14.8043836,19.6865135 14.6967123,19.796973 L14.6967123,18.2892838 L15.0172603,17.8589865 Z M15.0172603,10.8654189 L15.0172603,12.1563108 L14.6967123,11.9428108 L14.6967123,10.7582568 L15.0172603,10.8654189 Z M14.6967123,4.40848649 L15.0172603,4.19498649 L15.0172603,5.26908108 L14.6967123,5.48587838 L14.6967123,4.40848649 Z M15.0172603,56.6995 L14.6967123,56.4843514 L14.6967123,55.4086081 L15.0172603,55.6237568 L15.0172603,56.6995 Z M15.0172603,44.9718378 C15.4463014,44.9718378 15.7668493,44.6478784 15.7668493,44.3263919 C15.7668493,43.8960946 15.4463014,43.6809459 15.0172603,43.6809459 L15.0172603,44.9718378 Z M20.0605479,53.7945811 L20.0605479,54.6551757 C19.8460274,54.6551757 19.6315068,54.6551757 19.310137,54.5463649 L19.310137,53.5794324 C19.5230137,53.6882432 19.8460274,53.7945811 20.0605479,53.7945811 Z M20.0605479,51.5334595 L19.7375342,51.5334595 C19.0939726,50.4577162 18.2358904,49.8139189 17.2684932,49.8139189 C16.3060274,49.8139189 15.5564384,50.6745135 16.6265753,52.826 L17.3761644,52.5020405 C16.7350685,51.8582432 16.4120548,51.1048108 16.9479452,50.6745135 C17.3761644,50.1362297 18.019726,50.5681757 18.6649315,51.5334595 L18.5572603,51.7502568 L18.6649315,52.3940541 C19.2041096,52.2885405 19.7375342,52.2885405 20.0605479,52.2885405 L20.0605479,51.5334595 Z M20.0605479,49.9210811 L20.0605479,50.5681757 C19.9520548,50.5681757 19.7375342,50.4577162 19.5230137,50.3513784 L19.8460274,49.8139189 L20.0605479,49.9210811 Z M20.0605479,46.479527 L20.0605479,47.4448108 C18.129863,46.2619054 16.4120548,44.8646757 15.0172603,43.0355 L15.0172603,41.6366216 C16.4120548,43.5721351 18.129863,45.1869865 20.0605479,46.479527 Z M20.0605479,37.3328243 L19.310137,33.8887973 L17.6991781,33.8887973 L17.6991781,39.162 L18.7734247,39.162 L18.7734247,34.7493919 L19.7375342,39.162 L20.0605479,39.162 L20.0605479,37.3328243 Z M20.0605479,25.2812027 L17.3761644,25.2812027 L17.6991781,26.3585946 L18.2358904,26.3585946 L18.2358904,27.757473 C17.3761644,28.0789595 17.2684932,28.4029189 17.8076712,29.2635135 C18.019726,29.6938108 18.4512329,30.0152973 18.9879452,30.0152973 C19.310137,29.6938108 19.2041096,29.3715 19.2041096,28.8332162 L20.0605479,28.8332162 L20.0605479,27.757473 L19.2041096,27.757473 L19.2041096,26.3585946 L20.0605479,26.3585946 L20.0605479,25.2812027 Z M20.0605479,20.5471081 L20.0605479,21.4093514 L16.5189041,21.4093514 L16.5189041,40.3457297 L20.0605479,40.3457297 L20.0605479,41.0975135 L15.7668493,41.0975135 L15.7668493,20.5471081 L20.0605479,20.5471081 Z M20.0605479,13.4463784 C18.129863,14.6309324 16.4120548,16.1361486 15.0172603,17.8589865 L15.0172603,19.2562162 C16.4120548,17.4286892 18.129863,15.7058514 20.0605479,14.5237703 L20.0605479,13.4463784 Z M20.0605479,10.5414595 L20.0605479,12.6945946 C19.5230137,13.4463784 18.5572603,13.7703378 17.5906849,13.3400405 L15.0172603,12.1563108 L15.0172603,10.8654189 L17.9136986,12.2626486 C19.5230137,13.1248919 20.2750685,12.4794459 20.0605479,10.5414595 Z M15.0172603,4.19498649 C16.6265753,3.33274324 18.3427397,2.47214865 20.0605479,1.82752703 L20.0605479,2.79610811 C18.3427397,3.44155405 16.6265753,4.30214865 15.0172603,5.26908108 L15.0172603,4.19498649 Z M20.0605479,59.0653108 C18.3427397,58.4206892 16.6265753,57.6680811 15.0172603,56.6995 L15.0172603,55.6237568 C16.6265753,56.5931622 18.3427397,57.4529324 20.0605479,58.0983784 L20.0605479,59.0653108 Z M20.0605479,12.6945946 C20.489589,12.1563108 20.5956164,11.4020541 20.489589,10.5414595 L20.0605479,10.5414595 L20.0605479,12.6945946 Z M20.0605479,28.8332162 L20.0605479,27.757473 L21.1323288,27.757473 L21.1323288,26.3585946 L20.0605479,26.3585946 L20.0605479,25.2812027 L22.5254795,25.2812027 L22.850137,26.3585946 L22.0989041,26.3585946 L22.0989041,31.844473 L21.1323288,31.0926892 L21.1323288,28.8332162 L20.0605479,28.8332162 Z M20.0605479,39.162 L20.0605479,37.3328243 L20.2750685,38.0846081 L21.2408219,33.8887973 L22.74,33.8887973 L22.74,39.162 L21.7758904,39.162 L21.7758904,34.7493919 L20.810137,39.162 L20.0605479,39.162 Z M30.3591781,52.5020405 C28.4268493,52.5020405 26.4986301,52.1805541 24.6723288,51.7502568 L24.5646575,50.996 L23.8142466,50.996 C23.1706849,49.7059324 22.3134247,49.0604865 21.3468493,48.8453378 L21.3468493,49.5971216 C22.2049315,49.5971216 22.6356164,50.2442162 22.9569863,51.2111486 C21.990411,50.8896622 21.0246575,50.4577162 20.0605479,49.9210811 L20.0605479,50.5681757 C20.3827397,50.7816757 20.5956164,50.8896622 20.810137,50.996 L20.5956164,51.6414459 L20.0605479,51.5334595 L20.0605479,52.2885405 C21.1323288,52.2885405 21.6682192,52.7188378 21.5630137,53.2562973 C21.4553425,53.7945811 20.810137,53.9033919 20.0605479,53.7945811 L20.0605479,54.6551757 C21.1323288,54.5463649 21.8843836,54.1160676 22.0989041,53.3642838 C22.3134247,52.6108514 21.990411,52.0733919 21.4553425,51.8582432 L21.5630137,51.3199595 C22.2049315,51.5334595 22.850137,51.8582432 23.4920548,51.9654054 L22.5254795,55.1934595 L22.850137,56.1603919 L24.2432877,52.2885405 C26.1756164,52.826 28.1038356,53.0411486 30.1446575,53.0411486 L30.2506849,54.8703243 C28.2139726,55.6237568 27.0336986,55.6237568 26.9252055,54.9783108 C26.8175342,54.4383784 27.6772603,54.1160676 28.8575342,54.5463649 C28.9635616,54.3328649 29.1764384,54.1160676 29.3926027,54.0097297 C28.4268493,53.4714459 27.5687671,53.4714459 26.8175342,53.9033919 C25.530411,54.4383784 25.8526027,55.3006216 26.7106849,55.8372568 C27.7849315,56.3755405 29.070411,56.1603919 30.2506849,55.7309189 L30.2506849,56.6995 L30.3591781,56.9146486 L30.3591781,52.5020405 Z M30.3591781,49.4924324 L30.3591781,50.3513784 C26.6046575,50.3513784 23.0630137,49.2756351 20.0605479,47.4448108 L20.0605479,46.479527 C23.0630137,48.3087027 26.6046575,49.4924324 30.3591781,49.4924324 Z M30.3591781,13.2312297 C30.2506849,13.1248919 30.1446575,12.9097432 30.1446575,12.5857838 C30.0378082,12.3714595 29.7156164,12.2626486 29.6071233,12.4794459 C28.9635616,13.0160811 28.2139726,12.4794459 28.4268493,14.2006351 L28.7490411,15.0604054 C27.8917808,15.7058514 28.32,16.3512973 28.5328767,17.2118919 C28.5328767,17.4286892 28.5328767,17.6438378 28.5328767,17.8589865 L28.32,18.1829459 C27.9978082,18.0741351 27.6772603,17.8589865 27.5687671,17.4286892 C27.2465753,17.4286892 27.0336986,17.4286892 26.7106849,17.4286892 C26.7106849,17.6438378 26.7106849,17.8589865 26.8175342,17.9636757 L27.139726,17.9636757 C27.2465753,18.6107703 27.6772603,19.2562162 28.2139726,19.2562162 L28.2139726,20.2247973 L27.7849315,20.2247973 C27.5687671,19.9033108 27.4627397,19.3633784 27.139726,19.3633784 L26.7106849,19.3633784 C26.2816438,19.3633784 26.7106849,20.1184595 27.139726,20.3319595 C27.2465753,20.8702432 27.6772603,21.0853919 28.2139726,21.3005405 L28.2139726,22.1627838 C27.8917808,22.2699459 27.3542466,22.2699459 27.139726,21.3005405 L26.390137,21.3005405 L26.390137,22.0547973 L26.9252055,22.1627838 C27.0336986,22.8082297 27.4627397,23.238527 27.9978082,23.5616622 L27.9978082,24.3142703 L27.5687671,24.4222568 C27.3542466,24.2054595 27.2465753,23.883973 27.2465753,23.6688243 L26.2816438,23.6688243 L26.2816438,24.3142703 L26.7106849,24.3142703 C26.8175342,25.0660541 27.2465753,25.498 27.8917808,25.8194865 L27.8917808,26.8968784 C27.6772603,26.8968784 27.4627397,26.8968784 27.3542466,26.8968784 C27.0336986,26.6800811 26.9252055,26.4649324 26.9252055,26.2497838 L25.9610959,26.2497838 L25.9610959,26.8968784 L26.390137,27.0040405 C26.7106849,27.4343378 27.139726,27.9726216 27.5687671,28.0789595 L27.6772603,29.2635135 C27.6772603,29.2635135 26.7106849,29.3715 26.7106849,28.9395541 L26.7106849,28.4029189 L25.8526027,28.4029189 C25.8526027,28.6180676 25.8526027,28.8332162 25.8526027,29.0483649 L26.1756164,29.1563514 C26.4986301,29.8001486 26.9252055,30.3392568 27.4627397,30.7687297 L27.3542466,31.844473 L26.8175342,31.844473 L26.7106849,31.0926892 L25.6380822,31.0926892 L25.6380822,31.5229865 C25.7449315,31.7381351 25.9610959,31.844473 26.1756164,31.844473 L26.2816438,32.1684324 C26.6046575,32.8138784 26.9252055,33.1370135 27.3542466,33.1370135 L27.3542466,34.7493919 C26.9252055,34.7493919 26.390137,34.4279054 26.2816438,33.6736486 L25.530411,33.6736486 L25.530411,34.3207432 L25.9610959,34.5342432 C26.1756164,35.5036486 26.6046575,35.9331216 27.139726,36.2570811 L27.139726,38.5165541 L26.6046575,39.2683378 L25.7449315,39.2683378 L25.7449315,40.3457297 L24.4578082,40.3457297 L24.4578082,20.5471081 L20.0605479,20.5471081 L20.0605479,21.4093514 L23.7082192,21.4093514 L23.7082192,40.3457297 L20.0605479,40.3457297 L20.0605479,41.0975135 L30.3591781,41.0975135 L30.3591781,13.2312297 Z M30.3591781,10.5414595 L30.3591781,11.4020541 C26.6046575,11.4020541 23.0630137,12.5857838 20.0605479,14.5237703 L20.0605479,13.4463784 C23.0630137,11.6188514 26.6046575,10.5414595 30.3591781,10.5414595 Z M30.3591781,6.23766216 L29.6071233,7.42221622 L27.2465753,1.82752703 C26.0671233,5.16439189 25.209863,9.68168919 21.990411,10.8654189 L22.3134247,11.0805676 C24.6723288,10.7582568 26.2816438,6.88310811 27.0336986,3.97983784 L29.1764384,9.03624324 L30.3591781,7.09990541 L30.3591781,6.23766216 Z M20.0605479,1.82752703 C23.2775342,0.644621622 26.8175342,-2.13162821e-14 30.3591781,-2.13162821e-14 L30.3591781,0.965283784 C26.8175342,0.965283784 23.2775342,1.61237838 20.0605479,2.79610811 L20.0605479,1.82752703 Z M30.3591781,60.8953108 C26.8175342,60.8953108 23.2775342,60.2498649 20.0605479,59.0653108 L20.0605479,58.0983784 C23.2775342,59.2804595 26.8175342,60.0363649 30.3591781,60.0363649 L30.3591781,60.8953108 Z M30.3591781,7.09990541 L32.3975342,3.97983784 L34.1128767,9.35772973 C34.650411,10.9717568 36.6887671,11.5108649 38.0819178,9.57287838 L37.7613699,9.25139189 C36.580274,10.7582568 35.6161644,10.6486216 35.0794521,8.92908108 L32.9326027,1.93551351 L30.3591781,6.23766216 L30.3591781,7.09990541 Z M38.8331507,52.5020405 C36.9032877,53.3642838 37.1178082,54.9783108 38.2964384,55.5157703 C38.4049315,55.5157703 38.6186301,55.6237568 38.8331507,55.6237568 L38.8331507,55.085473 L38.4049315,54.9783108 C37.7613699,54.5463649 37.8690411,53.7945811 38.8331507,53.3642838 L38.8331507,52.5020405 Z M38.8331507,50.7816757 L38.8331507,51.7502568 L38.7254795,51.5334595 C36.2580822,52.5020405 33.6838356,53.0411486 30.8942466,53.0411486 L30.8942466,54.4383784 C31.7523288,54.0097297 32.6120548,53.5794324 33.3632877,53.6882432 C34.8649315,53.6882432 35.1854795,54.6551757 34.7564384,55.7309189 C34.3273973,56.6995 32.9326027,56.5931622 32.0745205,56.4843514 C32.1830137,56.2692027 32.2906849,55.9460676 32.3975342,55.6237568 C33.3632877,55.8372568 34.5419178,55.4086081 34.3273973,54.7615135 C34.0052055,54.0097297 32.7180822,54.4383784 31.9684932,54.9783108 C31.6454795,55.1934595 31.3232877,55.3006216 30.8942466,55.5157703 L30.8942466,57.3449459 L30.3591781,56.9146486 L30.3591781,52.5020405 C33.3632877,52.5020405 36.1512329,51.8582432 38.8331507,50.7816757 Z M38.8331507,47.4448108 L38.8331507,48.5213784 C36.2580822,49.7059324 33.3632877,50.3513784 30.3591781,50.3513784 L30.3591781,49.4924324 C33.3632877,49.4924324 36.2580822,48.736527 38.8331507,47.4448108 Z M38.6186301,39.162 L38.8315068,39.162 L38.8315068,33.8887973 L38.6186301,33.8887973 L38.6186301,39.162 Z M38.8331507,27.3271757 L38.8331507,29.4786622 C38.5126027,29.1563514 38.2964384,28.8332162 38.2964384,28.4029189 C38.190411,27.9726216 38.4049315,27.5423243 38.8331507,27.3271757 Z M38.8331507,25.1765135 L38.8331507,26.3585946 L38.2964384,26.3585946 L37.8690411,25.1765135 L38.8331507,25.1765135 Z M38.8331507,23.5616622 L38.8331507,24.3142703 L38.2964384,24.3142703 L37.7613699,23.4536757 C38.0819178,23.4536757 38.2964384,23.4536757 38.6186301,23.4536757 L38.8331507,23.5616622 Z M38.8331507,22.1627838 L38.8331507,22.9145676 L38.190411,22.9145676 L37.7613699,22.1627838 L38.8331507,22.1627838 Z M38.8331507,20.5471081 L36.2580822,20.5471081 L36.2580822,40.3457297 L34.9726027,40.3457297 L34.9726027,39.162 L34.0052055,39.162 L33.5778082,38.5165541 L33.5778082,36.2570811 C33.9008219,35.8251351 34.1128767,36.0402838 34.5419178,35.1796892 L34.7564384,34.5342432 C34.9726027,34.4279054 35.0794521,33.9976081 35.0794521,33.5656622 L34.2213699,33.5656622 C34.2213699,34.4279054 33.470137,34.7493919 33.0410959,34.7493919 L33.0410959,33.1370135 C33.3632877,33.0306757 33.5778082,33.0306757 34.0052055,32.4915676 L34.3273973,31.9549324 C34.5419178,31.844473 34.650411,31.7381351 34.7564384,31.5229865 L34.7564384,31.0926892 L33.6838356,31.0926892 L33.5778082,31.844473 L32.3975342,31.844473 L32.3975342,30.7687297 C32.9326027,30.4455946 33.6838356,30.1241081 33.7923288,29.3715 L34.4358904,29.0483649 L34.4358904,28.4029189 L33.5778082,28.4029189 L33.2531507,28.9395541 C33.0410959,29.3715 32.0745205,29.2635135 32.1830137,29.2635135 L32.1830137,28.0789595 C32.7180822,27.8646351 33.2531507,27.5423243 33.470137,27.112027 L34.0052055,26.8968784 L34.0052055,26.0346351 L33.0410959,26.0346351 C33.0410959,26.3585946 32.8241096,26.6800811 32.5035616,26.8968784 C32.2906849,26.8968784 32.1830137,26.8968784 31.9684932,26.8968784 L31.9684932,25.8194865 C32.5035616,25.498 33.1487671,25.2812027 33.2531507,24.5294189 L33.7923288,24.3142703 L33.7923288,23.6688243 L32.8241096,23.6688243 C32.8241096,23.883973 32.5035616,24.2054595 32.3975342,24.4222568 L31.86,24.4222568 L31.86,23.5616622 C32.3975342,23.238527 32.7180822,22.8082297 32.8241096,22.1627838 L33.470137,22.0547973 L33.470137,21.3005405 L32.5035616,21.3005405 C32.2906849,22.2699459 31.86,22.2699459 31.6454795,22.1627838 L31.6454795,21.3005405 C32.1830137,20.9790541 32.1830137,20.8702432 32.7180822,20.3319595 C33.1487671,20.1184595 33.470137,19.1498784 33.0410959,19.2562162 L32.6120548,19.2562162 C32.2906849,19.2562162 32.2906849,19.796973 32.0745205,20.010473 C31.9684932,20.010473 31.6454795,20.1184595 31.4309589,20.1184595 L31.4309589,19.1498784 C31.9684932,19.0427162 32.6120548,18.6107703 32.7180822,17.9636757 L33.0410959,17.9636757 C33.0410959,17.8589865 33.0410959,17.6438378 33.1487671,17.4286892 C32.8241096,17.4286892 32.5035616,17.4286892 32.2906849,17.4286892 C32.1830137,17.8589865 31.86,18.0741351 31.5394521,18.1829459 C31.110411,17.8589865 31.0019178,17.8589865 30.8942466,17.3207027 C30.8942466,16.5664459 31.6454795,15.921 31.110411,15.0604054 L31.0019178,14.5237703 C31.0019178,13.6631757 30.679726,13.5551892 30.3591781,13.2312297 L30.3591781,41.0975135 L38.8331507,41.0975135 L38.8331507,40.3457297 L36.9032877,40.3457297 L36.9032877,21.4093514 L38.8331507,21.4093514 L38.8331507,20.5471081 Z M38.8331507,12.4794459 L38.8331507,13.4463784 C36.2580822,12.1563108 33.3632877,11.4020541 30.3591781,11.4020541 L30.3591781,10.5414595 C33.3632877,10.5414595 36.2580822,11.1869054 38.8331507,12.4794459 Z M38.8331507,59.7132297 C36.1512329,60.4650135 33.2531507,60.8953108 30.3591781,60.8953108 L30.3591781,60.0363649 C33.2531507,60.0363649 36.1512329,59.6044189 38.8331507,58.7438243 L38.8331507,59.7132297 Z M30.3591781,-2.13162821e-14 C33.2531507,-2.13162821e-14 36.1512329,0.430297297 38.8331507,1.28841892 L38.8331507,2.15066216 C36.1512329,1.39722973 33.2531507,0.965283784 30.3591781,0.965283784 L30.3591781,-2.13162821e-14 Z M39.5835616,50.4577162 L39.5835616,51.1048108 L39.4791781,51.1048108 L39.5835616,51.3199595 L39.5835616,55.5157703 C39.3706849,55.6237568 39.0476712,55.6237568 38.8331507,55.6237568 L38.8331507,55.085473 C39.4791781,55.1934595 39.799726,54.2248784 39.3706849,53.2562973 C39.1545205,53.2562973 38.9416438,53.3642838 38.8331507,53.3642838 L38.8331507,52.5020405 L39.0476712,52.2885405 L38.8331507,51.7502568 L38.8331507,50.7816757 C39.0476712,50.6745135 39.3706849,50.5681757 39.5835616,50.4577162 Z M39.5835616,47.0161622 L39.5835616,48.0919054 C39.3706849,48.1998919 39.0476712,48.3087027 38.8331507,48.5213784 L38.8331507,47.4448108 C39.0476712,47.3376486 39.3706849,47.2313108 39.5835616,47.0161622 Z M38.8331507,41.0975135 L39.5827397,41.0975135 L39.5827397,40.3457297 L38.8331507,40.3457297 L38.8331507,41.0975135 Z M38.8331507,39.162 L39.5827397,39.162 L39.5827397,33.8887973 L38.8331507,33.8887973 L38.8331507,39.162 Z M39.5835616,27.0040405 L39.5835616,28.2941081 L39.4791781,27.9726216 C39.0476712,28.2941081 38.9416438,28.6180676 39.1545205,28.9395541 C39.2621918,29.0483649 39.3706849,29.1563514 39.5835616,29.1563514 L39.5835616,29.8001486 C39.2621918,29.8001486 39.0476712,29.5866486 38.8331507,29.4786622 L38.8331507,27.3271757 C39.0476712,27.112027 39.2621918,27.0040405 39.5835616,27.0040405 Z M38.8331507,26.3602432 L39.5827397,26.3602432 L39.5827397,25.1765135 L38.8331507,25.1765135 L38.8331507,26.3602432 Z M39.5835616,23.9903108 L39.5835616,24.7445676 L38.9416438,24.3142703 L38.8331507,24.3142703 L38.8331507,23.5616622 C39.0476712,23.5616622 39.2621918,23.6688243 39.4791781,23.883973 L39.5835616,23.9903108 Z M39.5835616,22.4826216 L39.5835616,23.1297162 C39.3706849,23.0233784 39.1545205,22.9145676 38.9416438,22.9145676 L38.8331507,22.9145676 L38.8331507,22.1627838 C39.0476712,22.2699459 39.3706849,22.3779324 39.5835616,22.4826216 Z M38.8331507,21.4093514 L39.5827397,21.4093514 L39.5827397,20.5471081 L38.8331507,20.5471081 L38.8331507,21.4093514 Z M39.5835616,12.8009324 L39.5835616,13.8766757 C39.3706849,13.6631757 39.0476712,13.5551892 38.8331507,13.4463784 L38.8331507,12.4794459 C39.0476712,12.5857838 39.3706849,12.6945946 39.5835616,12.8009324 Z M39.5835616,11.2957162 L39.5835616,11.7260135 L39.5835616,11.1869054 L39.5835616,11.2957162 Z M39.5835616,59.3892703 C39.3706849,59.4972568 39.0476712,59.6044189 38.8331507,59.7132297 L38.8331507,58.7438243 C39.0476712,58.6374865 39.3706849,58.6374865 39.5835616,58.5286757 L39.5835616,59.3892703 Z M38.8331507,1.28841892 C39.0476712,1.28841892 39.3706849,1.39722973 39.5835616,1.50521622 L39.5835616,2.47214865 C39.3706849,2.36416216 39.0476712,2.257 38.8331507,2.15066216 L38.8331507,1.28841892 Z M40.1219178,51.9654054 L40.1219178,54.9783108 C40.0158904,55.1934595 39.799726,55.4086081 39.5835616,55.5157703 L39.5835616,51.3199595 L39.9057534,52.0733919 L40.1219178,51.9654054 Z M40.1219178,50.2442162 L40.1219178,50.8896622 C40.0158904,50.8896622 39.799726,50.996 39.5835616,51.1048108 L39.5835616,50.4577162 C39.799726,50.3513784 40.0158904,50.2442162 40.1219178,50.2442162 Z M40.1219178,46.6922027 L40.1219178,47.7695946 C40.0158904,47.8784054 39.799726,47.9847432 39.5835616,48.0919054 L39.5835616,47.0161622 C39.799726,46.9073514 40.0158904,46.7993649 40.1219178,46.6922027 Z M39.5835616,41.0975135 L40.1227397,41.0975135 L40.1227397,40.3457297 L39.5835616,40.3457297 L39.5835616,41.0975135 Z M39.5835616,39.162 L40.1227397,39.162 L40.1227397,38.3014054 L39.5835616,38.3014054 L39.5835616,39.162 Z M39.5835616,36.7937162 L40.1227397,36.7937162 L40.1227397,35.9331216 L39.5835616,35.9331216 L39.5835616,36.7937162 Z M39.5835616,34.8573784 L40.1227397,34.8573784 L40.1227397,33.8887973 L39.5835616,33.8887973 L39.5835616,34.8573784 Z M40.1219178,29.1563514 L40.1219178,29.9089595 C39.9057534,29.9089595 39.799726,29.9089595 39.5835616,29.8001486 L39.5835616,29.1563514 C39.799726,29.1563514 39.9057534,29.1563514 40.1219178,29.1563514 Z M40.1219178,27.0040405 L40.1219178,29.0483649 L39.5835616,28.2941081 L39.5835616,27.0040405 L40.1219178,27.0040405 Z M39.5835616,26.3602432 L40.1227397,26.3602432 L40.1227397,25.1765135 L39.5835616,25.1765135 L39.5835616,26.3602432 Z M40.1219178,24.3142703 L40.1219178,25.1765135 L39.5835616,24.7445676 L39.5835616,23.9903108 C39.799726,24.097473 40.0158904,24.2054595 40.1219178,24.3142703 Z M40.1219178,22.9145676 L40.1219178,23.6688243 C40.0158904,23.4536757 39.9057534,23.3448649 39.799726,23.238527 L39.5835616,23.1297162 L39.5835616,22.4826216 L39.6912329,22.5930811 C39.9057534,22.6994189 40.0158904,22.8082297 40.1219178,22.9145676 Z M39.5835616,21.4093514 L40.1227397,21.4093514 L40.1227397,20.5471081 L39.5835616,20.5471081 L39.5835616,21.4093514 Z M40.1219178,13.1248919 L40.1219178,14.2006351 C40.0158904,14.0918243 39.799726,13.9854865 39.5835616,13.8766757 L39.5835616,12.8009324 C39.799726,12.9097432 40.0158904,13.0160811 40.1219178,13.1248919 Z M40.1219178,11.5108649 L40.1219178,12.0475 C39.9057534,11.9428108 39.799726,11.8323514 39.5835616,11.7260135 L39.5835616,11.2957162 C39.799726,11.4020541 40.0158904,11.4020541 40.1219178,11.5108649 Z M40.1219178,59.2804595 C40.0158904,59.2804595 39.799726,59.3892703 39.5835616,59.3892703 L39.5835616,58.5286757 C39.799726,58.4206892 40.0158904,58.4206892 40.1219178,58.313527 L40.1219178,59.2804595 Z M39.5835616,1.50521622 C39.799726,1.50521622 40.0158904,1.61237838 40.1219178,1.61237838 L40.1219178,2.58095946 C40.0158904,2.58095946 39.799726,2.47214865 39.5835616,2.47214865 L39.5835616,1.50521622 Z M40.5509589,51.8582432 L40.5509589,52.7188378 L40.3347945,52.826 C40.5509589,53.6882432 40.4432877,54.4383784 40.1219178,54.9783108 L40.1219178,51.9654054 L40.5509589,51.8582432 Z M40.5509589,50.0274189 L40.5509589,50.6745135 L40.1219178,50.8896622 L40.1219178,50.2442162 L40.5509589,50.0274189 Z M40.5509589,46.479527 L40.5509589,47.5544459 C40.3347945,47.6616081 40.2287671,47.6616081 40.1219178,47.7695946 L40.1219178,46.6922027 L40.5509589,46.479527 Z M40.1219178,41.0975135 L40.5509589,41.0975135 L40.5509589,40.3457297 L40.1219178,40.3457297 L40.1219178,41.0975135 Z M40.1219178,39.162 L40.5509589,39.162 L40.5509589,38.3014054 L40.1219178,38.3014054 L40.1219178,39.162 Z M40.1219178,36.7937162 L40.5509589,36.7937162 L40.5509589,35.9331216 L40.1219178,35.9331216 L40.1219178,36.7937162 Z M40.1219178,34.8573784 L40.5509589,34.8573784 L40.5509589,33.8887973 L40.1219178,33.8887973 L40.1219178,34.8573784 Z M40.5509589,28.4029189 L40.5509589,29.9089595 L40.1219178,29.9089595 L40.1219178,29.1563514 L40.2287671,29.1563514 L40.1219178,29.0483649 L40.1219178,27.8638108 L40.5509589,28.4029189 Z M40.5509589,27.0040405 L40.5509589,27.6494865 L40.1219178,27.757473 L40.1219178,27.0040405 L40.5509589,27.0040405 Z M40.5509589,24.6374054 L40.5509589,26.3585946 L40.1219178,26.3585946 L40.1219178,25.1765135 L40.2287671,25.1765135 L40.1219178,25.1765135 L40.1219178,24.3142703 C40.2287671,24.4222568 40.3347945,24.5294189 40.5509589,24.6374054 Z M40.5509589,23.238527 L40.5509589,24.097473 C40.4432877,23.883973 40.2287671,23.7768108 40.1219178,23.6688243 L40.1219178,22.9145676 L40.5509589,23.238527 Z M40.1219178,21.4093514 L40.5509589,21.4093514 L40.5509589,20.5471081 L40.1219178,20.5471081 L40.1219178,21.4093514 Z M40.5509589,13.3400405 L40.5509589,14.4157838 L40.1219178,14.2006351 L40.1219178,13.1248919 C40.2287671,13.2312297 40.3347945,13.2312297 40.5509589,13.3400405 Z M40.5509589,11.6188514 L40.5509589,12.1563108 C40.3347945,12.1563108 40.2287671,12.0475 40.1219178,12.0475 L40.1219178,11.5108649 C40.2287671,11.5108649 40.3347945,11.6188514 40.5509589,11.6188514 Z M40.5509589,59.1741216 C40.3347945,59.1741216 40.2287671,59.1741216 40.1219178,59.2804595 L40.1219178,58.313527 C40.2287671,58.313527 40.3347945,58.2055405 40.5509589,58.2055405 L40.5509589,59.1741216 Z M40.1219178,1.61237838 C40.2287671,1.72036486 40.3347945,1.72036486 40.5509589,1.82752703 L40.5509589,2.68977027 C40.3347945,2.68977027 40.2287671,2.68977027 40.1219178,2.58095946 L40.1219178,1.61237838 Z M42.3747945,48.9516757 L42.3747945,49.5971216 C42.1586301,49.7059324 42.0526027,49.8139189 41.9441096,49.8139189 L42.3747945,50.5681757 L42.3747945,52.3940541 L42.0526027,51.9654054 L40.5509589,52.7188378 L40.5509589,51.8582432 L41.729589,51.2111486 L41.1945205,50.3513784 C40.98,50.4577162 40.7654795,50.5681757 40.5509589,50.6745135 L40.5509589,50.0274189 C41.0884932,49.7059324 41.729589,49.381973 42.3747945,48.9516757 Z M42.3747945,45.1869865 L42.3747945,46.3707162 C41.729589,46.7993649 41.0884932,47.2313108 40.5509589,47.5544459 L40.5509589,46.479527 C41.1945205,46.1555676 41.729589,45.7252703 42.3747945,45.1869865 Z M40.5509589,41.0975135 L42.3747945,41.0975135 L42.3747945,40.3457297 L40.5509589,40.3457297 L40.5509589,41.0975135 Z M42.3747945,34.3207432 L42.3747945,36.1482703 L42.0526027,36.3634189 L42.3747945,36.4722297 L42.3747945,38.7317027 C42.0526027,39.0548378 41.729589,39.162 40.7654795,39.162 L40.5509589,39.162 L40.5509589,38.3014054 L40.98,38.3014054 C41.5175342,38.3014054 41.729589,37.9799189 41.729589,37.4408108 C41.729589,37.0105135 41.4073973,36.7937162 40.98,36.7937162 L40.5509589,36.7937162 L40.5509589,35.9331216 L40.8723288,35.9331216 C41.3005479,35.9331216 41.6219178,35.8251351 41.6219178,35.3948378 C41.6219178,34.9661892 41.3005479,34.8582027 40.8723288,34.8582027 L40.5509589,34.8582027 L40.5509589,33.8887973 L41.0884932,33.8887973 C41.729589,33.8887973 42.0526027,34.1039459 42.3747945,34.3207432 Z M42.3747945,25.1765135 L42.0526027,25.1765135 C41.4073973,24.6374054 41.0884932,23.883973 40.5509589,23.238527 L40.5509589,24.097473 C40.7654795,24.4222568 41.0884932,24.8509054 41.4073973,25.1765135 L41.0884932,25.1765135 C40.8723288,24.9597162 40.6578082,24.8509054 40.5509589,24.6374054 L40.5509589,26.3585946 L41.4073973,26.3585946 L41.4073973,27.6494865 C41.1945205,27.3271757 40.8723288,27.112027 40.5509589,27.0040405 L40.5509589,27.6494865 C40.8723288,27.6494865 41.1945205,27.757473 41.3005479,27.9726216 L41.4073973,27.9726216 L41.4073973,28.5109054 C41.3005479,28.6180676 41.0884932,28.8332162 40.8723288,28.9395541 L40.5509589,28.4029189 L40.5509589,29.9089595 C40.8723288,29.8001486 41.1945205,29.5866486 41.4073973,29.3715 L41.4073973,30.8775405 L42.3747945,31.4141757 L42.3747945,25.1765135 Z M42.3747945,23.1297162 L42.3747945,24.5294189 C41.9441096,24.5294189 41.6219178,24.2054595 41.6219178,23.883973 C41.6219178,23.4536757 41.9441096,23.1297162 42.3747945,23.1297162 Z M40.5509589,21.4093514 L42.3747945,21.4093514 L42.3747945,20.5471081 L40.5509589,20.5471081 L40.5509589,21.4093514 Z M42.3747945,14.6309324 L42.3747945,15.7058514 C41.729589,15.2755541 41.1945205,14.8460811 40.5509589,14.4157838 L40.5509589,13.3400405 C41.0884932,13.7703378 41.729589,14.0918243 42.3747945,14.6309324 Z M42.3747945,11.8323514 L42.3747945,12.3706351 C41.6219178,12.3706351 41.0884932,12.3706351 40.5509589,12.1563108 L40.5509589,11.6188514 C41.0884932,11.8323514 41.729589,11.8323514 42.3747945,11.8323514 Z M42.3747945,58.4206892 C41.729589,58.6374865 41.0884932,58.8501622 40.5509589,59.1741216 L40.5509589,58.2055405 C41.0884932,57.9920405 41.729589,57.6680811 42.3747945,57.4529324 L42.3747945,58.4206892 Z M40.5509589,1.82752703 C41.0884932,2.04267568 41.729589,2.257 42.3747945,2.47214865 L42.3747945,3.44155405 C41.729589,3.22640541 41.0884932,3.00960811 40.5509589,2.68977027 L40.5509589,1.82752703 Z M42.3747945,24.5294189 L42.3747945,23.1297162 C42.6961644,23.1297162 43.0183562,23.4536757 43.0183562,23.883973 C43.0183562,24.2054595 42.6961644,24.5294189 42.3747945,24.5294189 Z M42.3747945,31.4141757 L42.3747945,25.1765135 L42.6961644,25.1765135 L43.2312329,26.2497838 L42.48,26.2497838 L42.48,31.5229865 L42.3747945,31.4141757 Z M42.3747945,36.1482703 C42.48,36.0402838 42.6961644,35.717973 42.6961644,35.2885 C42.6961644,34.9661892 42.5893151,34.6430541 42.3747945,34.3207432 L42.3747945,36.1482703 Z M42.3747945,38.7317027 C42.6961644,38.4077432 42.9106849,37.9799189 42.9106849,37.547973 C42.9106849,37.116027 42.6961644,36.6873784 42.3747945,36.4722297 L42.3747945,38.7317027 Z M42.3747945,41.0975135 L42.3747945,40.3457297 L44.0909589,40.3457297 L44.0909589,21.4093514 L42.3747945,21.4093514 L42.3747945,20.5471081 L44.8421918,20.5471081 L44.8421918,41.0975135 L42.3747945,41.0975135 Z M42.3747945,52.3940541 L43.0183562,53.7945811 L43.9824658,53.7945811 L42.3747945,50.5681757 L42.3747945,52.3940541 Z M49.1317808,46.1555676 C48.7035616,46.1555676 48.4865753,46.3707162 48.4865753,46.7993649 C48.4865753,47.1225 48.7035616,47.4448108 49.1317808,47.4448108 L49.1317808,46.1555676 Z M49.1317808,42.1749054 C47.4164384,44.8646757 45.0550685,47.2313108 42.3747945,48.9516757 L42.3747945,49.5971216 C43.660274,48.8453378 44.8421918,47.8784054 45.9147945,46.9073514 L46.449863,47.6616081 C44.8421918,48.3087027 43.9824658,49.5971216 44.8421918,50.3513784 C45.269589,50.6745135 46.5583562,50.1362297 47.0950685,49.5971216 C47.6309589,48.9516757 48.2761644,49.2756351 47.8454795,49.9210811 C47.4164384,50.5681757 46.7728767,50.8896622 45.9147945,51.1048108 L45.9147945,51.5334595 L47.0950685,51.3199595 L46.7728767,52.0733919 L47.4164384,52.1805541 L47.7369863,51.4262973 L49.1317808,51.2111486 L49.1317808,50.4577162 L48.3805479,50.4577162 C49.0257534,49.7059324 49.2386301,48.8453378 48.4865753,48.4133919 C47.7369863,47.8784054 47.0950685,48.6301892 46.449863,49.2756351 C45.700274,50.0274189 45.269589,49.1668243 45.8071233,48.8453378 C46.3421918,48.4133919 46.9873973,47.9847432 47.5241096,47.5544459 L46.5583562,46.2619054 C47.5241096,45.294973 48.3805479,44.2192297 49.1317808,43.0355 L49.1317808,42.1749054 Z M49.1317808,33.3521622 L49.1317808,37.0105135 C47.8454795,40.7776757 45.3780822,44.0024324 42.3747945,46.3707162 L42.3747945,45.1869865 C45.9147945,42.2820676 48.3805479,38.0846081 49.1317808,33.3521622 Z M49.1317808,23.883973 C47.8454795,20.1184595 45.3780822,16.8904054 42.3747945,14.6309324 L42.3747945,15.7058514 C45.9147945,18.6107703 48.3805479,22.8082297 49.1317808,27.5423243 L49.1317808,23.883973 Z M49.1317808,18.7195811 L49.1317808,22.2699459 C48.2761644,21.6245 48.06,20.5471081 48.5967123,19.5801757 L49.1317808,18.7195811 Z M49.1317808,9.57287838 L49.1317808,10.6486216 L47.0950685,14.8460811 L49.1317808,14.5237703 L49.1317808,15.0604054 L45.5926027,15.5978649 L47.9515068,10.5414595 C46.3421918,11.4020541 44.1969863,12.2626486 42.3747945,12.3706351 L42.3747945,11.8323514 C44.52,11.7260135 46.9873973,10.5414595 49.1317808,9.57287838 Z M49.1317808,54.3328649 C47.0950685,55.9460676 44.7328767,57.3449459 42.3747945,58.4206892 L42.3747945,57.4529324 C44.7328767,56.3755405 47.0950685,54.8703243 49.1317808,53.2562973 L49.1317808,54.3328649 Z M42.3747945,2.47214865 C44.7328767,3.54789189 47.0950685,4.94677027 49.1317808,6.56162162 L49.1317808,7.7437027 C47.0950685,6.02251351 44.7328767,4.62528378 42.3747945,3.44155405 L42.3747945,2.47214865 Z M49.1317808,10.6486216 L49.7753425,9.35772973 C49.5608219,9.46654054 49.3463014,9.57287838 49.1317808,9.57287838 L49.1317808,10.6486216 Z M49.1317808,21.0853919 L49.1317808,18.7195811 L51.4915068,14.6309324 L49.1317808,15.0604054 L49.1317808,14.5237703 L53.4238356,13.7703378 L49.5608219,20.010473 C49.3463014,20.4424189 49.1317808,20.7639054 49.1317808,21.0853919 Z M49.1317808,22.2699459 L49.1317808,21.4093514 C49.2386301,22.0547973 49.8838356,22.2699459 51.0624658,22.2699459 L51.0624658,22.6994189 C50.2043836,22.8082297 49.5608219,22.5930811 49.1317808,22.2699459 Z M49.1317808,37.0105135 C49.8838356,34.9661892 50.2043836,32.7050676 50.2043836,30.4455946 C50.2043836,28.1877703 49.8838356,25.9282973 49.1317808,23.883973 L49.1317808,27.5423243 C49.2386301,28.5109054 49.3463014,29.4786622 49.3463014,30.4455946 C49.3463014,31.4141757 49.2386301,32.4915676 49.1317808,33.3521622 L49.1317808,37.0105135 Z M49.1317808,47.4448108 L49.1317808,46.1555676 C49.4547945,46.1555676 49.7753425,46.3707162 49.7753425,46.7993649 C49.7753425,47.1225 49.4547945,47.4448108 49.1317808,47.4448108 Z M49.1317808,51.2111486 L49.6668493,51.2111486 L49.6668493,50.4577162 L49.1317808,50.4577162 L49.1317808,51.2111486 Z M54.0665753,29.5866486 L54.0665753,30.4455946 L52.9947945,30.4455946 C52.9947945,31.3078378 52.8863014,32.1684324 52.780274,32.9218649 L53.529863,32.9218649 C53.529863,32.4915676 53.7443836,32.1684324 54.0665753,31.9549324 L54.0665753,35.8251351 C53.529863,36.6873784 53.4238356,37.3328243 53.9589041,37.6543108 L54.0665753,37.6543108 L54.0665753,38.5165541 C53.6383562,38.4077432 53.3153425,38.1925946 53.1024658,37.6543108 C52.6717808,36.6873784 53.1024658,35.6099865 53.8520548,34.6430541 L53.6383562,33.7808108 L52.6717808,33.7808108 C52.4572603,35.6099865 51.9221918,37.3328243 51.2786301,39.0548378 L54.0665753,40.2393919 L54.0665753,41.0975135 L50.9564384,39.8090946 C50.7435616,40.2393919 50.5273973,40.7776757 50.2043836,41.2063243 C51.5991781,40.8823649 53.7443836,41.5278108 53.2093151,43.8960946 C52.9947945,44.9718378 51.7060274,45.8340811 50.849589,45.4037838 C49.5608219,44.8646757 49.6693151,43.4657973 50.9564384,42.6035541 C51.0624658,42.8203514 51.1726027,43.0355 51.3830137,43.2506486 C50.5273973,43.8960946 50.4189041,44.8646757 51.2786301,44.6478784 C51.9221918,44.5415405 52.9947945,43.2506486 51.7060274,42.0669189 C51.2786301,41.6366216 50.4189041,41.7429595 49.7753425,41.9597568 C49.5608219,42.3900541 49.3463014,42.7123649 49.1317808,43.0355 L49.1317808,42.1749054 C51.2786301,38.7317027 52.4572603,34.7493919 52.3512329,30.4455946 C52.3512329,29.9089595 52.3512329,29.3715 52.2427397,28.7244054 L52.8863014,28.7244054 C52.8863014,29.0483649 52.8863014,29.3715 52.8863014,29.5866486 L54.0665753,29.5866486 Z M54.0665753,26.0346351 L54.0665753,26.8968784 L52.0282192,26.8968784 L52.6717808,26.0346351 L54.0665753,26.0346351 Z M54.0665753,23.9903108 L54.0665753,24.8509054 L52.1350685,24.8509054 L52.6717808,23.9903108 L54.0665753,23.9903108 Z M54.0665753,49.381973 C52.5657534,51.2111486 50.9564384,52.9339865 49.1317808,54.3328649 L49.1317808,53.2562973 C50.9564384,51.6414459 52.6717808,49.9210811 54.0665753,47.9847432 L54.0665753,49.381973 Z M49.1317808,6.56162162 C50.9564384,8.06683784 52.5657534,9.68168919 54.0665753,11.5108649 L54.0665753,12.9097432 C52.6717808,10.9717568 50.9564384,9.25139189 49.1317808,7.7437027 L49.1317808,6.56162162 Z M54.0665753,24.8509054 L55.6767123,24.8509054 L56.1057534,23.9903108 L54.0665753,23.9903108 L54.0665753,24.8509054 Z M54.0665753,26.8968784 L55.6767123,26.8968784 L56.1057534,25.9282973 L54.0665753,26.0346351 L54.0665753,26.8968784 Z M54.0665753,30.4455946 L56.5339726,30.4455946 L57.0715068,29.5866486 L54.0665753,29.5866486 L54.0665753,30.4455946 Z M54.0665753,35.8251351 L54.1750685,35.717973 L54.389589,36.0402838 L55.1391781,35.3948378 C54.0665753,33.7808108 54.1750685,32.3835811 54.8169863,32.2764189 C55.569863,32.1684324 56.1057534,33.3521622 55.9972603,34.5342432 L56.8569863,33.9976081 C56.5339726,32.5987297 55.7843836,31.7381351 54.710137,31.7381351 C54.4956164,31.7381351 54.2819178,31.844473 54.0665753,31.9549324 L54.0665753,35.8251351 Z M54.0665753,38.5165541 C54.9246575,38.6228919 56.1057534,37.7631216 56.2117808,36.4722297 L55.4621918,36.5785676 C55.1391781,37.3328243 54.710137,37.8711081 54.0665753,37.6543108 L54.0665753,38.5165541 Z M54.0665753,41.0975135 L54.389589,41.3126622 L55.3553425,40.7776757 L54.0665753,40.2393919 L54.0665753,41.0975135 Z M54.0665753,11.5108649 C58.250137,16.6752568 60.7191781,23.3448649 60.7191781,30.4455946 C60.7191781,37.6543108 58.250137,44.2192297 54.0665753,49.381973 L54.0665753,47.9847432 C57.7150685,43.0355 59.8594521,37.0105135 59.8594521,30.4455946 C59.8594521,23.883973 57.7150685,17.8589865 54.0665753,12.9097432 L54.0665753,11.5108649 L54.0665753,11.5108649 Z" id="Fill-3" fill="#2E7CB3"></path>
                </g>
            </g>
        </g>
    </g>
</svg>