<?xml version="1.0" encoding="UTF-8"?>
<svg width="112px" height="112px" viewBox="0 0 112 112" version="1.1" xmlns="http://www.w3.org/2000/svg" xmlns:xlink="http://www.w3.org/1999/xlink">
    <!-- Generator: Sketch 62 (91390) - https://sketch.com -->
    <title>Service5</title>
    <desc>Created with Sketch.</desc>
    <g id="Size-1920" stroke="none" stroke-width="1" fill="none" fill-rule="evenodd">
        <g id="Home-Page" transform="translate(-904.000000, -2043.000000)">
            <g id="Service5" transform="translate(889.500000, 2029.000000)">
                <rect id="Rectangle" x="0" y="0" width="140" height="140"></rect>
                <g id="Group-14" transform="translate(14.500000, 14.000000)" fill="#8997B9" fill-rule="nonzero">
                    <path d="M108.226268,68.2115982 L104.452535,68.2115982 L104.452535,62.5000673 C104.452535,61.4486038 103.607756,60.596224 102.565669,60.596224 L80.3006471,60.596224 C83.5947347,49.370408 81.4397358,37.2342225 74.4878547,27.8606504 C67.5359736,18.4870782 56.604255,12.9777821 45.0011533,13.0000673 L38.6876989,13.0000673 C31.0046472,13.0000673 23.6359584,16.0780893 18.2030436,21.5595305 C12.7701287,27.0409716 9.71814082,34.4757605 9.71864137,42.2279414 L9.71864137,50.5306031 L0.518281556,67.7718104 C-0.206332381,69.1331931 -0.168950836,70.7785604 0.616728694,72.1050101 C1.40240822,73.4314598 2.82088451,74.2439932 4.35239377,74.2448784 L9.71864137,74.2448784 L9.71864137,91.579374 C9.72176159,94.6946076 12.2238591,97.219218 15.3113129,97.2223663 L30.8647514,97.2223663 L30.8647514,110.096156 C30.8647514,111.14762 31.7095302,112 32.7516176,112 L60.4036425,112 C61.4457299,112 62.2905087,111.14762 62.2905087,110.096156 L62.2905087,87.7869177 L68.7549125,79.6346596 L102.565669,79.6346596 C103.607756,79.6346596 104.452535,78.7822798 104.452535,77.730816 L104.452535,72.0192853 L108.226268,72.0192853 L108.226268,75.8269724 L112,75.8269724 L112,64.4039111 L108.226268,64.4039111 L108.226268,68.2115982 Z M78.0364076,50.1403152 C78.0295362,53.6949375 77.4561558,57.225314 76.3382279,60.596224 L40.2990826,60.596224 L40.2990826,49.1731627 L77.987349,49.1731627 C77.9967834,49.4968161 78.0364076,49.8128541 78.0364076,50.1403152 Z M77.6590343,45.3654756 L40.2990826,45.3654756 L40.2990826,33.9424142 L73.8494514,33.9424142 C75.8022332,37.4824276 77.0935458,41.3544376 77.6590343,45.3654756 L77.6590343,45.3654756 Z M58.9318868,85.9306702 C58.6628525,86.2670684 58.5163277,86.6864055 58.5167762,87.1186686 L58.5167762,108.192313 L34.6384839,108.192313 L34.6384839,95.3242343 C34.6384839,94.2727705 33.7937051,93.4203907 32.7516176,93.4203907 L15.3113129,93.4203907 C14.3071717,93.4193414 13.4934139,92.5982616 13.4923739,91.5850856 L13.4923739,72.3467464 C13.4923739,71.2952827 12.6475951,70.4429029 11.6055076,70.4429029 L4.35239377,70.4429029 C4.14791803,70.4427707 3.95855588,70.3342234 3.85375233,70.1570687 C3.74894879,69.979914 3.74412614,69.760221 3.84105302,69.5785579 L13.2753842,51.9127935 C13.4242249,51.6357304 13.5020591,51.3255192 13.5018082,51.0103717 L13.5018082,42.2279414 C13.5007659,28.1913354 24.7762631,16.8109762 38.6876989,16.8078222 L45.0011533,16.8078222 C55.3771261,16.8171086 65.143393,21.7544058 71.3625616,30.1347271 L38.4122164,30.1347271 C37.3701289,30.1347271 36.5253501,30.9871069 36.5253501,32.0385707 L36.5253501,77.730816 C36.5253501,78.7822798 37.3701289,79.6346596 38.4122164,79.6346596 L63.922648,79.6346596 L58.9318868,85.9306702 Z M100.678803,75.8269724 L40.2990826,75.8269724 L40.2990826,64.4039111 L100.678803,64.4039111 L100.678803,75.8269724 Z" id="Shape"></path>
                    <path d="M101.166667,30.1176471 L101.166667,22.9402353 L104.5975,14.2230588 C104.66745,14.0421483 104.708191,13.8516155 104.71825,13.6583529 C104.900404,12.8828473 104.994892,12.0899735 105,11.2941176 C105,5.05654871 99.8512746,0 93.5,0 C87.1487254,0 82,5.05654871 82,11.2941176 C82.0048672,12.0841813 82.0980647,12.8713309 82.2779167,13.6414118 C82.2878716,13.8407248 82.33059,14.037144 82.4044167,14.2230588 L85.8333333,22.9402353 L85.8333333,30.1176471 C85.8333333,31.1572419 86.6914542,32 87.75,32 L99.25,32 C100.308546,32 101.166667,31.1572419 101.166667,30.1176471 Z M97.3333333,28.2352941 L89.6666667,28.2352941 L89.6666667,24.4705882 L97.3333333,24.4705882 L97.3333333,28.2352941 Z M97.9370833,20.7058824 L95.4166667,20.7058824 L95.4166667,15.8381176 L98.6884167,12.6249412 L95.97825,9.96329412 L93.5,12.3971765 L91.02175,9.96329412 L88.3115833,12.6249412 L91.5833333,15.8381176 L91.5833333,20.7058824 L89.0629167,20.7058824 L86.1035833,13.1764706 L86.0844167,13.0917647 C85.926441,12.5048372 85.8421211,11.9011433 85.8333333,11.2941176 C85.8333333,7.13573835 89.2658169,3.76470588 93.5,3.76470588 C97.7341831,3.76470588 101.166667,7.13573835 101.166667,11.2941176 C101.158035,11.9017742 101.073714,12.5061095 100.915583,13.0936471 C100.915583,13.1237647 100.902167,13.1538824 100.896417,13.1821176 L97.9370833,20.7058824 Z" id="Shape"></path>
                    <rect id="Rectangle" x="91" y="37" width="4" height="4"></rect>
                    <rect id="Rectangle" x="91" y="44" width="4" height="4"></rect>
                    <path d="M86,50.7037556 L91.6649582,56.4401535 C92.4023466,57.1866155 93.5976534,57.1866155 94.3350418,56.4401535 L100,50.7037556 L97.3299164,48 L93,52.3845201 L88.6700836,48 L86,50.7037556 Z" id="Path"></path>
                </g>
            </g>
        </g>
    </g>
</svg>