<?xml version="1.0" encoding="UTF-8"?>
<svg width="108px" height="108px" viewBox="0 0 108 108" version="1.1" xmlns="http://www.w3.org/2000/svg" xmlns:xlink="http://www.w3.org/1999/xlink">
    <!-- Generator: Sketch 62 (91390) - https://sketch.com -->
    <title>Service4</title>
    <desc>Created with Sketch.</desc>
    <g id="Size-1920" stroke="none" stroke-width="1" fill="none" fill-rule="evenodd">
        <g id="Home-Page" transform="translate(-491.000000, -2053.000000)">
            <g id="Service4" transform="translate(471.000000, 2029.000000)">
                <rect id="Rectangle" x="0" y="0" width="140" height="140"></rect>
                <path d="M106.4,67.2 C118.310937,67.2 128,57.5109375 128,45.6 C128,33.6890625 118.310937,24 106.4,24 C97.7506836,24 90.293164,29.1213868 86.8469726,36.4813476 L81.0628906,34.3464844 C81.1314452,33.9035156 81.2,33.4605469 81.2,33 C81.2,28.0376952 77.1623048,24 72.2,24 C67.2376952,24 63.2,28.0376952 63.2,33 C63.2,37.9623048 67.2376952,42 72.2,42 C75.4238281,42 78.2354493,40.2808594 79.8245118,37.7267577 L85.5989257,39.8581055 C85.0917969,41.690625 84.8,43.6092774 84.8,45.6 C84.8,47.9581055 85.1919923,50.222168 85.8942382,52.3482423 L66.0977539,60.7382812 C62.4731445,53.8854493 55.278418,49.2 47,49.2 C44.3175781,49.2 41.7582031,49.715039 39.3860351,50.6115236 L34.4070313,40.1481445 C36.5761719,38.502832 38,35.925 38,33 C38,28.0376952 33.9623048,24 29,24 C24.0376952,24 20,28.0376952 20,33 C20,37.9623048 24.0376952,42 29,42 C29.7488281,42 30.4668945,41.8813476 31.1638673,41.7064452 L36.1367188,52.1592774 C29.7268555,55.9104493 25.4,62.8511719 25.4,70.8 C25.4,78.2663086 29.2091798,84.8563476 34.9835937,88.7367187 L31.691211,94.6552736 C30.8342774,94.3854493 29.9430664,94.2 29,94.2 C24.0376952,94.2 20,98.2376952 20,103.2 C20,108.162305 24.0376952,112.2 29,112.2 C33.9623048,112.2 38,108.162305 38,103.2 C38,100.474512 36.7563476,98.0575195 34.8376952,96.4069336 L38.1371094,90.4760743 C40.8441406,91.7012695 43.8394531,92.4 47,92.4 C51.9394531,92.4 56.4825195,90.7151368 60.1255861,87.9140625 L67.2104493,95.7082031 C63.6174805,99.5674805 61.4,104.723144 61.4,110.4 C61.4,111.501269 61.5098632,112.574414 61.6680664,113.630859 L53.3325195,115.609277 C51.8981445,112.541894 48.8035156,110.4 45.2,110.4 C40.2376952,110.4 36.2,114.437695 36.2,119.4 C36.2,124.362305 40.2376952,128.4 45.2,128.4 C50.1623048,128.4 54.2,124.362305 54.2,119.4 C54.2,119.300684 54.1727538,119.207519 54.1709962,119.108203 L62.4907226,117.135938 C65.327832,125.755371 73.4418945,132 83,132 C94.9109375,132 104.6,122.310937 104.6,110.4 C104.6,106.706836 103.665723,103.229004 102.023926,100.187109 L112.597168,93.3123048 C114.231934,94.968164 116.495996,96 119,96 C123.962305,96 128,91.9623048 128,87 C128,82.0376952 123.962305,78 119,78 C114.037695,78 110,82.0376952 110,87 C110,88.162793 110.239063,89.2675781 110.642481,90.2888673 L100.044629,97.1786132 C97.9238281,94.4522461 95.1702149,92.250586 92,90.7889649 L100.785547,66.4335938 C102.578516,66.9169923 104.455859,67.2 106.4,67.2 Z M72.2,38.4 C69.2231445,38.4 66.8,35.9768555 66.8,33 C66.8,30.0231445 69.2231445,27.6 72.2,27.6 C75.1768555,27.6 77.6,30.0231445 77.6,33 C77.6,35.9768555 75.1768555,38.4 72.2,38.4 Z M23.6,33 C23.6,30.0231445 26.0231445,27.6 29,27.6 C31.9768555,27.6 34.4,30.0231445 34.4,33 C34.4,35.9768555 31.9768555,38.4 29,38.4 C26.0231445,38.4 23.6,35.9768555 23.6,33 Z M29,108.6 C26.0231445,108.6 23.6,106.176856 23.6,103.2 C23.6,100.223144 26.0231445,97.8 29,97.8 C31.9768555,97.8 34.4,100.223144 34.4,103.2 C34.4,106.176856 31.9768555,108.6 29,108.6 Z M45.2,124.8 C42.2231445,124.8 39.8,122.376856 39.8,119.4 C39.8,116.423144 42.2231445,114 45.2,114 C48.1768555,114 50.6,116.423144 50.6,119.4 C50.6,122.376856 48.1768555,124.8 45.2,124.8 Z M119,81.6 C121.976856,81.6 124.4,84.0231445 124.4,87 C124.4,89.9768555 121.976856,92.4 119,92.4 C116.023144,92.4 113.6,89.9768555 113.6,87 C113.6,84.0231445 116.023144,81.6 119,81.6 Z M95.7995118,60.1151368 C96.602832,55.9517577 100.273144,52.8 104.6,52.8 L108.2,52.8 C112.526856,52.8 116.197168,55.9517577 117.000488,60.1151368 C114.022754,62.2948243 110.365625,63.6 106.4,63.6 C102.434375,63.6 98.7772461,62.2948243 95.7995118,60.1151368 Z M106.4,49.2 C103.423144,49.2 101,46.7768555 101,43.8 C101,40.8231445 103.423144,38.4 106.4,38.4 C109.376856,38.4 111.8,40.8231445 111.8,43.8 C111.8,46.7768555 109.376856,49.2 106.4,49.2 Z M106.4,27.6 C116.325488,27.6 124.4,35.6745118 124.4,45.6 C124.4,50.1 122.727441,54.2115236 119.986133,57.3703125 C118.724902,54.0489257 116.095215,51.3981445 112.818652,50.0894531 C114.412109,48.4652344 115.4,46.2477539 115.4,43.8 C115.4,38.8376952 111.362305,34.8 106.4,34.8 C101.437695,34.8 97.4,38.8376952 97.4,43.8 C97.4,46.2477539 98.3878906,48.4652344 99.9813476,50.0894531 C96.7047851,51.3981445 94.0750976,54.0489257 92.8138673,57.3703125 C90.0725587,54.2115236 88.4,50.1 88.4,45.6 C88.4,35.6745118 96.4745118,27.6 106.4,27.6 L106.4,27.6 Z M29,70.8 C29,60.8745118 37.0745118,52.8 47,52.8 C56.9254882,52.8 65,60.8745118 65,70.8 C65,75.3140625 63.3168945,79.4361327 60.5615235,82.5993164 C59.3046875,79.265625 56.6697264,76.6016601 53.384375,75.2894531 C54.9760743,73.6652344 55.9639649,71.4477539 55.9639649,69 C55.9639649,64.0376952 51.9262695,60 46.9639649,60 C42.0016601,60 37.9639649,64.0376952 37.9639649,69 C37.9639649,71.4477539 38.9518555,73.6652344 40.5453125,75.2894531 C37.278418,76.5919923 34.6522462,79.2331055 33.3866212,82.5413087 C30.6611327,79.3860351 29,75.2876952 29,70.8 L29,70.8 Z M41.5639649,69 C41.5639649,66.0231445 43.9871094,63.6 46.9639649,63.6 C49.9408202,63.6 52.3639649,66.0231445 52.3639649,69 C52.3639649,71.9768555 49.9408202,74.4 46.9639649,74.4 C43.9871094,74.4 41.5639649,71.9768555 41.5639649,69 Z M36.3696289,85.2914063 C37.1808594,81.1394531 40.8458986,78 45.1639649,78 L48.7639649,78 C53.0987305,78 56.7760743,81.1623048 57.5679687,85.3388673 C54.5963868,87.5053712 50.9506837,88.8 47,88.8 C43.0203125,88.8 39.3517577,87.4860351 36.3696289,85.2914063 Z M72.3696288,124.891406 C73.1808594,120.739453 76.8458986,117.6 81.1639649,117.6 L84.7639649,117.6 C89.0987305,117.6 92.7760743,120.762305 93.5679688,124.938867 C90.5963868,127.105371 86.9506837,128.4 83,128.4 C79.0203125,128.4 75.3517577,127.086035 72.3696288,124.891406 Z M82.9639649,114 C79.9871094,114 77.5639649,111.576856 77.5639649,108.6 C77.5639649,105.623144 79.9871094,103.2 82.9639649,103.2 C85.9408202,103.2 88.3639649,105.623144 88.3639649,108.6 C88.3639649,111.576856 85.9408202,114 82.9639649,114 Z M101,110.4 C101,114.914062 99.3168945,119.036133 96.5615236,122.199316 C95.3046875,118.865625 92.6697265,116.20166 89.384375,114.889453 C90.9760743,113.265234 91.9639649,111.047754 91.9639649,108.6 C91.9639649,103.637695 87.9262695,99.6 82.9639649,99.6 C78.0016601,99.6 73.9639649,103.637695 73.9639649,108.6 C73.9639649,111.047754 74.9518555,113.265234 76.5453125,114.889453 C73.278418,116.191992 70.6522461,118.833106 69.3866211,122.141309 C66.6611327,118.986035 65,114.887695 65,110.4 C65,100.474512 73.0745118,92.4 83,92.4 C92.9254882,92.4 101,100.474512 101,110.4 Z M88.6144531,89.5664062 C86.8214844,89.0830077 84.9441406,88.8 83,88.8 C78.0605469,88.8 73.5174805,90.4848632 69.874414,93.2859375 L62.7895507,85.4917969 C66.3825195,81.6325195 68.6,76.4768555 68.6,70.8 C68.6,68.4418945 68.2080077,66.177832 67.5057618,64.0517577 L87.3022461,55.6617188 C89.5197264,59.8541015 93.078418,63.2185548 97.4017577,65.2110351 L88.6144531,89.5664062 Z" id="Shape" fill="#8997B9" fill-rule="nonzero"></path>
            </g>
        </g>
    </g>
</svg>