<?xml version="1.0" encoding="UTF-8"?>
<svg width="100px" height="100px" viewBox="0 0 100 100" version="1.1" xmlns="http://www.w3.org/2000/svg" xmlns:xlink="http://www.w3.org/1999/xlink">
    <!-- Generator: Sketch 62 (91390) - https://sketch.com -->
    <title>Service2</title>
    <desc>Created with Sketch.</desc>
    <g id="Size-1920" stroke="none" stroke-width="1" fill="none" fill-rule="evenodd">
        <g id="Home-Page" transform="translate(-910.000000, -1680.000000)">
            <g id="Service2" transform="translate(890.000000, 1660.000000)">
                <rect id="Rectangle" x="0" y="0" width="140" height="140"></rect>
                <g id="Group-5" transform="translate(20.000000, 20.000000)" fill="#8997B9" fill-rule="nonzero">
                    <path d="M70,19.4996175 C70,14.2615892 65.7384108,10 60.5003825,10 C55.2615892,10 51,14.2615892 51,19.4996175 C51,24.7384108 55.2615892,29 60.5003825,29 C65.7384108,29 70,24.7384108 70,19.4996175 L70,19.4996175 Z M53.9369688,19.4996175 C53.9369688,15.8808248 56.88159,12.936969 60.5003825,12.936969 C64.1191752,12.936969 67.063031,15.8808248 67.063031,19.4996175 C67.063031,23.1191752 64.1191752,26.0630312 60.5003825,26.0630312 C56.88159,26.0630312 53.9369688,23.11841 53.9369688,19.4996175 Z" id="Shape"></path>
                    <path d="M15.3150812,47 L64.6856837,47 C67.6162435,47 70,44.5323406 70,41.4996044 C70,38.4668683 67.6162435,36 64.6856837,36 L15.3150812,36 C12.3845214,36 10,38.4668683 10,41.4996044 C10,44.5323406 12.3845214,47 15.3150812,47 Z M15.3150812,39.0374848 L64.6856837,39.0374848 C65.997247,39.0374848 67.0648515,40.1415211 67.0648515,41.4996044 C67.0648515,42.8576877 65.997247,43.9625154 64.6856837,43.9625154 L15.3150812,43.9625154 C14.002753,43.9625154 12.9351485,42.8576877 12.9351485,41.4996044 C12.9351485,40.1415211 14.002753,39.0374848 15.3150812,39.0374848 Z" id="Shape"></path>
                    <path d="M14.0748956,64 L51.9256909,64 C54.1724534,64 56,61.5323404 56,58.4996042 C56,55.4668681 54.1724534,53 51.9256909,53 L14.0748956,53 C11.828133,53 10,55.4668681 10,58.4996042 C10,61.5323404 11.828133,64 14.0748956,64 Z M14.0748956,56.0374848 L51.9256909,56.0374848 C52.9312227,56.0374848 53.7497195,57.1423125 53.7497195,58.4996042 C53.7497195,59.8576877 52.9312227,60.9625152 51.9256909,60.9625152 L14.0748956,60.9625152 C13.0687773,60.9625152 12.2502805,59.8576877 12.2502805,58.4996042 C12.2502805,57.1423125 13.0687773,56.0374848 14.0748956,56.0374848 Z" id="Shape"></path>
                    <path d="M14.4017066,84 L49.5982936,84 C52.5766158,84 55,81.5331317 55,78.5003956 C55,75.4676594 52.5766158,73 49.5982936,73 L14.4017066,73 C11.4233844,73 9,75.4676594 9,78.5003956 C9,81.5331317 11.4233844,84 14.4017066,84 Z M14.4017066,76.0374846 L49.5982936,76.0374846 C50.9320099,76.0374846 52.0162372,77.1423123 52.0162372,78.5003956 C52.0162372,79.8584789 50.9320099,80.9625152 49.5982936,80.9625152 L14.4017066,80.9625152 C13.0679901,80.9625152 11.9829857,79.8584789 11.9829857,78.5003956 C11.9829857,77.1423123 13.0679901,76.0374846 14.4017066,76.0374846 Z" id="Shape"></path>
                    <path d="M95.4177855,78.2880126 L89.8849488,78.2880126 L89.8849488,73.3997818 C89.8849488,72.1504399 89.1311645,71.0751055 88.0561828,70.6004015 L90.2015686,60.7628845 C90.8172607,57.9360294 90.070343,54.9298248 88.2011414,52.7211534 C86.4196777,50.6162757 83.8172912,49.4089095 81.0600281,49.4089095 C80.5992127,49.4089095 80.1429748,49.4455426 79.6936035,49.5111768 L79.6936035,4.86533521 C79.6936035,2.18272291 77.5115967,0 74.8298645,0 L4.86373906,0 C2.18200684,0 0,2.18272291 0,4.86533521 L0,20.5778874 C0,21.3868686 0.655365039,22.0424485 1.46408086,22.0424485 C2.27279668,22.0424485 2.92816172,21.3868686 2.92816172,20.5778874 L2.92816172,4.86533521 C2.92816172,3.79763259 3.79638672,2.92912266 4.86373906,2.92912266 L74.8298645,2.92912266 C75.8972168,2.92912266 76.7654418,3.79763259 76.7654418,4.86533521 L76.7654418,50.4537163 C75.6904602,51.0093185 74.7207641,51.7732717 73.918152,52.7211534 C72.8118896,54.0292606 72.0855713,55.6151692 71.8185426,57.307161 C71.6918945,58.1062208 72.2373963,58.8564364 73.0354309,58.9823627 C73.8357543,59.1090521 74.584198,58.5633715 74.7108459,57.7643117 C74.8939514,56.6019736 75.3929139,55.5121385 76.1535645,54.6138641 C77.3773193,53.1676194 79.1656494,52.338032 81.0600281,52.338032 C82.9544066,52.338032 84.7427367,53.1676194 85.9664918,54.6138641 C87.2505188,56.1310855 87.763977,58.1962773 87.3405457,60.1385954 L85.1158143,70.3401538 L77.004242,70.3401538 L75.6378174,64.0728388 C75.465393,63.2829374 74.6864318,62.7822849 73.8952637,62.9540026 C73.1048584,63.1264834 72.6043701,63.9072266 72.7767945,64.6971281 L74.0638732,70.6004015 C72.9881287,71.0751055 72.2343445,72.1504399 72.2343445,73.3997818 L72.2343445,78.2880126 L66.7022705,78.2880126 C64.175415,78.2880126 62.1192932,80.3440459 62.1192932,82.8717306 L62.1192932,86.603729 C62.1192932,89.1314137 64.175415,91.187447 66.7022705,91.187447 L66.7800902,91.187447 L67.6689148,95.1331385 C67.8276063,95.8367996 68.0984496,96.4878005 68.4608459,97.0701144 L4.86373906,97.0701144 C3.79638672,97.0701144 2.92816172,96.2016043 2.92816172,95.1339017 L2.92816172,27.2985369 C2.92816172,26.4895557 2.27279668,25.8339756 1.46408086,25.8339756 C0.655365039,25.8339756 0,26.4895557 0,27.2985369 L0,95.1339017 C0,97.8165139 2.18200684,100 4.86373906,100 L88.3911133,99.9809203 C91.316223,99.9809203 93.8087463,97.9874685 94.4511414,95.1331385 L95.3399658,91.187447 L95.4177855,91.187447 C97.9438781,91.187447 100,89.1314137 100,86.603729 L100,82.8717306 C100,80.3440459 97.9438781,78.2880126 95.4177855,78.2880126 L95.4177855,78.2880126 Z M75.1625061,73.3997818 C75.1625061,73.3280419 75.2212523,73.2692763 75.2929688,73.2692763 L86.8270875,73.2692763 C86.8988037,73.2692763 86.9567871,73.3280419 86.9567871,73.3997818 L86.9567871,78.2880126 L75.1625061,78.2880126 L75.1625061,73.3997818 Z M91.5946961,94.4890063 C91.254425,95.9985957 89.9375916,97.0517978 88.3911133,97.0517978 L73.728943,97.0517978 C72.1824646,97.0517978 70.8656311,95.9985957 70.5253602,94.4890063 L69.782257,91.187447 L92.337799,91.187447 L91.5946961,94.4890063 Z M97.0718383,86.603729 C97.0718383,87.5157409 96.3294982,88.2583245 95.4177855,88.2583245 L66.7022705,88.2583245 C65.7905578,88.2583245 65.0482178,87.5157409 65.0482178,86.603729 L65.0482178,82.8717306 C65.0482178,81.9589558 65.7905578,81.2171351 66.7022705,81.2171351 L95.4177855,81.2171351 C96.3302613,81.2171351 97.0718383,81.9589558 97.0718383,82.8717306 L97.0718383,86.603729 Z" id="Shape"></path>
                </g>
            </g>
        </g>
    </g>
</svg>