<?xml version="1.0" encoding="UTF-8"?>
<svg width="104px" height="105px" viewBox="0 0 104 105" version="1.1" xmlns="http://www.w3.org/2000/svg" xmlns:xlink="http://www.w3.org/1999/xlink">
    <!-- Generator: sketchtool 61.2 (101010) - https://sketch.com -->
    <title>640CDAB4-A002-4713-935A-3A2EE3112A71</title>
    <desc>Created with sketchtool.</desc>
    <defs>
        <path d="M96.1869565,40.8925987 C96.2050725,41.0690446 96.2253623,41.2353248 96.2434783,41.4124968 C96.8137681,47.0856306 97.073913,45.5673248 96.1869565,40.8925987 Z M11.5195652,17.0898344 C11.5195652,17.0898344 16.023913,12.9270191 19.2413043,9.85918471 C19.2413043,9.85918471 14.9514493,12.2691592 11.5195652,17.0898344 Z M10.3195652,72.3435287 C12.8710145,77.4996688 15.3811594,80.8550446 15.3811594,80.8550446 C15.3811594,80.8550446 12.9891304,77.2397197 10.3195652,72.3435287 Z M93.8847826,22.7876561 L93.0463768,20.3391975 L100.533333,23.0069427 L93.2891304,19.2856051 L100.645652,14.9122166 L92.5608696,18.2327389 L93.8550725,10.1329299 L91.2304348,17.9575414 L89.3282609,17.4187643 C85.3391304,11.4755159 79.8557971,8.5006242 72.9594203,5.18591083 C60.1384058,-0.978802548 43.05,0.655681529 43.05,0.655681529 C43.05,0.655681529 63.223913,0.913452229 78.6557971,10.0784713 C81.8427536,11.9714522 84.4992754,14.5970828 86.7057971,17.5632611 L83.3746377,17.7469682 L87.1913043,18.2349172 C87.5521739,18.7439236 87.8992754,19.2601911 88.234058,19.7844459 L83.8028986,22.3490828 L88.5826087,20.3391975 C89.0753623,21.1379236 89.5434783,21.951172 89.9833333,22.7738599 L88.0927536,28.7040382 L90.3275362,23.4266369 C93.6391304,29.8447643 95.3833333,36.6615287 96.1869565,40.8925987 C95.2601449,32.0369045 93.6427536,25.7247898 91.357971,20.9890701 L91.5253623,20.596242 C91.5253623,20.596242 99.8898551,31.552586 98.3884058,49.5210191 C96.8876812,67.4894522 92.5971014,73.8444076 88.3072464,78.2265096 L88.0927536,76.0350955 C88.0927536,76.0350955 81.8731884,94.6613885 50.9862319,94.2228153 C20.0992754,93.7835159 17.7398551,83.7050446 17.7398551,83.7050446 L16.023913,82.827172 C16.023913,82.827172 8.73188406,77.1315287 4.22681159,62.0109172 C-0.277536232,46.8910318 4.01231884,34.6204204 4.01231884,34.6204204 C4.01231884,34.6204204 1.65289855,44.6996178 3.36884058,54.998828 C4.25797101,60.3357707 7.44927536,67.0799236 10.3195652,72.3435287 C8.21231884,68.0863185 6.07608696,62.6005223 5.29927536,56.7516688 C3.58333333,43.8239236 4.01231884,35.0582675 6.15652174,28.4847516 C8.30217391,21.9119618 9.5884058,19.0619618 9.5884058,19.0619618 C9.5884058,19.0619618 0.580434783,29.5804586 0.365942029,51.9317197 C0.151449275,74.2829809 19.026087,89.6207006 27.3913043,92.9078217 C35.7572464,96.1942166 62.1391304,100.577045 78.0115942,89.4021401 C93.8847826,78.2265096 92.8115942,75.3779618 97.9594203,65.0787516 C103.107971,54.7795414 100.962319,33.9625605 93.8847826,22.7876561 Z M90.1268116,18.6880127 C90.1101449,18.6596943 90.0942029,18.6313758 90.0775362,18.6037834 L90.2369565,18.6241146 L90.1268116,18.6880127 Z M90.8652174,20.0080892 C90.7746377,19.836 90.6847826,19.6610064 90.5927536,19.494 L91.0963768,19.2819745 L90.8652174,20.0080892 Z M15.3811594,19.0619618 C16.6673913,16.8705478 23.3166667,12.9270191 23.3166667,12.9270191 C23.3166667,12.9270191 19.6702899,15.1184331 15.5949275,19.9391083 C11.5195652,24.7597834 17.0963768,19.500535 24.6036232,14.4605732 C32.1108696,9.42133758 42.6202899,9.85918471 42.6202899,9.85918471 C42.6202899,9.85918471 39.1891304,7.22992357 26.1050725,11.393465 L38.7601449,5.91565605 C38.7601449,5.91565605 19.4565217,10.0784713 13.8789855,17.9669809 C8.30217391,25.8547643 14.0934783,21.2541019 15.3811594,19.0619618 Z M79.9478261,18.3692484 C82.3144928,20.8322293 84.0181159,23.0069427 84.0181159,23.0069427 C84.0181159,23.0069427 83.3210145,20.7915669 79.9478261,18.3692484 Z M6.58623188,50.6167261 C8.94565217,73.8436815 18.8123188,83.7050446 18.8123188,83.7050446 C18.8123188,83.7050446 26.3188406,91.1549809 49.6992754,92.2506879 C73.0782609,93.3463949 80.5862319,84.1428917 81.2297101,82.6093376 C81.8731884,81.0757834 78.226087,83.485758 77.1543478,83.0471847 C76.0811594,82.6093376 80.5862319,74.5008153 80.5862319,74.5008153 C78.2268116,83.2664713 81.8731884,73.1865478 84.2318841,74.2829809 C86.5913043,75.3772357 79.5137681,78.2265096 81.8731884,80.4179236 C84.2326087,82.6093376 89.1652174,67.0516051 92.3826087,60.0387898 C95.6014493,53.0274268 94.5282609,45.796051 94.3130435,41.1939363 C94.0992754,36.5925478 93.0268116,34.6204204 93.0268116,34.6204204 L92.3826087,45.5774904 C92.3826087,45.5774904 92.8123188,47.1103185 89.3797101,39.4403694 L86.5913043,31.9911592 C84.6608696,66.1751847 76.9391304,79.1036561 76.9391304,79.1036561 C76.9391304,79.1036561 74.1507246,87.6485732 51.6289855,87.868586 C29.107971,88.0871465 25.8905797,82.1700382 25.8905797,82.1700382 C18.5978261,72.529414 14.307971,51.9317197 15.3811594,38.3461146 C16.4528986,24.7605096 15.3811594,21.0348153 25.0326087,16.8705478 C34.6847826,12.7084586 49.2695652,12.2691592 49.2695652,12.2691592 C66.7884058,11.7761274 75.5956522,15.2447771 79.9478261,18.3692484 C79.4043478,17.8050573 78.8268116,17.2241656 78.226087,16.6527134 C75.0086957,13.584879 45.1942029,7.22992357 29.5369565,13.3648662 C13.8789855,19.500535 12.8057971,25.4169172 13.8789855,43.3853503 C14.9514493,61.3537834 20.5282609,76.2543822 24.3891304,81.9514777 C28.25,87.6485732 41.9775362,89.4021401 41.9775362,89.4021401 C23.3166667,88.9635669 21.1717391,79.1036561 20.0992754,77.3493631 C19.0268116,75.5965223 15.8086957,72.0901146 15.165942,74.9393885 C14.5224638,77.7879363 8.75507246,60.369172 9.82826087,59.4927516 C10.9,58.6156051 17.5253623,68.3658726 17.5253623,68.3658726 C17.5253623,68.3658726 15.165942,63.5451975 12.8057971,49.9595924 C10.4471014,36.3739873 14.0934783,29.5804586 11.7333333,29.1426115 C9.37463768,28.7040382 14.6673913,49.1891847 7.91014493,50.1004586 C5.98478261,50.3596815 7.58333333,31.9824459 8.44130435,28.2574777 C9.29927536,24.5317834 10.2326087,23.4447898 10.2326087,23.4447898 C10.2326087,23.4447898 4.22681159,27.3897707 6.58623188,50.6167261 L6.58623188,50.6167261 Z" id="path-1"></path>
        <path d="M53.5963768,69.4027643 C53.9884058,69.2386624 54.3688406,69.065121 54.7391304,68.8806879 L55.2471014,1.90605096 C54.7768116,1.77607643 54.2927536,1.65481529 53.7963768,1.54226752 L53.5963768,69.4027643 Z M44.9101449,0.378305732 C44.8369565,10.5214013 44.5608696,46.0175159 44.0905797,71.4838089 C45.1855072,71.3814268 46.226087,71.2536306 47.2188406,71.098242 C46.7644928,44.9944204 46.5594203,9.24126115 46.5144928,0.490853503 C45.9891304,0.448012739 45.4536232,0.410980892 44.9101449,0.378305732 Z M47.2514493,0.556929936 L48.0231884,70.9639108 C48.3884058,70.9000127 48.7492754,70.831758 49.1014493,70.7576943 C48.8369565,44.884051 48.7275362,9.75026752 48.7021739,0.699974522 C48.2297101,0.646968153 47.742029,0.60122293 47.2514493,0.556929936 Z M51.734058,70.078051 C52.1217391,69.9567898 52.5007246,69.8275414 52.8710145,69.6895796 L53.0724638,1.38179618 C52.6,1.28522293 52.1123188,1.19663694 51.6173913,1.11313376 C51.6362319,11.6192866 51.7028986,51.141707 51.734058,70.078051 Z M34.6782609,0.15611465 C34.4471014,0.158292994 34.2268116,0.162649682 33.9978261,0.164828025 L34.7826087,71.8940637 C35.1478261,71.889707 35.5072464,71.8846242 35.8630435,71.8788153 C35.5862319,46.1997707 35.4710145,10.0457962 35.4434783,0.15466242 C35.1869565,0.15611465 34.9384058,0.15466242 34.6782609,0.15611465 Z M36.1782609,0.153286849 L36.6311594,71.8650191 C37.0036232,71.857758 37.3724638,71.8483185 37.7362319,71.8381529 C37.6485507,46.1649172 37.6326087,10.0443439 37.6304348,0.155388535 C37.1536232,0.152484076 36.6652174,0.153286849 36.1782609,0.153286849 Z M55.515942,68.4668025 C55.8949275,68.2525987 56.2630435,68.0253248 56.6181159,67.7835287 L57.4144928,2.59658599 C56.9507246,2.42522293 56.4753623,2.26112102 55.9811594,2.1115414 C55.9318841,12.6329427 55.7695652,44.0686242 55.515942,68.4668025 Z M60.5398551,4.05026752 L61.1855072,63.0267516 C61.5644928,62.4378726 61.923913,61.8105096 62.265942,61.1424841 C62.092029,39.7881783 62.0043478,15.6775414 61.9724638,5.01382166 C61.5181159,4.67327389 61.0449275,4.34724841 60.5398551,4.05026752 Z M64.9652174,53.7738726 C65.4144928,52.0805732 65.8217391,50.2318854 66.1971014,48.2096561 L66.3086957,10.4538726 C65.892029,9.56075159 65.4195652,8.74169427 64.8884058,7.99815287 C64.9057971,18.7758726 64.9384058,37.8073376 64.9652174,53.7738726 Z M42.7253623,0.267210191 C42.6789855,10.2803312 42.4985507,46.0654395 42.2115942,71.6348408 C42.5797101,71.6101529 42.9442029,71.5832866 43.3014493,71.554242 L44.1702899,0.334738854 C43.6963768,0.309324841 43.2137681,0.287541401 42.7253623,0.267210191 Z M67.0275362,12.2335796 L66.9347826,43.7455032 C67.2876812,41.3529554 67.6130435,38.7636306 67.9181159,35.9499363 C68.065942,34.5899236 68.1826087,33.2996178 68.2855072,32.0419873 L68.3862319,18.8136306 C68.1318841,16.2925605 67.6797101,14.1149427 67.0275362,12.2335796 Z M63.9181159,6.77247134 C63.5463768,6.36149045 63.1427536,5.98100637 62.7210145,5.61649682 L63.0601449,59.4491847 C63.4695652,58.4928917 63.8514493,57.462535 64.2094203,56.3544841 C64.1702899,37.5778854 64.1557971,17.6344204 64.1514493,7.05783439 C64.0724638,6.96489172 63.9992754,6.86323567 63.9181159,6.77247134 Z M13.8086957,69.1972739 C14.1717391,69.3831592 14.5456522,69.5574268 14.9311594,69.7200764 L15.4478261,1.63521019 C14.957971,1.73904459 14.4731884,1.84433121 14.0072464,1.96123567 L13.8086957,69.1972739 Z M38.4782609,71.8170955 C38.857971,71.8047516 39.2326087,71.7909554 39.6014493,71.7764331 L39.8123188,0.179350318 C39.3384058,0.170636943 38.8449275,0.167732484 38.357971,0.163375796 C38.376087,11.1625605 38.4492754,54.2088153 38.4782609,71.8170955 Z M40.326087,71.743758 C40.7065217,71.724879 41.0818841,71.706 41.4507246,71.6842166 L41.9927536,0.238165605 C41.515942,0.222191083 41.0268116,0.209847134 40.5369565,0.198229299 L40.326087,71.743758 Z M49.4362319,0.792191083 L49.8768116,70.5863312 C50.2565217,70.4970191 50.6253623,70.3997197 50.9884058,70.2987898 C50.9072464,44.7460892 50.892029,10.4262803 50.8898551,0.986789809 C50.4173913,0.914904459 49.926087,0.853910828 49.4362319,0.792191083 Z M2.63478261,47.3245223 C2.97101449,49.2755924 3.32971014,51.0763567 3.71666667,52.7348025 L4.27246377,7.26332484 C3.76086957,7.85728662 3.29855072,8.49844586 2.88623188,9.19769427 C2.83188406,19.2892357 2.74710145,33.402 2.63478261,47.3245223 Z M0.655797101,31.9497707 C0.802898551,33.5740892 0.981884058,35.2877197 1.19565217,37.1088153 C1.41376812,38.969121 1.6384058,40.7270446 1.87173913,42.3963822 L2.11231884,10.7072866 C1.49057971,12.1065096 1.02318841,13.711949 0.704347826,15.5751592 L0.655797101,31.9497707 Z M5.0615942,6.44499363 C4.96304348,18.5246369 4.78188406,38.0709172 4.52101449,55.8353121 C5.32753623,58.6192357 6.25362319,60.9340892 7.35,62.8524841 C7.03478261,42.4675414 6.8557971,18.081707 6.77608696,5.03270064 C6.15507246,5.46401274 5.58550725,5.93598726 5.0615942,6.44499363 Z M58.157971,2.88921019 C58.0775362,13.9130828 57.8369565,43.5625223 57.442029,67.1859363 C58.5152174,66.3516306 59.4804348,65.3684713 60.3536232,64.2175796 C60.0144928,41.1968408 59.8427536,13.9428535 59.7862319,3.64945223 C59.2673913,3.37715924 58.726087,3.12301911 58.157971,2.88921019 Z M7.54565217,4.52659873 L8.19927536,64.2095924 C8.55,64.7207771 8.91521739,65.2007389 9.29855072,65.6480255 C9.08913043,44.0766115 8.9826087,17.011414 8.93985507,3.76127389 C8.45289855,4.00016561 7.98913043,4.25575796 7.54565217,4.52659873 Z M9.68985507,3.42 L10.0884058,66.5004841 C10.4478261,66.8591847 10.8210145,67.196828 11.2086957,67.5119618 C11.1376812,45.1599745 11.1166667,16.1001401 11.1108696,2.84854777 C10.6195652,3.02717197 10.1463768,3.21814013 9.68985507,3.42 Z M31.6442029,0.196050955 C31.5623188,11.4457452 31.2797101,46.949121 30.8043478,71.9064076 C31.8275362,71.9143949 32.8891304,71.9110432 33.9898551,71.902051 C33.5231884,46.2375287 33.3094203,10.0944459 33.257971,0.173541401 C32.715942,0.180076433 32.1724638,0.186611465 31.6442029,0.196050955 Z M20.7550725,0.816152866 L21.5282609,71.3821529 C21.8826087,71.4293503 22.2413043,71.4743694 22.6094203,71.5135796 C22.3398551,46.917172 22.2217391,12.3417707 22.1876812,0.666573248 C21.6985507,0.710866242 21.2275362,0.764598726 20.7550725,0.816152866 Z M11.9550725,68.076879 C12.3195652,68.3346497 12.6956522,68.577172 13.0855072,68.8029936 L13.2818841,2.16236943 C12.7898551,2.29670064 12.3086957,2.43829299 11.8449275,2.59150318 C11.8695652,17.2241656 11.9275362,51.4256178 11.9550725,68.076879 Z M29.4608696,0.250509554 C29.407971,11.5532102 29.2253623,46.9658217 28.9384058,71.8817197 C29.2956522,71.8889809 29.657971,71.8955159 30.0253623,71.8991465 L30.9007246,0.214929936 C30.4188406,0.225095541 29.9326087,0.235261146 29.4608696,0.250509554 Z M16.1905797,1.4870828 C16.1268116,14.4634777 15.9536232,46.5969554 15.6891304,70.0170573 C16.042029,70.147758 16.4014493,70.2711975 16.7724638,70.3859236 L17.6173913,1.23076433 C17.1297101,1.30991083 16.657971,1.39704459 16.1905797,1.4870828 Z M18.3710145,1.1203949 C18.2746377,13.9573758 17.9985507,46.9193503 17.5514493,70.6088408 C18.5471014,70.8767771 19.6072464,71.0938854 20.7355072,71.2681529 C20.2884058,46.8481911 20.0717391,12.7512994 20.0065217,0.896751592 C19.4471014,0.964280255 18.9065217,1.04197452 18.3710145,1.1203949 Z M27.0637681,71.826535 C27.4304348,71.8410573 27.8043478,71.8526752 28.1818841,71.8628408 L28.7253623,0.275923567 C28.2355072,0.293350318 27.7521739,0.312229299 27.2746377,0.333286624 L27.0637681,71.826535 Z M25.2195652,71.7335924 C25.5862319,71.7561019 25.9608696,71.7764331 26.3391304,71.7938599 L26.55,0.365961783 C26.0572464,0.389923567 25.5789855,0.420420382 25.1,0.449464968 C25.1217391,13.3169427 25.192029,55.2718471 25.2195652,71.7335924 Z M22.926087,0.607031847 L23.3746377,71.5912739 C23.7369565,71.6246752 24.1050725,71.655172 24.4797101,71.6827643 C24.392029,46.9563822 24.373913,12.0251847 24.3695652,0.492305732 C23.8768116,0.525707006 23.4043478,0.567095541 22.926087,0.607031847 L22.926087,0.607031847 Z" id="path-3"></path>
        <radialGradient cx="59.7174434%" cy="34.4018645%" fx="59.7174434%" fy="34.4018645%" r="35.6211759%" gradientTransform="translate(0.597174,0.344019),scale(1.000000,0.943876),rotate(130.244339),translate(-0.597174,-0.344019)" id="radialGradient-5">
            <stop stop-color="#D8232A" offset="0%"></stop>
            <stop stop-color="#842124" offset="100%"></stop>
        </radialGradient>
        <path d="M15.123913,41.4909172 L21.7746377,41.4909172 L21.7746377,0.356522293 L15.123913,0.356522293 L15.123913,41.4909172 Z M0.675362319,41.4909172 L7.32608696,41.4909172 L7.32608696,22.876242 L12.142029,22.876242 L12.142029,17.5915796 L7.32608696,17.5915796 L7.32608696,5.64118471 L12.8304348,5.64118471 L12.8304348,0.355796178 L0.675362319,0.355796178 L0.675362319,41.4909172 Z M41.0384058,0.355796178 L41.0384058,5.64118471 L45.1681159,5.64118471 L45.1681159,41.4909172 L51.8188406,41.4909172 L51.8188406,5.64118471 L56.4028986,5.64118471 L56.4028986,0.355796178 L41.0384058,0.355796178 Z M37.1391304,0.355796178 L24.5268116,0.355796178 L24.5268116,41.4909172 L31.1775362,41.4909172 L31.1775362,22.876242 L36.3905797,22.876242 C36.3905797,22.876242 36.6652174,24.1919618 36.6789855,26.0951083 C36.6949275,27.9982548 36.6789855,41.4909172 36.6789855,41.4909172 L42.5666667,41.4909172 L42.5666667,26.0951083 C42.5666667,26.0951083 42.5666667,19.0256561 41.2094203,12.3512102 C39.8521739,5.67603822 37.1391304,0.355796178 37.1391304,0.355796178 Z M35.9166667,17.5915796 L31.1775362,17.5915796 L31.1775362,5.64118471 L32.4956522,5.64118471 C32.4956522,5.64118471 34.3818841,8.10634395 35.1717391,12.0622166 C35.9615942,16.0180892 35.9166667,17.5915796 35.9166667,17.5915796 L35.9166667,17.5915796 Z" id="path-6"></path>
        <radialGradient cx="52.1013211%" cy="27.5730349%" fx="52.1013211%" fy="27.5730349%" r="116.481907%" gradientTransform="translate(0.521013,0.275730),scale(0.738147,1.000000),rotate(140.470213),translate(-0.521013,-0.275730)" id="radialGradient-8">
            <stop stop-color="#FFFFFE" offset="0%"></stop>
            <stop stop-color="#5A5B5A" offset="100%"></stop>
        </radialGradient>
    </defs>
    <g id="Style-Guide" stroke="none" stroke-width="1" fill="none" fill-rule="evenodd">
        <g id="Style-Guide-" transform="translate(-316.000000, -2891.000000)">
            <g id="Fiat_2007_Punto" transform="translate(293.000000, 2885.000000)">
                <path d="M126.937681,58.1291083 C126.937681,86.8178981 103.728986,110.073172 75.1,110.073172 C46.4702899,110.073172 23.2615942,86.8178981 23.2615942,58.1291083 C23.2615942,29.4417707 46.4702899,6.1857707 75.1,6.1857707 C103.728986,6.1857707 126.937681,29.4417707 126.937681,58.1291083" id="Fill-4" fill="#1A1919"></path>
                <path d="M125.119565,58.1291083 C125.119565,85.8115032 102.724638,108.250624 75.1,108.250624 C47.4746377,108.250624 25.0797101,85.8115032 25.0797101,58.1291083 C25.0797101,30.4481656 47.4746377,8.00759236 75.1,8.00759236 C102.724638,8.00759236 125.119565,30.4481656 125.119565,58.1291083" id="Fill-5" fill="#B4B5B4"></path>
                <path d="M34.8702899,32.8842803 C34.8702899,32.9263949 29.3210145,33.7715924 29.3260835,33.7977325 C29.3536232,33.9356943 29.0391304,62.4044713 34.1072464,60.9725732 C37.4434783,59.3990828 35.6485507,40.8490318 35.6485507,43.3432357 C35.6485507,46.8213248 35.9855072,52.5256815 37.3166667,61.483758 C38.8173913,71.5752994 38.1855072,72.8329299 38.8855072,75.005465 C37.2572464,73.4210828 34.7246377,72.7087643 34.7246377,72.7087643 L38.315942,84.8711847 L40.9601449,84.0702803 C40.9601449,84.0702803 40.9985507,84.0274395 41.0333333,83.9882293 C41.1043478,83.9875032 43.6456522,84.1770191 45.3905797,87.3784586 C55.4927536,105.904548 82.0884058,98.7806369 75.1268116,99.1821783 L86.0862319,97.8599236 C53.9891304,103.363146 47.9681159,88.533707 46.3543478,85.5733376 C45.0195652,83.124879 41.8224638,83.2773631 41.0478261,83.2621146 C40.8536232,83.2584841 40.7166667,83.3318217 40.6094203,83.4189554 C40.5173913,83.4465478 39.2768116,83.8226752 38.8,83.9664459 C38.6326087,83.3993503 45.4456522,84.3563694 44.8717391,82.4118344 C46.2652174,83.7682166 41.4057971,80.2167898 41.4057971,80.2167898 L41.4086957,80.2131592 C41.4413043,80.2451083 41.4710145,80.2676178 41.4942029,80.2792357 L43.9195652,79.8726115 C43.9195652,79.8726115 41.8731884,79.6620382 41.8724638,79.6620382 C41.7463768,79.5066497 42.4202899,78.7013885 40.0144928,62.5199236 C38.692029,53.6279236 38.9586957,46.7065987 38.9586957,43.2619108 C38.9586957,39.9246879 38.7405797,39.6887006 38.7471014,39.6647389 L36.7913043,38.3845987 L36.415942,38.3083567 C35.8768116,38.1987134 35.3427536,38.0258981 35.1115942,37.8966497 C35.2311594,37.7180255 35.3007246,37.4791338 35.3007246,37.0848535 C35.3007246,36.7043694 35.2601449,36.2069809 35.2072464,35.5643694 C35.1369565,34.706828 35.1717391,31.6317325 35.0536232,32.6584586 C28.8210145,86.8563822 37.4478261,26.5924968 36.3884058,27.7506497 L36.9942029,27.062293 C39.9297101,23.6669809 50.1847826,15.7370828 76.6463768,15.1162548 C104.628261,14.4598471 104.755797,24.7016943 104.85,24.8512739 L112.099275,28.449172 C112.003623,28.2952357 102.588406,12.6365732 74.1710145,13.3031465 C47.3927536,13.9319618 39.4442029,23.1238471 36.4514493,26.5837834 L35.8594203,27.2576178 C34.6297101,28.6023822 33.2181159,28.614 33.2181159,30.5948408 C33.2181159,31.6527898 32.0347826,33.0621783 32.1065217,33.9364204 C32.1507246,34.4744713 34.5818841,36.7472102 34.5818841,37.1327771 C34.5818841,37.322293 34.5710145,37.4646115 34.5413043,37.5270573 C34.3528986,37.638879 34.8702899,32.7601146 34.8702899,32.8842803 Z M111.392029,30.2768025 C110.781884,30.5403822 110.873913,31.5322548 111.000725,32.9046115 C111.094928,33.9284331 111.202174,35.0880382 111.001449,35.8969299 L111.700725,36.0741019 C111.931159,35.143949 111.816667,33.9189936 111.717391,32.8378089 C111.653623,32.1494522 111.557246,31.1096561 111.702899,30.9252229 C111.72029,30.9491847 111.922464,38.6706879 113.50942,40.5113885 C116.034058,43.440535 114.776087,41.7552229 114.776087,46.8598089 C114.776087,49.3757962 116.653623,52.3085732 116.578986,53.3352994 C115.644928,52.1481019 115.377536,49.0940637 115.139855,46.3551592 C114.862319,43.1660637 114.623913,40.4126369 113.49058,39.4977325 C113.176812,39.2435924 112.004348,39.2515796 112.408696,39.1963949 C119.430435,38.253172 109.697826,31.7442803 110.369565,36.1982675 C110.597826,37.7194777 109.855072,32.7818981 108.776087,31.1016688 C105.473188,25.9506115 98.6311594,19.9332994 74.8565217,19.1062548 C53.0623188,18.3481911 42.2601449,27.3113503 39.484058,30.0466242 C39.4876812,30.0408153 39.8449275,29.4228917 39.8449275,29.4228917 L36.7376812,27.5938089 L35.3014493,36.5264713 L36.4311594,38.0455032 C36.4311594,38.0455032 39.2644928,31.375414 39.3086957,31.2708535 C39.6905797,30.8192102 50.0181159,18.9690191 74.8311594,19.8316433 C101.281159,20.7516306 106.110145,28.2807134 108.171739,31.495949 C109.165217,33.0462038 109.427536,34.7779873 109.657971,36.3064586 C109.96087,38.3192484 110.248551,40.2202166 112.504348,39.9167006 C112.71087,39.8891083 112.881884,39.9355796 113.04058,40.0641019 C113.934058,40.7858599 114.181884,43.6489299 114.421739,46.4183312 C114.74058,50.0815796 115.041304,53.5407898 116.721014,54.3888917 L117.19058,54.624879 L117.24058,54.099172 C117.303623,53.4267898 118.751449,37.5909554 114.276812,32.3992357 C112.515942,30.3552229 111.866667,30.0720382 111.392029,30.2768025 Z M120.95942,43.4035032 C120.55,41.4930955 119.897826,39.4091465 118.931159,37.2896178 C119.43913,38.4630191 120.25,40.5556815 120.95942,43.4035032 Z M118.931159,37.2896178 C118.806522,37.0020764 118.695652,36.7544713 118.614493,36.5823822 C118.730435,36.8190955 118.823913,37.0529045 118.931159,37.2896178 Z M116.676812,32.0463439 C122.589855,37.7601401 121.528261,52.5024459 121.528261,52.5024459 L118.652174,49.1536051 L118.652174,63.4384586 L116.66087,67.4553248 C113.12029,86.4272484 104.713043,103.167096 71.7456522,102.274701 C38.7789855,101.38158 33.6905797,83.7493376 30.5927536,67.0094904 C27.4949275,50.2696433 31.9202899,31.9679236 31.9202899,31.9679236 C22.1847826,60.9827389 33.6905797,82.8562166 33.6905797,82.8562166 C33.6905797,82.8562166 39.2217391,103.390013 73.2949275,103.167096 C107.368116,102.944178 112.678261,83.9729809 112.678261,83.9729809 L113.297826,88.7609809 C113.297826,88.7609809 121.212319,81.5063694 123.645652,66.329121 C124.878261,58.6446497 120.113043,35.3661401 116.676812,32.0463439 Z M118.614493,36.5823822 C118.499275,36.3413121 118.430435,36.2084331 118.430435,36.2084331 C118.494203,36.3333248 118.552899,36.4582166 118.614493,36.5823822 L118.614493,36.5823822 Z" id="Fill-6" fill="#1A1919"></path>
                <g id="Group-9" transform="translate(24.637681, 9.439490)">
                    <mask id="mask-2" fill="white">
                        <use xlink:href="#path-1"></use>
                    </mask>
                    <g id="Clip-8"></g>
                    <path d="M96.1869565,40.8925987 C96.2050725,41.0690446 96.2253623,41.2353248 96.2434783,41.4124968 C96.8137681,47.0856306 97.073913,45.5673248 96.1869565,40.8925987 Z M11.5195652,17.0898344 C11.5195652,17.0898344 16.023913,12.9270191 19.2413043,9.85918471 C19.2413043,9.85918471 14.9514493,12.2691592 11.5195652,17.0898344 Z M10.3195652,72.3435287 C12.8710145,77.4996688 15.3811594,80.8550446 15.3811594,80.8550446 C15.3811594,80.8550446 12.9891304,77.2397197 10.3195652,72.3435287 Z M93.8847826,22.7876561 L93.0463768,20.3391975 L100.533333,23.0069427 L93.2891304,19.2856051 L100.645652,14.9122166 L92.5608696,18.2327389 L93.8550725,10.1329299 L91.2304348,17.9575414 L89.3282609,17.4187643 C85.3391304,11.4755159 79.8557971,8.5006242 72.9594203,5.18591083 C60.1384058,-0.978802548 43.05,0.655681529 43.05,0.655681529 C43.05,0.655681529 63.223913,0.913452229 78.6557971,10.0784713 C81.8427536,11.9714522 84.4992754,14.5970828 86.7057971,17.5632611 L83.3746377,17.7469682 L87.1913043,18.2349172 C87.5521739,18.7439236 87.8992754,19.2601911 88.234058,19.7844459 L83.8028986,22.3490828 L88.5826087,20.3391975 C89.0753623,21.1379236 89.5434783,21.951172 89.9833333,22.7738599 L88.0927536,28.7040382 L90.3275362,23.4266369 C93.6391304,29.8447643 95.3833333,36.6615287 96.1869565,40.8925987 C95.2601449,32.0369045 93.6427536,25.7247898 91.357971,20.9890701 L91.5253623,20.596242 C91.5253623,20.596242 99.8898551,31.552586 98.3884058,49.5210191 C96.8876812,67.4894522 92.5971014,73.8444076 88.3072464,78.2265096 L88.0927536,76.0350955 C88.0927536,76.0350955 81.8731884,94.6613885 50.9862319,94.2228153 C20.0992754,93.7835159 17.7398551,83.7050446 17.7398551,83.7050446 L16.023913,82.827172 C16.023913,82.827172 8.73188406,77.1315287 4.22681159,62.0109172 C-0.277536232,46.8910318 4.01231884,34.6204204 4.01231884,34.6204204 C4.01231884,34.6204204 1.65289855,44.6996178 3.36884058,54.998828 C4.25797101,60.3357707 7.44927536,67.0799236 10.3195652,72.3435287 C8.21231884,68.0863185 6.07608696,62.6005223 5.29927536,56.7516688 C3.58333333,43.8239236 4.01231884,35.0582675 6.15652174,28.4847516 C8.30217391,21.9119618 9.5884058,19.0619618 9.5884058,19.0619618 C9.5884058,19.0619618 0.580434783,29.5804586 0.365942029,51.9317197 C0.151449275,74.2829809 19.026087,89.6207006 27.3913043,92.9078217 C35.7572464,96.1942166 62.1391304,100.577045 78.0115942,89.4021401 C93.8847826,78.2265096 92.8115942,75.3779618 97.9594203,65.0787516 C103.107971,54.7795414 100.962319,33.9625605 93.8847826,22.7876561 Z M90.1268116,18.6880127 C90.1101449,18.6596943 90.0942029,18.6313758 90.0775362,18.6037834 L90.2369565,18.6241146 L90.1268116,18.6880127 Z M90.8652174,20.0080892 C90.7746377,19.836 90.6847826,19.6610064 90.5927536,19.494 L91.0963768,19.2819745 L90.8652174,20.0080892 Z M15.3811594,19.0619618 C16.6673913,16.8705478 23.3166667,12.9270191 23.3166667,12.9270191 C23.3166667,12.9270191 19.6702899,15.1184331 15.5949275,19.9391083 C11.5195652,24.7597834 17.0963768,19.500535 24.6036232,14.4605732 C32.1108696,9.42133758 42.6202899,9.85918471 42.6202899,9.85918471 C42.6202899,9.85918471 39.1891304,7.22992357 26.1050725,11.393465 L38.7601449,5.91565605 C38.7601449,5.91565605 19.4565217,10.0784713 13.8789855,17.9669809 C8.30217391,25.8547643 14.0934783,21.2541019 15.3811594,19.0619618 Z M79.9478261,18.3692484 C82.3144928,20.8322293 84.0181159,23.0069427 84.0181159,23.0069427 C84.0181159,23.0069427 83.3210145,20.7915669 79.9478261,18.3692484 Z M6.58623188,50.6167261 C8.94565217,73.8436815 18.8123188,83.7050446 18.8123188,83.7050446 C18.8123188,83.7050446 26.3188406,91.1549809 49.6992754,92.2506879 C73.0782609,93.3463949 80.5862319,84.1428917 81.2297101,82.6093376 C81.8731884,81.0757834 78.226087,83.485758 77.1543478,83.0471847 C76.0811594,82.6093376 80.5862319,74.5008153 80.5862319,74.5008153 C78.2268116,83.2664713 81.8731884,73.1865478 84.2318841,74.2829809 C86.5913043,75.3772357 79.5137681,78.2265096 81.8731884,80.4179236 C84.2326087,82.6093376 89.1652174,67.0516051 92.3826087,60.0387898 C95.6014493,53.0274268 94.5282609,45.796051 94.3130435,41.1939363 C94.0992754,36.5925478 93.0268116,34.6204204 93.0268116,34.6204204 L92.3826087,45.5774904 C92.3826087,45.5774904 92.8123188,47.1103185 89.3797101,39.4403694 L86.5913043,31.9911592 C84.6608696,66.1751847 76.9391304,79.1036561 76.9391304,79.1036561 C76.9391304,79.1036561 74.1507246,87.6485732 51.6289855,87.868586 C29.107971,88.0871465 25.8905797,82.1700382 25.8905797,82.1700382 C18.5978261,72.529414 14.307971,51.9317197 15.3811594,38.3461146 C16.4528986,24.7605096 15.3811594,21.0348153 25.0326087,16.8705478 C34.6847826,12.7084586 49.2695652,12.2691592 49.2695652,12.2691592 C66.7884058,11.7761274 75.5956522,15.2447771 79.9478261,18.3692484 C79.4043478,17.8050573 78.8268116,17.2241656 78.226087,16.6527134 C75.0086957,13.584879 45.1942029,7.22992357 29.5369565,13.3648662 C13.8789855,19.500535 12.8057971,25.4169172 13.8789855,43.3853503 C14.9514493,61.3537834 20.5282609,76.2543822 24.3891304,81.9514777 C28.25,87.6485732 41.9775362,89.4021401 41.9775362,89.4021401 C23.3166667,88.9635669 21.1717391,79.1036561 20.0992754,77.3493631 C19.0268116,75.5965223 15.8086957,72.0901146 15.165942,74.9393885 C14.5224638,77.7879363 8.75507246,60.369172 9.82826087,59.4927516 C10.9,58.6156051 17.5253623,68.3658726 17.5253623,68.3658726 C17.5253623,68.3658726 15.165942,63.5451975 12.8057971,49.9595924 C10.4471014,36.3739873 14.0934783,29.5804586 11.7333333,29.1426115 C9.37463768,28.7040382 14.6673913,49.1891847 7.91014493,50.1004586 C5.98478261,50.3596815 7.58333333,31.9824459 8.44130435,28.2574777 C9.29927536,24.5317834 10.2326087,23.4447898 10.2326087,23.4447898 C10.2326087,23.4447898 4.22681159,27.3897707 6.58623188,50.6167261 L6.58623188,50.6167261 Z" id="Fill-7" mask="url(#mask-2)"></path>
                </g>
                <path d="M105.813768,28.7875414 C100.42029,22.806535 90.7862319,21.697758 75.9681159,21.8037707 C60.8086957,21.9126879 50.3543478,23.1812102 45.0876812,29.158586 C39.8905797,35.0568153 39.9028986,45.2442038 41.6086957,59.7686752 C45.2210145,90.5341529 49.9746377,95.5109427 75.5217391,95.2727771 C87.6398551,95.1595032 95.6717391,94.0703312 100.863043,88.8386752 C105.685507,83.9780637 108.278261,75.5043057 110.11087,58.6156051 C111.812319,42.933707 110.525362,34.0133885 105.813768,28.7875414" id="Fill-10" fill="#5A1920"></path>
                <g id="Group-13" transform="translate(41.304348, 22.509554)">
                    <mask id="mask-4" fill="white">
                        <use xlink:href="#path-3"></use>
                    </mask>
                    <g id="Clip-12"></g>
                    <path d="M53.5963768,69.4027643 C53.9884058,69.2386624 54.3688406,69.065121 54.7391304,68.8806879 L55.2471014,1.90605096 C54.7768116,1.77607643 54.2927536,1.65481529 53.7963768,1.54226752 L53.5963768,69.4027643 Z M44.9101449,0.378305732 C44.8369565,10.5214013 44.5608696,46.0175159 44.0905797,71.4838089 C45.1855072,71.3814268 46.226087,71.2536306 47.2188406,71.098242 C46.7644928,44.9944204 46.5594203,9.24126115 46.5144928,0.490853503 C45.9891304,0.448012739 45.4536232,0.410980892 44.9101449,0.378305732 Z M47.2514493,0.556929936 L48.0231884,70.9639108 C48.3884058,70.9000127 48.7492754,70.831758 49.1014493,70.7576943 C48.8369565,44.884051 48.7275362,9.75026752 48.7021739,0.699974522 C48.2297101,0.646968153 47.742029,0.60122293 47.2514493,0.556929936 Z M51.734058,70.078051 C52.1217391,69.9567898 52.5007246,69.8275414 52.8710145,69.6895796 L53.0724638,1.38179618 C52.6,1.28522293 52.1123188,1.19663694 51.6173913,1.11313376 C51.6362319,11.6192866 51.7028986,51.141707 51.734058,70.078051 Z M34.6782609,0.15611465 C34.4471014,0.158292994 34.2268116,0.162649682 33.9978261,0.164828025 L34.7826087,71.8940637 C35.1478261,71.889707 35.5072464,71.8846242 35.8630435,71.8788153 C35.5862319,46.1997707 35.4710145,10.0457962 35.4434783,0.15466242 C35.1869565,0.15611465 34.9384058,0.15466242 34.6782609,0.15611465 Z M36.1782609,0.153286849 L36.6311594,71.8650191 C37.0036232,71.857758 37.3724638,71.8483185 37.7362319,71.8381529 C37.6485507,46.1649172 37.6326087,10.0443439 37.6304348,0.155388535 C37.1536232,0.152484076 36.6652174,0.153286849 36.1782609,0.153286849 Z M55.515942,68.4668025 C55.8949275,68.2525987 56.2630435,68.0253248 56.6181159,67.7835287 L57.4144928,2.59658599 C56.9507246,2.42522293 56.4753623,2.26112102 55.9811594,2.1115414 C55.9318841,12.6329427 55.7695652,44.0686242 55.515942,68.4668025 Z M60.5398551,4.05026752 L61.1855072,63.0267516 C61.5644928,62.4378726 61.923913,61.8105096 62.265942,61.1424841 C62.092029,39.7881783 62.0043478,15.6775414 61.9724638,5.01382166 C61.5181159,4.67327389 61.0449275,4.34724841 60.5398551,4.05026752 Z M64.9652174,53.7738726 C65.4144928,52.0805732 65.8217391,50.2318854 66.1971014,48.2096561 L66.3086957,10.4538726 C65.892029,9.56075159 65.4195652,8.74169427 64.8884058,7.99815287 C64.9057971,18.7758726 64.9384058,37.8073376 64.9652174,53.7738726 Z M42.7253623,0.267210191 C42.6789855,10.2803312 42.4985507,46.0654395 42.2115942,71.6348408 C42.5797101,71.6101529 42.9442029,71.5832866 43.3014493,71.554242 L44.1702899,0.334738854 C43.6963768,0.309324841 43.2137681,0.287541401 42.7253623,0.267210191 Z M67.0275362,12.2335796 L66.9347826,43.7455032 C67.2876812,41.3529554 67.6130435,38.7636306 67.9181159,35.9499363 C68.065942,34.5899236 68.1826087,33.2996178 68.2855072,32.0419873 L68.3862319,18.8136306 C68.1318841,16.2925605 67.6797101,14.1149427 67.0275362,12.2335796 Z M63.9181159,6.77247134 C63.5463768,6.36149045 63.1427536,5.98100637 62.7210145,5.61649682 L63.0601449,59.4491847 C63.4695652,58.4928917 63.8514493,57.462535 64.2094203,56.3544841 C64.1702899,37.5778854 64.1557971,17.6344204 64.1514493,7.05783439 C64.0724638,6.96489172 63.9992754,6.86323567 63.9181159,6.77247134 Z M13.8086957,69.1972739 C14.1717391,69.3831592 14.5456522,69.5574268 14.9311594,69.7200764 L15.4478261,1.63521019 C14.957971,1.73904459 14.4731884,1.84433121 14.0072464,1.96123567 L13.8086957,69.1972739 Z M38.4782609,71.8170955 C38.857971,71.8047516 39.2326087,71.7909554 39.6014493,71.7764331 L39.8123188,0.179350318 C39.3384058,0.170636943 38.8449275,0.167732484 38.357971,0.163375796 C38.376087,11.1625605 38.4492754,54.2088153 38.4782609,71.8170955 Z M40.326087,71.743758 C40.7065217,71.724879 41.0818841,71.706 41.4507246,71.6842166 L41.9927536,0.238165605 C41.515942,0.222191083 41.0268116,0.209847134 40.5369565,0.198229299 L40.326087,71.743758 Z M49.4362319,0.792191083 L49.8768116,70.5863312 C50.2565217,70.4970191 50.6253623,70.3997197 50.9884058,70.2987898 C50.9072464,44.7460892 50.892029,10.4262803 50.8898551,0.986789809 C50.4173913,0.914904459 49.926087,0.853910828 49.4362319,0.792191083 Z M2.63478261,47.3245223 C2.97101449,49.2755924 3.32971014,51.0763567 3.71666667,52.7348025 L4.27246377,7.26332484 C3.76086957,7.85728662 3.29855072,8.49844586 2.88623188,9.19769427 C2.83188406,19.2892357 2.74710145,33.402 2.63478261,47.3245223 Z M0.655797101,31.9497707 C0.802898551,33.5740892 0.981884058,35.2877197 1.19565217,37.1088153 C1.41376812,38.969121 1.6384058,40.7270446 1.87173913,42.3963822 L2.11231884,10.7072866 C1.49057971,12.1065096 1.02318841,13.711949 0.704347826,15.5751592 L0.655797101,31.9497707 Z M5.0615942,6.44499363 C4.96304348,18.5246369 4.78188406,38.0709172 4.52101449,55.8353121 C5.32753623,58.6192357 6.25362319,60.9340892 7.35,62.8524841 C7.03478261,42.4675414 6.8557971,18.081707 6.77608696,5.03270064 C6.15507246,5.46401274 5.58550725,5.93598726 5.0615942,6.44499363 Z M58.157971,2.88921019 C58.0775362,13.9130828 57.8369565,43.5625223 57.442029,67.1859363 C58.5152174,66.3516306 59.4804348,65.3684713 60.3536232,64.2175796 C60.0144928,41.1968408 59.8427536,13.9428535 59.7862319,3.64945223 C59.2673913,3.37715924 58.726087,3.12301911 58.157971,2.88921019 Z M7.54565217,4.52659873 L8.19927536,64.2095924 C8.55,64.7207771 8.91521739,65.2007389 9.29855072,65.6480255 C9.08913043,44.0766115 8.9826087,17.011414 8.93985507,3.76127389 C8.45289855,4.00016561 7.98913043,4.25575796 7.54565217,4.52659873 Z M9.68985507,3.42 L10.0884058,66.5004841 C10.4478261,66.8591847 10.8210145,67.196828 11.2086957,67.5119618 C11.1376812,45.1599745 11.1166667,16.1001401 11.1108696,2.84854777 C10.6195652,3.02717197 10.1463768,3.21814013 9.68985507,3.42 Z M31.6442029,0.196050955 C31.5623188,11.4457452 31.2797101,46.949121 30.8043478,71.9064076 C31.8275362,71.9143949 32.8891304,71.9110432 33.9898551,71.902051 C33.5231884,46.2375287 33.3094203,10.0944459 33.257971,0.173541401 C32.715942,0.180076433 32.1724638,0.186611465 31.6442029,0.196050955 Z M20.7550725,0.816152866 L21.5282609,71.3821529 C21.8826087,71.4293503 22.2413043,71.4743694 22.6094203,71.5135796 C22.3398551,46.917172 22.2217391,12.3417707 22.1876812,0.666573248 C21.6985507,0.710866242 21.2275362,0.764598726 20.7550725,0.816152866 Z M11.9550725,68.076879 C12.3195652,68.3346497 12.6956522,68.577172 13.0855072,68.8029936 L13.2818841,2.16236943 C12.7898551,2.29670064 12.3086957,2.43829299 11.8449275,2.59150318 C11.8695652,17.2241656 11.9275362,51.4256178 11.9550725,68.076879 Z M29.4608696,0.250509554 C29.407971,11.5532102 29.2253623,46.9658217 28.9384058,71.8817197 C29.2956522,71.8889809 29.657971,71.8955159 30.0253623,71.8991465 L30.9007246,0.214929936 C30.4188406,0.225095541 29.9326087,0.235261146 29.4608696,0.250509554 Z M16.1905797,1.4870828 C16.1268116,14.4634777 15.9536232,46.5969554 15.6891304,70.0170573 C16.042029,70.147758 16.4014493,70.2711975 16.7724638,70.3859236 L17.6173913,1.23076433 C17.1297101,1.30991083 16.657971,1.39704459 16.1905797,1.4870828 Z M18.3710145,1.1203949 C18.2746377,13.9573758 17.9985507,46.9193503 17.5514493,70.6088408 C18.5471014,70.8767771 19.6072464,71.0938854 20.7355072,71.2681529 C20.2884058,46.8481911 20.0717391,12.7512994 20.0065217,0.896751592 C19.4471014,0.964280255 18.9065217,1.04197452 18.3710145,1.1203949 Z M27.0637681,71.826535 C27.4304348,71.8410573 27.8043478,71.8526752 28.1818841,71.8628408 L28.7253623,0.275923567 C28.2355072,0.293350318 27.7521739,0.312229299 27.2746377,0.333286624 L27.0637681,71.826535 Z M25.2195652,71.7335924 C25.5862319,71.7561019 25.9608696,71.7764331 26.3391304,71.7938599 L26.55,0.365961783 C26.0572464,0.389923567 25.5789855,0.420420382 25.1,0.449464968 C25.1217391,13.3169427 25.192029,55.2718471 25.2195652,71.7335924 Z M22.926087,0.607031847 L23.3746377,71.5912739 C23.7369565,71.6246752 24.1050725,71.655172 24.4797101,71.6827643 C24.392029,46.9563822 24.373913,12.0251847 24.3695652,0.492305732 C23.8768116,0.525707006 23.4043478,0.567095541 22.926087,0.607031847 L22.926087,0.607031847 Z" id="Fill-11" fill="url(#radialGradient-5)" mask="url(#mask-4)"></path>
                </g>
                <g id="Group-16" transform="translate(47.101449, 37.757962)">
                    <mask id="mask-7" fill="white">
                        <use xlink:href="#path-6"></use>
                    </mask>
                    <g id="Clip-15"></g>
                    <path d="M15.123913,41.4909172 L21.7746377,41.4909172 L21.7746377,0.356522293 L15.123913,0.356522293 L15.123913,41.4909172 Z M0.675362319,41.4909172 L7.32608696,41.4909172 L7.32608696,22.876242 L12.142029,22.876242 L12.142029,17.5915796 L7.32608696,17.5915796 L7.32608696,5.64118471 L12.8304348,5.64118471 L12.8304348,0.355796178 L0.675362319,0.355796178 L0.675362319,41.4909172 Z M41.0384058,0.355796178 L41.0384058,5.64118471 L45.1681159,5.64118471 L45.1681159,41.4909172 L51.8188406,41.4909172 L51.8188406,5.64118471 L56.4028986,5.64118471 L56.4028986,0.355796178 L41.0384058,0.355796178 Z M37.1391304,0.355796178 L24.5268116,0.355796178 L24.5268116,41.4909172 L31.1775362,41.4909172 L31.1775362,22.876242 L36.3905797,22.876242 C36.3905797,22.876242 36.6652174,24.1919618 36.6789855,26.0951083 C36.6949275,27.9982548 36.6789855,41.4909172 36.6789855,41.4909172 L42.5666667,41.4909172 L42.5666667,26.0951083 C42.5666667,26.0951083 42.5666667,19.0256561 41.2094203,12.3512102 C39.8521739,5.67603822 37.1391304,0.355796178 37.1391304,0.355796178 Z M35.9166667,17.5915796 L31.1775362,17.5915796 L31.1775362,5.64118471 L32.4956522,5.64118471 C32.4956522,5.64118471 34.3818841,8.10634395 35.1717391,12.0622166 C35.9615942,16.0180892 35.9166667,17.5915796 35.9166667,17.5915796 L35.9166667,17.5915796 Z" id="Fill-14" fill="url(#radialGradient-8)" mask="url(#mask-7)"></path>
                </g>
                <path d="M61.8630435,79.6119363 L69.2384058,79.6119363 L69.2384058,37.7514268 L61.8630435,37.7514268 L61.8630435,79.6119363 Z M68.5137681,38.4768153 C68.5137681,39.184051 68.5137681,78.178586 68.5137681,78.8858217 C67.9036232,78.8858217 63.1978261,78.8858217 62.5876812,78.8858217 C62.5876812,78.178586 62.5876812,39.184051 62.5876812,38.4768153 C63.1978261,38.4768153 67.9036232,38.4768153 68.5137681,38.4768153 L68.5137681,38.4768153 Z" id="Fill-17" fill="#1A1919"></path>
                <path d="M47.4144928,37.7507006 L47.4144928,79.6119363 L54.7898551,79.6119363 C54.7898551,79.6119363 54.7898551,61.6957834 54.7898551,60.9972611 C55.4094203,60.9972611 59.6057971,60.9972611 59.6057971,60.9972611 L59.6057971,54.9864841 C59.6057971,54.9864841 55.4094203,54.9864841 54.7898551,54.9864841 C54.7898551,54.3242675 54.7898551,44.4236943 54.7898551,43.7622038 C55.4224638,43.7622038 60.2942029,43.7622038 60.2942029,43.7622038 L60.2942029,37.7507006 L47.4144928,37.7507006 Z M59.5695652,38.4768153 C59.5695652,39.0598854 59.5695652,42.4530191 59.5695652,43.0360892 C58.9369565,43.0360892 54.0652174,43.0360892 54.0652174,43.0360892 L54.0652174,55.7125987 C54.0652174,55.7125987 58.2615942,55.7125987 58.8811594,55.7125987 C58.8811594,56.2949427 58.8811594,59.6880764 58.8811594,60.2711465 C58.2615942,60.2711465 54.0652174,60.2711465 54.0652174,60.2711465 C54.0652174,60.2711465 54.0652174,78.1880255 54.0652174,78.8858217 C53.4550725,78.8858217 48.7492754,78.8858217 48.1391304,78.8858217 C48.1391304,78.178586 48.1391304,39.184051 48.1391304,38.4768153 C48.8,38.4768153 58.9086957,38.4768153 59.5695652,38.4768153 L59.5695652,38.4768153 Z" id="Fill-18" fill="#1A1919"></path>
                <path d="M87.7775362,37.7507006 L87.7775362,43.7622038 C87.7775362,43.7622038 91.3043478,43.7622038 91.9072464,43.7622038 C91.9072464,44.4737962 91.9072464,79.6119363 91.9072464,79.6119363 L99.2826087,79.6119363 C99.2826087,79.6119363 99.2826087,44.4737962 99.2826087,43.7622038 C99.8971014,43.7622038 103.866667,43.7622038 103.866667,43.7622038 L103.866667,37.7507006 L87.7775362,37.7507006 Z M103.142029,38.4768153 C103.142029,39.0598854 103.142029,42.4530191 103.142029,43.0360892 C102.527536,43.0360892 98.557971,43.0360892 98.557971,43.0360892 C98.557971,43.0360892 98.557971,78.1742293 98.557971,78.8858217 C97.9478261,78.8858217 93.242029,78.8858217 92.6318841,78.8858217 C92.6318841,78.1742293 92.6318841,43.0360892 92.6318841,43.0360892 C92.6318841,43.0360892 89.1050725,43.0360892 88.5021739,43.0360892 C88.5021739,42.4530191 88.5021739,39.0598854 88.5021739,38.4768153 C89.1768116,38.4768153 102.468116,38.4768153 103.142029,38.4768153 L103.142029,38.4768153 Z" id="Fill-19" fill="#1A1919"></path>
                <path d="M71.265942,37.7507006 L71.265942,79.6119363 L78.6413043,79.6119363 C78.6413043,79.6119363 78.6413043,61.6957834 78.6413043,60.9972611 C79.2304348,60.9972611 82.6876812,60.9972611 83.1876812,60.9972611 C83.2652174,61.4721401 83.4086957,62.5119363 83.4181159,63.8552484 L83.4181159,79.6112102 L90.0304348,79.6119363 L90.0304348,63.8530701 C90.0304348,63.7819108 90.0152174,56.6703439 88.665942,50.0365605 C87.3144928,43.3904331 84.5905797,38.0019363 84.5630435,37.9489299 L84.4630435,37.7507006 L71.265942,37.7507006 Z M84.0152174,38.4768153 C84.4666667,39.4018854 86.7528986,44.2632229 87.9565217,50.1810573 C89.2905797,56.7422293 89.3057971,63.7826369 89.3057971,63.8530701 C89.3057971,63.8530701 89.3057971,78.1931083 89.3057971,78.8858217 C88.7094203,78.8858217 84.7391304,78.8858217 84.1427536,78.8858217 C84.1427536,78.1923822 84.1427536,63.8501656 84.1427536,63.8501656 C84.1289855,61.9332229 83.8586957,60.6153248 83.8471014,60.5601401 L83.7862319,60.2711465 L77.9166667,60.2711465 C77.9166667,60.2711465 77.9166667,78.1880255 77.9166667,78.8858217 C77.3072464,78.8858217 72.6014493,78.8858217 71.9905797,78.8858217 C71.9905797,78.178586 71.9905797,39.184051 71.9905797,38.4768153 C72.6615942,38.4768153 83.592029,38.4768153 84.0152174,38.4768153 L84.0152174,38.4768153 Z" id="Fill-20" fill="#1A1919"></path>
                <path d="M77.9166667,43.0360892 L77.9166667,55.7125987 L83.3702899,55.7125987 L83.3804348,55.3589809 C83.3818841,55.2929045 83.4166667,53.6998089 82.6282609,49.7490191 C81.8311594,45.7568408 79.9637681,43.2815159 79.8847826,43.1784076 L79.776087,43.0360892 L77.9166667,43.0360892 Z M79.4108696,43.7622038 C79.8007246,44.3234904 81.2572464,46.5831592 81.9181159,49.8913376 C82.4884058,52.7493248 82.6173913,54.340242 82.6463768,54.9864841 C82.0666667,54.9864841 79.207971,54.9864841 78.6413043,54.9864841 C78.6413043,54.3242675 78.6413043,44.4236943 78.6413043,43.7622038 C78.9485507,43.7622038 79.2231884,43.7622038 79.4108696,43.7622038 L79.4108696,43.7622038 Z" id="Fill-21" fill="#1A1919"></path>
            </g>
        </g>
    </g>
</svg>