<?xml version="1.0" encoding="UTF-8"?>
<svg width="100px" height="93px" viewBox="0 0 100 93" version="1.1" xmlns="http://www.w3.org/2000/svg" xmlns:xlink="http://www.w3.org/1999/xlink">
    <!-- Generator: Sketch 62 (91390) - https://sketch.com -->
    <title>Service3</title>
    <desc>Created with Sketch.</desc>
    <g id="Size-1920" stroke="none" stroke-width="1" fill="none" fill-rule="evenodd">
        <g id="Home-Page" transform="translate(-1329.000000, -1684.000000)">
            <g id="Service3" transform="translate(1309.000000, 1660.000000)">
                <rect id="Rectangle" x="0" y="0" width="140" height="140"></rect>
                <path d="M119.829968,71.2741656 L119.744952,71.315872 L105.398512,36.2825247 L111.94474,36.2825247 C113.118491,36.2825247 114.070138,35.3488235 114.070138,34.1972064 C114.070138,33.0455894 113.118491,32.1118881 111.94474,32.1118881 L71.9447396,32.1118881 L71.9447396,26.0853183 C71.9447396,24.9337013 70.9930925,24 69.8193411,24 C68.6455898,24 67.6939426,24.9337013 67.6939426,26.0853183 L67.6939426,32.091035 L27.7151966,32.091035 C26.5414453,32.091035 25.5897981,33.0247362 25.5897981,34.1763533 C25.5897981,35.3279703 26.5414453,36.2616715 27.7151966,36.2616715 L34.5377258,36.2616715 L20.1700319,71.2741656 C20.063762,71.5184085 20.0061105,71.7803767 20,72.0457334 C20,81.6220363 27.9123273,89.385155 37.6726886,89.385155 C47.4330499,89.385155 55.3453773,81.6220363 55.3453773,72.0457334 C55.3392667,71.7803767 55.2816153,71.5184085 55.1753454,71.2741656 L40.8289054,36.2408184 L67.6939426,36.2408184 L67.6939426,100.71886 C57.5557917,101.469574 49.6280553,107.516998 49.6280553,114.836465 C49.6280553,115.988082 50.5797024,116.921783 51.7534538,116.921783 L87.8852285,116.921783 C89.0589798,116.921783 90.010627,115.988082 90.010627,114.836465 C90.010627,107.516998 82.0828905,101.469574 71.9447396,100.71886 L71.9447396,36.2408184 L99.0860786,36.2408184 L84.8246546,71.2741656 C84.7183847,71.5184085 84.6607333,71.7803767 84.6546227,72.0457334 C84.6546227,81.6220363 92.5669501,89.385155 102.327311,89.385155 C112.087673,89.385155 120,81.6220363 120,72.0457334 C119.993889,71.7803767 119.936238,71.5184085 119.829968,71.2741656 Z M37.6620616,85.2457982 C31.0791711,85.2369356 25.4729012,80.5486187 24.4208289,74.1727581 L50.8182784,74.1727581 C49.7715197,80.5175996 44.2128055,85.1962719 37.6620616,85.2457982 Z M50.053135,70.0021215 L25.3134963,70.0021215 L37.7045696,39.7441531 L50.053135,70.0021215 Z M85.3772582,112.751146 L54.24017,112.751146 C55.8129649,108.267712 62.2954304,104.806084 69.7980871,104.806084 C77.3007439,104.806084 83.8044633,108.267712 85.3772582,112.751146 Z M102.231668,39.7650063 L114.580234,70.0021215 L89.8405951,70.0021215 L102.231668,39.7650063 Z M102.231668,85.2457982 L102.231668,85.2666514 C95.674017,85.2153004 90.1129118,80.5259409 89.0754516,74.1727581 L115.472901,74.1727581 C114.420829,80.5486187 108.814559,85.2369356 102.231668,85.2457982 Z" id="Shape" fill="#8997B9" fill-rule="nonzero"></path>
            </g>
        </g>
    </g>
</svg>